<svg width="30" height="30" viewBox="0 0 30 30" fill="none" xmlns="http://www.w3.org/2000/svg">
<path fill-rule="evenodd" clip-rule="evenodd" d="M18.5462 29.9576C28.9737 29.6563 30 27.4613 30 15C30 1.25 28.75 0 15 0C1.25 0 0 1.25 0 15C0 27.4938 1.0325 29.6676 11.535 29.9601C11.6262 29.8463 11.66 29.7038 11.66 29.5588C11.66 29.2463 11.6475 26.0388 11.6412 24.9351C7.84501 25.7338 7.04376 23.1613 7.04376 23.1613C6.42251 21.6338 5.5275 21.2263 5.5275 21.2263C4.28875 20.4063 5.62125 20.4226 5.62125 20.4226C6.99126 20.5163 7.71251 21.7863 7.71251 21.7863C8.93001 23.8076 10.9075 23.2238 11.685 22.8851C11.8087 22.0313 12.1612 21.4476 12.5512 21.1176C9.52001 20.7838 6.33375 19.6488 6.33375 14.58C6.33375 13.1363 6.86626 11.9563 7.73876 11.0313C7.59751 10.6963 7.13001 9.35126 7.87251 7.53126C7.87251 7.53126 9.01876 7.17501 11.6262 8.88626C12.715 8.59251 13.8825 8.44626 15.0437 8.44126C16.2025 8.44626 17.37 8.59251 18.4612 8.88626C21.0675 7.17501 22.2112 7.53126 22.2112 7.53126C22.9562 9.35126 22.4875 10.6963 22.3462 11.0313C23.2212 11.9563 23.75 13.1363 23.75 14.58C23.75 19.6613 20.5587 20.7801 17.5175 21.1063C18.0075 21.5151 18.4437 22.3226 18.4437 23.5563C18.4437 24.7388 18.4362 26.8301 18.4312 28.2163C18.4287 28.9026 18.4275 29.4151 18.4275 29.5588C18.4275 29.6951 18.4637 29.8388 18.5462 29.9576Z" fill="#0C0C0C"/>
</svg>
