<?xml version="1.0" encoding="UTF-8"?>
<svg id="Vrstva_1" data-name="Vrstva 1" xmlns="http://www.w3.org/2000/svg" viewBox="0 0 111 147">
  <defs>
    <style>
      .cls-1 {
        fill: none;
      }

      .cls-2 {
        fill: #ab0000;
      }
    </style>
  </defs>
  <rect class="cls-1" width="111" height="147"/>
  <rect class="cls-2" x="48" y="36" width="15" height="45"/>
  <rect class="cls-2" x="33" y="51" width="45" height="15"/>
  <path d="m105.55,54.45c-.47,17.89-6.61,33.54-15.77,47.79-8.52,13.26-18.32,25.71-27.81,38.33-3.03,4.03-6.21,4.25-9.19.77-18.38-21.43-35.54-43.75-44.57-70.98C.38,46.72,9.66,20.63,29.64,9.27c26.8-15.24,69.95-3.57,75.52,39.25.28,2.14.29,4.32.39,5.93Zm-48.52,75.66c14.14-16.83,26.39-34.12,33.91-54.32,4.2-11.28,6.14-22.87,2.01-34.66-5.28-15.09-15.77-24.63-31.61-27.13-14.78-2.33-27.98,1.28-37.11,14.08-10.05,14.09-10.58,29.31-4.02,45,8.77,20.96,22.2,38.91,36.81,57.03Z"/>
</svg>