<svg width="466" height="466" viewBox="0 0 466 466" fill="none" xmlns="http://www.w3.org/2000/svg">
<path d="M302.136 21.7715C302.136 21.7715 234.351 -2.33933 167.807 36.0404C101.262 74.4202 67.6817 150.602 38.855 211.62C10.0282 272.638 26.6178 334.719 77.4118 363.023C128.206 391.328 162.746 349.603 233.988 347.571C305.23 345.539 324.392 355.726 383.546 315.473C442.7 275.22 453.371 180.146 406.725 109.799C360.078 39.4515 302.136 21.7715 302.136 21.7715Z" fill="#AB0000"/>
<path opacity="0.7" d="M302.136 21.7715C302.136 21.7715 234.351 -2.33933 167.807 36.0404C101.262 74.4202 67.6817 150.602 38.855 211.62C10.0282 272.638 26.6178 334.719 77.4118 363.023C128.206 391.328 162.746 349.603 233.988 347.571C305.23 345.539 324.392 355.726 383.546 315.473C442.7 275.22 453.371 180.146 406.725 109.799C360.078 39.4515 302.136 21.7715 302.136 21.7715Z" fill="white"/>
<path d="M423.463 371.085C419.735 370.554 412.643 365.931 412.633 365.931C412.624 365.931 417.098 362.203 417.405 361.979C421.031 359.659 429.391 357.319 433.109 360.367C433.713 360.893 434.199 361.541 434.536 362.268C434.873 362.995 435.053 363.784 435.065 364.585C435.076 365.386 434.919 366.181 434.603 366.917C434.287 367.653 433.819 368.314 433.231 368.857C430.817 371.243 426.641 371.542 423.463 371.085Z" fill="#AB0000"/>
<path d="M353.946 335.306C353.852 335.306 355.595 329.714 355.744 329.378C357.487 325.445 363.2 318.875 367.953 319.378C368.746 319.483 369.508 319.754 370.189 320.173C370.87 320.593 371.455 321.151 371.906 321.811C372.357 322.471 372.664 323.219 372.806 324.006C372.949 324.792 372.925 325.601 372.735 326.377C372.045 329.714 368.727 332.267 365.819 333.638C362.408 335.25 353.946 335.306 353.946 335.306Z" fill="#AB0000"/>
<path d="M346.984 428.561C345.334 430.612 343.833 432.541 342.491 434.312H339.099C340.804 432.122 342.827 429.652 345.045 426.968C346.35 425.402 347.776 423.762 349.258 422.084C347.917 420.433 346.672 418.706 345.53 416.911C342.501 417.927 336.312 417.657 335.511 417.62C335.278 419.605 335.073 421.553 334.905 423.38C334.513 427.527 334.28 431.208 334.122 434.312H331.326C331.55 431.143 331.876 427.378 332.36 423.128C332.593 421.096 332.873 418.943 333.19 416.725C332.407 416.492 326.06 414.507 323.73 412.447C321.614 410.583 319.443 407.601 319.676 404.618C319.707 403.916 319.886 403.228 320.2 402.599C320.515 401.97 320.958 401.415 321.501 400.968C322.044 400.522 322.675 400.194 323.353 400.008C324.031 399.821 324.74 399.779 325.436 399.884C329.602 400.639 332.771 407.582 333.274 411.329C333.274 411.552 333.358 413.985 333.367 415.523C333.497 414.591 333.619 413.743 333.758 412.811C334.038 410.947 334.374 409.148 334.69 407.219C334.895 406.287 335.101 405.355 335.306 404.357C335.511 403.36 335.809 402.41 336.06 401.422C336.685 399.157 337.431 396.883 338.232 394.609C336.62 394.366 330.916 393.397 328.53 391.859C326.144 390.322 323.562 387.721 323.339 384.739C323.259 384.037 323.328 383.326 323.541 382.653C323.755 381.979 324.108 381.358 324.577 380.831C325.047 380.303 325.623 379.88 326.267 379.59C326.911 379.3 327.609 379.149 328.316 379.147C332.547 379.259 336.704 385.671 337.803 389.278C337.869 389.501 338.335 392.186 338.568 393.667C339.062 392.307 339.546 390.946 340.087 389.585C341.652 385.662 343.358 381.728 345.045 377.805C345.558 376.602 346.061 375.391 346.564 374.189C345.996 374.105 339.192 373.107 336.517 371.393C334.15 369.864 331.55 367.255 331.326 364.272C331.246 363.57 331.315 362.859 331.528 362.186C331.742 361.512 332.095 360.892 332.565 360.364C333.034 359.836 333.61 359.413 334.254 359.123C334.898 358.833 335.596 358.682 336.303 358.68C340.534 358.792 344.691 365.204 345.781 368.811C345.865 369.081 346.536 372.949 346.657 373.946C347.776 371.29 348.857 368.634 349.817 365.978C351.136 362.395 352.222 358.731 353.069 355.008C352.799 355.008 345.697 353.955 342.957 352.212C340.59 350.684 337.99 348.074 337.766 345.092C337.685 344.389 337.752 343.678 337.965 343.004C338.178 342.33 338.531 341.708 339.001 341.18C339.471 340.652 340.048 340.229 340.692 339.94C341.337 339.65 342.036 339.5 342.743 339.5C346.974 339.611 351.131 346.024 352.221 349.621C352.296 349.863 352.809 352.809 353.023 354.216H353.265C354.013 350.445 354.422 346.615 354.486 342.771C354.551 340.655 354.486 338.633 354.393 336.666C353.051 336.61 346.937 336.303 344.281 334.979C341.625 333.656 338.884 331.419 338.335 328.455C338.184 327.768 338.179 327.057 338.321 326.368C338.463 325.679 338.747 325.028 339.157 324.456C339.566 323.884 340.091 323.404 340.698 323.048C341.304 322.692 341.979 322.467 342.678 322.388C346.89 322.034 351.755 327.924 353.209 331.41C353.293 331.606 353.88 333.619 354.29 335.138C354.234 334.206 354.188 333.33 354.113 332.482C353.843 329.285 353.405 326.386 352.995 323.814C352.753 322.351 352.501 321.018 352.249 319.816C350.963 319.07 345.8 316.032 344.094 313.692C342.389 311.353 340.953 308.035 341.82 305.174C342.002 304.495 342.325 303.861 342.767 303.315C343.21 302.768 343.762 302.321 344.389 302.002C345.016 301.683 345.702 301.499 346.405 301.463C347.107 301.426 347.809 301.538 348.465 301.791C352.37 303.422 353.974 310.887 353.657 314.652C353.657 314.979 352.613 320.021 352.548 319.983L352.473 319.937C352.734 321.111 353.004 322.379 353.265 323.767C353.731 326.33 354.197 329.238 354.579 332.435C354.978 335.875 355.178 339.336 355.176 342.799C355.206 346.677 354.894 350.551 354.244 354.374C354.244 354.421 354.244 354.467 354.244 354.505C354.822 353.414 356.546 350.395 356.704 350.18C358.932 347.133 365.046 342.547 369.063 343.88C369.724 344.119 370.327 344.494 370.833 344.981C371.34 345.469 371.738 346.058 372.002 346.709C372.265 347.361 372.389 348.06 372.364 348.763C372.34 349.465 372.167 350.155 371.859 350.786C370.638 353.517 367.301 355.092 364.552 355.726C361.448 356.443 354.682 355.064 354.141 354.952C353.364 358.822 352.33 362.636 351.047 366.369C350.311 368.55 349.5 370.722 348.661 372.893C349.192 371.961 349.668 371.132 349.752 371.029C351.979 367.981 358.084 363.396 362.11 364.729C362.771 364.968 363.374 365.343 363.881 365.83C364.387 366.318 364.785 366.906 365.049 367.558C365.313 368.209 365.436 368.909 365.412 369.612C365.387 370.314 365.215 371.004 364.906 371.635C363.685 374.366 360.358 375.941 357.608 376.575C354.859 377.208 349.025 376.155 347.496 375.857C347.161 376.686 346.844 377.516 346.508 378.345C344.905 382.316 343.293 386.267 341.848 390.191C341.336 391.57 340.916 392.987 340.413 394.338C340.888 393.509 341.289 392.81 341.345 392.717C343.572 389.66 349.677 385.084 353.703 386.407C354.365 386.647 354.968 387.023 355.475 387.512C355.981 388 356.379 388.589 356.643 389.242C356.907 389.894 357.03 390.594 357.005 391.297C356.981 392 356.808 392.69 356.499 393.323C355.278 396.053 351.951 397.628 349.202 398.253C346.452 398.877 341.177 397.945 339.36 397.591C338.931 399.026 338.493 400.452 338.139 401.86C337.924 402.792 337.645 403.724 337.477 404.712C337.309 405.7 337.104 406.632 336.918 407.582C336.638 409.446 336.331 411.31 336.098 413.118C335.921 414.367 335.781 415.56 335.641 416.762C336.135 415.383 337.17 412.699 337.281 412.484C338.926 409.592 341.284 407.169 344.132 405.448C344.299 405.118 344.499 404.806 344.728 404.516C345.141 403.947 345.668 403.471 346.277 403.12C346.885 402.768 347.561 402.549 348.26 402.476C348.959 402.403 349.666 402.478 350.334 402.696C351.002 402.914 351.616 403.271 352.137 403.742C355.204 406.669 354.001 414.209 352.361 417.61C352.268 417.816 350.972 419.875 350.124 421.161C350.739 420.481 351.317 419.81 351.988 419.12C353.237 417.741 354.514 416.399 355.893 414.954L357.99 412.913C358.671 412.214 359.482 411.562 360.227 410.881C362.007 409.325 363.881 407.843 365.819 406.389C364.617 405.299 360.395 401.347 359.295 398.747C358.195 396.147 357.431 392.558 358.894 389.949C359.219 389.326 359.671 388.778 360.221 388.341C360.771 387.904 361.406 387.587 362.087 387.411C362.767 387.236 363.476 387.205 364.169 387.321C364.862 387.437 365.522 387.697 366.108 388.085C369.575 390.517 369.547 398.15 368.429 401.766C368.364 401.99 367.273 404.488 366.649 405.849C367.804 404.991 368.96 404.124 370.162 403.286C373.639 400.872 377.227 398.532 380.806 396.193L384.068 394.022C383.63 393.63 378.476 389.045 377.236 386.137C376.099 383.555 375.372 379.939 376.835 377.329C377.159 376.705 377.61 376.157 378.16 375.719C378.71 375.281 379.346 374.964 380.026 374.788C380.707 374.612 381.417 374.581 382.11 374.698C382.803 374.815 383.464 375.076 384.049 375.465C387.516 377.889 387.488 385.531 386.37 389.138C386.286 389.408 384.711 393.015 384.264 393.91C386.659 392.307 389.026 390.694 391.291 389.007C394.372 386.748 397.302 384.288 400.061 381.645C399.856 381.468 394.469 376.705 393.183 373.723C392.046 371.141 391.319 367.525 392.773 364.925C393.096 364.301 393.548 363.752 394.097 363.314C394.647 362.876 395.283 362.559 395.964 362.383C396.644 362.207 397.354 362.176 398.047 362.293C398.74 362.41 399.401 362.671 399.986 363.061C403.463 365.493 403.425 373.126 402.316 376.733C402.242 376.975 401.04 379.715 400.452 381.011C400.521 381.052 400.587 381.099 400.648 381.151C403.355 378.42 405.81 375.451 407.983 372.278C409.204 370.544 410.276 368.83 411.273 367.133C410.182 366.341 405.243 362.706 403.77 360.153C402.298 357.599 401.235 354.197 402.4 351.448C402.65 350.79 403.036 350.192 403.533 349.694C404.03 349.195 404.626 348.807 405.283 348.554C405.94 348.302 406.643 348.191 407.346 348.229C408.049 348.266 408.736 348.452 409.362 348.773C413.09 350.805 413.882 358.401 413.174 362.11C413.174 362.315 412.512 364.328 412.046 365.782C412.484 365.008 412.978 364.216 413.361 363.471C414.898 360.675 416.157 358 417.21 355.623C417.806 354.272 418.328 353.042 418.794 351.895C418.123 350.572 415.504 345.175 415.374 342.286C415.243 339.397 415.868 335.837 418.17 333.898C418.695 333.43 419.313 333.078 419.984 332.865C420.655 332.652 421.363 332.583 422.062 332.662C422.761 332.741 423.436 332.967 424.042 333.325C424.648 333.682 425.172 334.163 425.579 334.737C427.937 338.251 425.16 345.362 422.783 348.326C422.587 348.587 418.962 352.231 418.925 352.165L418.878 352.082C418.449 353.209 417.946 354.412 417.433 355.716C416.408 358.112 415.225 360.814 413.705 363.666C412.146 366.759 410.403 369.756 408.486 372.641C406.363 375.89 403.952 378.94 401.282 381.756C401.253 381.79 401.222 381.821 401.189 381.85C402.27 381.253 405.373 379.697 405.625 379.604C409.167 378.289 416.809 377.833 419.409 381.16C419.829 381.725 420.125 382.372 420.278 383.059C420.431 383.746 420.437 384.457 420.296 385.147C420.156 385.836 419.871 386.488 419.461 387.06C419.051 387.633 418.526 388.112 417.918 388.467C415.402 390.07 411.758 389.539 409.111 388.551C406.128 387.432 401.245 382.558 400.853 382.167C398.071 384.966 395.104 387.576 391.971 389.977C390.107 391.393 388.243 392.773 386.379 394.105C387.311 393.621 388.197 393.173 388.327 393.173C391.869 391.859 399.511 391.403 402.111 394.73C402.531 395.295 402.827 395.942 402.98 396.629C403.133 397.316 403.139 398.027 402.999 398.717C402.858 399.406 402.573 400.058 402.163 400.63C401.754 401.202 401.228 401.682 400.62 402.037C398.104 403.64 394.46 403.118 391.813 402.13C389.166 401.142 384.879 397.041 383.77 395.951C383.043 396.454 382.316 396.976 381.579 397.479C378.056 399.902 374.524 402.307 371.132 404.777C369.939 405.644 368.802 406.548 367.646 407.442C368.503 407.004 369.221 406.65 369.333 406.613C372.874 405.299 380.517 404.842 383.117 408.169C383.537 408.734 383.834 409.38 383.988 410.067C384.141 410.753 384.148 411.464 384.008 412.154C383.869 412.843 383.585 413.496 383.176 414.068C382.767 414.64 382.242 415.12 381.635 415.476C379.11 417.079 375.465 416.557 372.819 415.56C370.172 414.563 366.295 410.9 364.98 409.586C363.834 410.518 362.678 411.45 361.616 412.466C360.898 413.146 360.162 413.752 359.482 414.479L357.431 416.567C356.182 417.946 354.887 419.363 353.703 420.723C352.874 421.655 352.091 422.587 351.308 423.519C352.492 422.643 354.831 420.975 355.036 420.854C358.345 418.99 365.801 417.415 368.895 420.304C369.396 420.799 369.788 421.393 370.044 422.049C370.3 422.705 370.415 423.408 370.382 424.111C370.348 424.814 370.167 425.503 369.85 426.132C369.533 426.76 369.087 427.315 368.541 427.76C366.192 429.652 362.548 429.652 359.752 429.111C356.714 428.478 351.364 424.573 350.674 424.088C349.379 425.616 348.13 427.117 346.984 428.561Z" fill="#AB0000"/>
<path d="M306.031 371.085C302.303 370.554 295.211 365.931 295.201 365.931C295.192 365.931 299.665 362.203 299.973 361.979C303.599 359.659 311.959 357.319 315.677 360.367C316.281 360.893 316.767 361.541 317.104 362.268C317.441 362.995 317.621 363.784 317.633 364.585C317.644 365.386 317.487 366.181 317.171 366.917C316.855 367.653 316.387 368.314 315.798 368.857C313.385 371.243 309.209 371.542 306.031 371.085Z" fill="#AB0000"/>
<path d="M236.513 335.306C236.42 335.306 238.163 329.714 238.312 329.378C240.055 325.445 245.768 318.875 250.521 319.378C251.314 319.483 252.076 319.754 252.757 320.173C253.438 320.593 254.023 321.151 254.474 321.811C254.925 322.471 255.232 323.219 255.374 324.006C255.517 324.792 255.493 325.601 255.302 326.377C254.613 329.714 251.295 332.267 248.387 333.638C244.976 335.25 236.513 335.306 236.513 335.306Z" fill="#AB0000"/>
<path d="M229.551 428.561C227.902 430.612 226.401 432.541 225.059 434.312H221.666C223.372 432.122 225.394 429.652 227.613 426.968C228.917 425.402 230.343 423.762 231.825 422.084C230.485 420.433 229.24 418.706 228.097 416.911C225.068 417.927 218.88 417.657 218.078 417.62C217.845 419.605 217.64 421.553 217.472 423.38C217.081 427.527 216.848 431.208 216.69 434.312H213.94C214.164 431.143 214.49 427.378 214.975 423.128C215.208 421.096 215.487 418.943 215.804 416.725C215.021 416.492 208.674 414.507 206.344 412.447C204.229 410.583 202.057 407.601 202.29 404.618C202.321 403.916 202.5 403.228 202.815 402.599C203.129 401.97 203.572 401.415 204.115 400.968C204.659 400.522 205.289 400.194 205.967 400.008C206.645 399.821 207.355 399.779 208.05 399.884C212.216 400.639 215.385 407.582 215.888 411.329C215.888 411.552 215.972 413.985 215.981 415.523C216.112 414.591 216.233 413.743 216.373 412.811C216.652 410.947 216.988 409.148 217.305 407.219C217.51 406.287 217.715 405.355 217.92 404.357C218.125 403.36 218.423 402.41 218.675 401.422C219.299 399.157 220.045 396.883 220.846 394.609C219.234 394.366 213.53 393.397 211.144 391.859C208.758 390.322 206.177 387.721 205.953 384.739C205.873 384.037 205.942 383.326 206.155 382.653C206.369 381.979 206.722 381.358 207.192 380.831C207.661 380.303 208.237 379.88 208.881 379.59C209.525 379.3 210.223 379.149 210.93 379.147C215.161 379.259 219.318 385.671 220.418 389.278C220.483 389.501 220.949 392.186 221.182 393.667C221.676 392.307 222.114 390.946 222.701 389.585C224.267 385.662 225.972 381.728 227.659 377.805C228.172 376.602 228.675 375.391 229.178 374.189C228.61 374.105 221.806 373.107 219.131 371.393C216.764 369.864 214.164 367.255 213.94 364.272C213.86 363.57 213.929 362.859 214.143 362.186C214.356 361.512 214.709 360.892 215.179 360.364C215.649 359.836 216.224 359.413 216.868 359.123C217.512 358.833 218.211 358.682 218.917 358.68C223.148 358.792 227.305 365.204 228.395 368.811C228.479 369.081 229.15 372.949 229.272 373.946C230.39 371.29 231.471 368.634 232.431 365.978C233.75 362.395 234.837 358.731 235.684 355.008C235.413 355.008 228.312 353.955 225.572 352.212C223.204 350.684 220.604 348.074 220.38 345.092C220.299 344.389 220.367 343.678 220.58 343.004C220.793 342.33 221.146 341.708 221.615 341.18C222.085 340.652 222.662 340.229 223.307 339.94C223.951 339.65 224.65 339.5 225.357 339.5C229.588 339.611 233.745 346.024 234.836 349.621C234.91 349.863 235.423 352.809 235.637 354.216H235.879C236.627 350.445 237.036 346.615 237.1 342.771C237.166 340.655 237.1 338.633 237.007 336.666C235.665 336.61 229.551 336.303 226.895 334.979C224.239 333.656 221.499 331.419 220.949 328.455C220.798 327.769 220.793 327.059 220.934 326.37C221.075 325.682 221.359 325.031 221.768 324.459C222.176 323.887 222.7 323.407 223.306 323.051C223.911 322.694 224.584 322.468 225.283 322.388C229.505 322.034 234.37 327.924 235.824 331.41C235.907 331.606 236.495 333.619 236.905 335.138C236.849 334.206 236.802 333.33 236.728 332.482C236.457 329.285 236.019 326.386 235.609 323.814C235.367 322.351 235.115 321.018 234.864 319.816C233.577 319.07 228.414 316.032 226.709 313.692C225.003 311.353 223.568 308.035 224.434 305.174C224.616 304.495 224.939 303.861 225.381 303.315C225.824 302.768 226.377 302.321 227.003 302.002C227.63 301.683 228.317 301.499 229.019 301.463C229.721 301.426 230.423 301.538 231.08 301.791C234.985 303.422 236.588 310.887 236.271 314.652C236.271 314.979 235.227 320.021 235.162 319.983L235.087 319.937C235.348 321.111 235.618 322.379 235.879 323.767C236.345 326.33 236.858 329.238 237.194 332.435C237.593 335.875 237.792 339.336 237.79 342.799C237.805 346.679 237.477 350.552 236.811 354.374C236.811 354.421 236.811 354.467 236.811 354.505C237.389 353.414 239.114 350.395 239.272 350.18C241.499 347.133 247.613 342.547 251.63 343.88C252.291 344.119 252.895 344.494 253.401 344.981C253.908 345.469 254.306 346.058 254.569 346.709C254.833 347.361 254.957 348.06 254.932 348.763C254.907 349.465 254.735 350.155 254.426 350.786C253.205 353.517 249.869 355.092 247.119 355.726C244.016 356.443 237.249 355.064 236.709 354.952C235.931 358.822 234.898 362.636 233.615 366.369C232.878 368.55 232.068 370.722 231.229 372.893C231.76 371.961 232.235 371.132 232.319 371.029C234.547 367.981 240.651 363.396 244.678 364.729C245.339 364.968 245.942 365.343 246.448 365.83C246.955 366.318 247.353 366.906 247.617 367.558C247.88 368.209 248.004 368.909 247.979 369.612C247.955 370.314 247.782 371.004 247.474 371.635C246.253 374.366 242.925 375.941 240.176 376.575C237.427 377.208 231.592 376.155 230.064 375.857C229.728 376.686 229.411 377.516 229.076 378.345C227.473 382.316 225.86 386.267 224.416 390.191C223.903 391.57 223.484 392.987 222.981 394.338C223.456 393.509 223.857 392.81 223.913 392.717C226.14 389.66 232.245 385.084 236.271 386.407C236.932 386.647 237.536 387.023 238.042 387.512C238.549 388 238.947 388.589 239.21 389.242C239.474 389.894 239.598 390.594 239.573 391.297C239.548 392 239.376 392.69 239.067 393.323C237.846 396.053 234.519 397.628 231.769 398.253C229.02 398.877 223.745 397.945 221.927 397.591C221.499 399.026 221.061 400.452 220.706 401.86C220.492 402.792 220.213 403.724 220.045 404.712C219.877 405.7 219.672 406.632 219.486 407.582C219.206 409.446 218.898 411.31 218.665 413.118C218.488 414.367 218.349 415.56 218.209 416.762C218.703 415.383 219.737 412.699 219.849 412.484C221.493 409.592 223.852 407.169 226.699 405.448C226.866 405.118 227.066 404.806 227.296 404.516C227.708 403.94 228.238 403.457 228.851 403.101C229.463 402.745 230.145 402.523 230.85 402.45C231.554 402.377 232.267 402.454 232.939 402.677C233.612 402.9 234.23 403.263 234.752 403.742C237.818 406.669 236.616 414.209 234.975 417.61C234.882 417.816 233.587 419.875 232.739 421.161C233.354 420.481 233.932 419.81 234.603 419.12C235.851 417.741 237.128 416.399 238.508 414.954L240.605 412.913C241.285 412.214 242.096 411.562 242.841 410.881C244.622 409.325 246.495 407.843 248.433 406.389C247.231 405.299 243.009 401.347 241.909 398.747C240.81 396.147 240.045 392.558 241.509 389.949C241.833 389.326 242.285 388.778 242.835 388.341C243.385 387.904 244.021 387.587 244.701 387.411C245.381 387.236 246.09 387.205 246.783 387.321C247.476 387.437 248.137 387.697 248.722 388.085C252.189 390.517 252.161 398.15 251.043 401.766C250.978 401.99 249.887 404.488 249.263 405.849C250.419 404.991 251.574 404.124 252.777 403.286C256.253 400.872 259.841 398.532 263.42 396.193L266.682 394.022C266.244 393.63 261.09 389.045 259.85 386.137C258.713 383.555 257.986 379.939 259.45 377.329C259.773 376.705 260.225 376.157 260.774 375.719C261.324 375.281 261.96 374.964 262.641 374.788C263.321 374.612 264.031 374.581 264.724 374.698C265.417 374.815 266.078 375.076 266.663 375.465C270.13 377.889 270.102 385.531 268.984 389.138C268.9 389.408 267.325 393.015 266.878 393.91C269.273 392.307 271.64 390.694 273.905 389.007C276.986 386.748 279.916 384.288 282.675 381.645C282.47 381.468 277.083 376.705 275.797 373.723C274.66 371.141 273.933 367.525 275.387 364.925C275.711 364.301 276.162 363.752 276.712 363.314C277.261 362.876 277.897 362.559 278.578 362.383C279.258 362.207 279.968 362.176 280.661 362.293C281.355 362.41 282.015 362.671 282.601 363.061C286.077 365.493 286.04 373.126 284.931 376.733C284.856 376.975 283.654 379.715 283.067 381.011C283.136 381.052 283.201 381.099 283.262 381.151C285.97 378.42 288.425 375.451 290.597 372.278C291.818 370.544 292.89 368.83 293.887 367.133C292.797 366.341 287.857 362.706 286.385 360.153C284.912 357.599 283.849 354.197 285.014 351.448C285.265 350.79 285.651 350.192 286.147 349.694C286.644 349.195 287.241 348.807 287.898 348.554C288.555 348.302 289.258 348.191 289.96 348.229C290.663 348.266 291.35 348.452 291.977 348.773C295.705 350.805 296.497 358.401 295.788 362.11C295.788 362.315 295.127 364.328 294.661 365.782C295.099 365.008 295.593 364.216 295.975 363.471C297.513 360.675 298.771 358 299.824 355.623C300.42 354.272 300.942 353.042 301.408 351.895C300.737 350.572 298.118 345.175 297.988 342.286C297.857 339.397 298.482 335.837 300.784 333.898C301.309 333.43 301.928 333.078 302.598 332.865C303.269 332.652 303.977 332.583 304.676 332.662C305.375 332.741 306.05 332.967 306.656 333.325C307.262 333.682 307.786 334.163 308.193 334.737C310.551 338.251 307.774 345.362 305.397 348.326C305.202 348.587 301.576 352.231 301.539 352.165L301.492 352.082C301.064 353.209 300.56 354.412 300.048 355.716C299.022 358.112 297.839 360.814 296.32 363.666C294.76 366.759 293.017 369.756 291.1 372.641C288.977 375.89 286.566 378.94 283.896 381.756C283.867 381.79 283.836 381.821 283.803 381.85C284.884 381.253 287.988 379.697 288.239 379.604C291.781 378.289 299.423 377.833 302.023 381.16C302.443 381.725 302.739 382.372 302.892 383.059C303.045 383.746 303.051 384.457 302.911 385.147C302.77 385.836 302.485 386.488 302.076 387.06C301.666 387.633 301.14 388.112 300.532 388.467C298.016 390.07 294.372 389.539 291.725 388.551C288.742 387.432 283.859 382.558 283.467 382.167C280.685 384.966 277.718 387.576 274.585 389.977C272.721 391.393 270.857 392.773 268.993 394.105C269.925 393.621 270.811 393.173 270.941 393.173C274.483 391.859 282.125 391.403 284.726 394.73C285.145 395.295 285.441 395.942 285.594 396.629C285.747 397.316 285.753 398.027 285.613 398.717C285.472 399.406 285.187 400.058 284.778 400.63C284.368 401.202 283.842 401.682 283.234 402.037C280.718 403.64 277.074 403.118 274.427 402.13C271.78 401.142 267.493 397.041 266.384 395.951C265.657 396.454 264.93 396.976 264.194 397.479C260.671 399.902 257.138 402.307 253.746 404.777C252.553 405.644 251.416 406.548 250.26 407.442C251.118 407.004 251.835 406.65 251.947 406.613C255.489 405.299 263.131 404.842 265.731 408.169C266.152 408.734 266.448 409.38 266.602 410.067C266.755 410.753 266.762 411.464 266.623 412.154C266.483 412.843 266.199 413.496 265.79 414.068C265.381 414.64 264.856 415.12 264.25 415.476C261.724 417.079 258.08 416.557 255.433 415.56C252.786 414.563 248.909 410.9 247.595 409.586C246.448 410.518 245.293 411.45 244.23 412.466C243.513 413.146 242.776 413.752 242.096 414.479L240.045 416.567C238.797 417.946 237.501 419.363 236.317 420.723C235.488 421.655 234.705 422.587 233.922 423.519C235.106 422.643 237.445 420.975 237.65 420.854C240.959 418.99 248.415 417.415 251.509 420.304C252.01 420.799 252.402 421.393 252.658 422.049C252.914 422.705 253.029 423.408 252.996 424.111C252.962 424.814 252.781 425.503 252.464 426.132C252.147 426.76 251.701 427.315 251.155 427.76C248.76 429.652 245.116 429.652 242.32 429.111C239.281 428.478 233.932 424.573 233.242 424.088C231.946 425.616 230.698 427.117 229.551 428.561Z" fill="#AB0000"/>
<path d="M45.0433 378.14C48.3612 377.665 54.6616 373.555 54.6616 373.555C54.6616 373.555 50.7006 370.227 50.421 370.05C47.2056 367.991 39.7775 365.894 36.441 368.615C35.9063 369.084 35.4763 369.66 35.1788 370.306C34.8813 370.952 34.723 371.653 34.7143 372.364C34.7055 373.075 34.8464 373.78 35.1278 374.433C35.4092 375.086 35.8249 375.673 36.3478 376.155C38.51 378.28 42.2194 378.55 45.0433 378.14Z" fill="#AB0000"/>
<path d="M106.816 346.35C106.891 346.35 105.344 341.382 105.213 341.084C103.666 337.589 98.6239 331.764 94.3647 332.193C93.6596 332.286 92.9821 332.527 92.3763 332.9C91.7706 333.273 91.2503 333.769 90.8493 334.357C90.4483 334.944 90.1756 335.609 90.049 336.309C89.9225 337.009 89.9449 337.728 90.1147 338.419C90.7299 341.373 93.6843 343.647 96.2659 344.868C99.2949 346.294 106.807 346.35 106.816 346.35Z" fill="#AB0000"/>
<path d="M112.995 429.204C114.459 431.068 115.791 432.737 116.984 434.312H120.004C118.485 432.364 116.714 430.164 114.72 427.788C113.555 426.399 112.287 424.936 110.992 423.454C112.194 421.985 113.311 420.447 114.338 418.85C117.022 419.782 122.52 419.512 123.238 419.474C123.443 421.245 123.62 422.969 123.769 424.6C124.114 428.282 124.329 431.553 124.468 434.312H126.91C126.714 431.516 126.426 428.151 125.978 424.377C125.773 422.578 125.522 420.649 125.251 418.691C125.941 418.477 131.58 416.716 133.639 414.889C135.503 413.221 137.451 410.583 137.246 407.936C137.218 407.312 137.059 406.701 136.779 406.142C136.5 405.584 136.106 405.09 135.624 404.693C135.142 404.296 134.581 404.004 133.98 403.837C133.378 403.67 132.747 403.632 132.129 403.724C128.401 404.395 125.605 410.564 125.158 413.892C125.158 414.087 125.083 416.25 125.083 417.62C124.962 416.818 124.86 416.035 124.729 415.206C124.478 413.575 124.179 411.953 123.872 410.21C123.685 409.371 123.508 408.523 123.322 407.666C123.136 406.808 122.875 405.932 122.651 405.056C122.101 403.043 121.439 401.021 120.722 399.008C122.157 398.784 127.246 397.926 129.333 396.556C131.421 395.186 133.751 392.884 133.993 390.237C134.06 389.616 133.995 388.987 133.803 388.392C133.611 387.797 133.296 387.248 132.879 386.783C132.462 386.317 131.951 385.944 131.38 385.688C130.81 385.433 130.192 385.3 129.566 385.298C125.838 385.4 122.11 391.076 121.178 394.292C121.122 394.497 120.703 396.883 120.498 398.206C120.06 396.994 119.631 395.783 119.147 394.571C117.758 391.086 116.239 387.591 114.748 384.105C114.282 383.033 113.816 381.961 113.387 380.899C113.899 380.824 119.911 379.967 122.315 378.401C124.422 377.04 126.733 374.729 126.975 372.073C127.044 371.452 126.98 370.824 126.789 370.229C126.598 369.634 126.284 369.087 125.867 368.621C125.45 368.156 124.94 367.784 124.37 367.529C123.8 367.275 123.182 367.143 122.558 367.142C118.83 367.245 115.102 372.912 114.17 376.136C114.095 376.379 113.499 379.818 113.396 380.703C112.399 378.345 111.439 375.987 110.6 373.629C109.432 370.445 108.47 367.189 107.72 363.88C107.953 363.88 114.244 362.948 116.695 361.373C118.802 360.013 121.113 357.701 121.355 355.045C121.424 354.424 121.36 353.796 121.169 353.201C120.978 352.607 120.664 352.059 120.247 351.594C119.83 351.129 119.32 350.757 118.75 350.502C118.18 350.247 117.562 350.115 116.938 350.115C113.21 350.217 109.482 355.884 108.55 359.109C108.485 359.323 108.028 361.905 107.841 363.191H107.627C106.867 359.852 106.405 356.453 106.248 353.032C106.192 351.168 106.248 349.304 106.332 347.598C107.525 347.598 112.977 347.282 115.316 346.107C117.655 344.933 120.116 342.938 120.601 340.329C120.735 339.719 120.74 339.088 120.615 338.477C120.49 337.865 120.238 337.287 119.875 336.779C119.512 336.271 119.047 335.845 118.508 335.528C117.97 335.212 117.372 335.012 116.751 334.942C113.023 334.625 108.68 339.854 107.431 342.957C107.366 343.125 106.835 344.914 106.499 346.228C106.555 345.436 106.593 344.625 106.658 343.87C106.891 341.074 107.282 338.456 107.655 336.172C107.869 334.877 108.093 333.702 108.317 332.612C109.463 331.96 114.049 329.257 115.558 327.178C117.068 325.1 118.354 322.155 117.581 319.61C117.42 319.007 117.134 318.444 116.741 317.959C116.348 317.473 115.858 317.075 115.302 316.791C114.745 316.508 114.135 316.344 113.512 316.311C112.888 316.278 112.264 316.376 111.681 316.6C108.205 318.054 106.779 324.681 107.021 328.026C107.021 328.315 107.953 332.798 107.953 332.77L108.112 332.724C107.879 333.768 107.636 334.895 107.403 336.126C106.984 338.409 106.537 340.991 106.238 343.824C105.881 346.883 105.704 349.961 105.707 353.041C105.693 356.478 105.983 359.908 106.574 363.293V363.414C106.061 362.482 104.533 359.761 104.393 359.565C102.408 356.863 96.9371 352.79 93.4141 353.973C92.8272 354.187 92.2918 354.522 91.8426 354.956C91.3934 355.389 91.0404 355.913 90.8067 356.492C90.5729 357.071 90.4635 357.693 90.4856 358.317C90.5077 358.942 90.6608 359.554 90.935 360.115C92.0161 362.548 94.9706 363.936 97.459 364.505C100.255 365.139 106.229 363.918 106.704 363.815C107.408 367.257 108.342 370.648 109.5 373.965C110.153 375.903 110.87 377.833 111.616 379.752C111.141 378.932 110.684 378.187 110.684 378.093C108.699 375.381 103.275 371.309 99.7051 372.501C99.1182 372.715 98.5828 373.05 98.1336 373.484C97.6844 373.918 97.3314 374.441 97.0977 375.02C96.8639 375.599 96.7545 376.221 96.7766 376.846C96.7987 377.47 96.9518 378.082 97.226 378.643C98.3071 381.067 101.262 382.465 103.75 383.024C106.238 383.583 111.374 382.66 112.734 382.39C113.023 383.126 113.312 383.872 113.611 384.599C115.037 388.131 116.472 391.635 117.767 395.13C118.233 396.351 118.634 397.582 119.053 398.812C118.634 398.076 118.271 397.46 118.205 397.367C116.22 394.655 110.749 390.582 107.226 391.775C106.639 391.989 106.104 392.324 105.655 392.757C105.206 393.191 104.853 393.715 104.619 394.294C104.385 394.873 104.276 395.495 104.298 396.119C104.32 396.743 104.473 397.356 104.747 397.917C105.828 400.34 108.792 401.738 111.271 402.307C113.75 402.875 118.392 402.027 120.013 401.72C120.396 402.987 120.787 404.255 121.094 405.504C121.29 406.352 121.542 407.163 121.691 408.039C121.84 408.915 122.017 409.744 122.185 410.592C122.437 412.223 122.707 413.901 122.912 415.504C123.07 416.613 123.192 417.676 123.322 418.747C122.875 417.517 121.961 415.131 121.859 414.945C120.404 412.37 118.307 410.216 115.773 408.691C115.628 408.394 115.453 408.113 115.251 407.852C114.883 407.347 114.413 406.925 113.872 406.614C113.33 406.303 112.729 406.108 112.108 406.044C111.486 405.98 110.859 406.047 110.265 406.242C109.671 406.436 109.125 406.753 108.662 407.172C105.94 409.772 106.993 416.492 108.457 419.493C108.55 419.67 109.696 421.497 110.451 422.643L108.82 420.779C107.711 419.558 106.574 418.365 105.344 417.051L103.48 415.243C102.874 414.619 102.156 414.041 101.485 413.435C99.9101 412.056 98.2419 410.741 96.5363 409.446C97.6081 408.514 101.355 404.963 102.371 402.661C103.387 400.359 104.03 397.153 102.734 394.832C102.447 394.278 102.046 393.79 101.558 393.4C101.07 393.01 100.505 392.726 99.9009 392.568C99.2965 392.41 98.6657 392.381 98.0492 392.482C97.4327 392.583 96.8443 392.812 96.3219 393.155C93.237 395.317 93.265 402.102 94.2529 405.271C94.3181 405.476 95.2874 407.694 95.8466 408.905C94.8121 408.141 93.7869 407.368 92.7151 406.622C89.6302 404.478 86.4427 402.409 83.2646 400.322C82.3326 399.688 81.3354 399.036 80.3661 398.392C80.7482 398.048 85.3057 393.975 86.4334 391.393C87.44 389.091 88.0924 385.885 86.7969 383.564C86.5093 383.01 86.1086 382.522 85.6205 382.132C85.1325 381.742 84.5681 381.459 83.9637 381.3C83.3593 381.142 82.7285 381.113 82.112 381.214C81.4955 381.315 80.9071 381.544 80.3848 381.887C77.3092 384.049 77.3278 390.834 78.325 394.003C78.3996 394.245 79.7976 397.442 80.189 398.234C78.0641 396.817 75.9671 395.382 73.9446 393.882C71.2115 391.878 68.6119 389.699 66.1624 387.358C66.3395 387.199 71.1114 382.968 72.267 380.312C73.2829 378.019 73.926 374.813 72.6305 372.492C72.344 371.937 71.9438 371.447 71.4559 371.057C70.968 370.666 70.4032 370.382 69.7984 370.224C69.1937 370.066 68.5623 370.036 67.9455 370.138C67.3287 370.24 66.7402 370.47 66.2184 370.815C63.1428 372.977 63.1614 379.762 64.1586 382.931C64.2239 383.145 65.2864 385.577 65.8176 386.724C65.7608 386.767 65.7017 386.808 65.6405 386.845C63.2351 384.42 61.0517 381.784 59.1165 378.97C58.0354 377.432 57.0848 375.903 56.19 374.393C57.122 373.694 61.549 370.46 62.8631 368.196C64.1773 365.931 65.1093 362.902 64.0748 360.46C63.8528 359.876 63.5101 359.346 63.069 358.903C62.6278 358.461 62.0983 358.117 61.515 357.894C60.9317 357.67 60.3077 357.572 59.684 357.607C59.0603 357.641 58.4509 357.807 57.8956 358.093C54.5963 359.892 53.8693 366.639 54.5031 369.938C54.5031 370.116 55.0903 371.905 55.5097 373.2C55.1182 372.511 54.6988 371.812 54.3353 371.141C52.9746 368.652 51.8749 366.285 50.9242 364.179C50.3837 362.976 49.927 361.877 49.5076 360.842C50.1041 359.668 52.4341 354.877 52.5552 352.305C52.6764 349.733 52.1079 346.583 50.0668 344.849C49.6001 344.434 49.051 344.121 48.4555 343.932C47.8599 343.743 47.2312 343.682 46.6103 343.752C45.9894 343.823 45.3904 344.023 44.8522 344.341C44.314 344.658 43.8488 345.085 43.4869 345.595C41.3899 348.717 43.8597 355.036 45.938 357.711C46.1244 357.934 49.3398 361.178 49.3771 361.112V361.047C49.7592 362.044 50.1879 363.116 50.6726 364.272C51.6046 366.406 52.6298 368.801 53.9439 371.336C55.3411 374.084 56.8971 376.748 58.6039 379.314C60.4878 382.198 62.6277 384.905 64.9974 387.404L65.0906 387.497C64.1586 386.966 61.3626 385.577 61.1483 385.494C57.9981 384.319 51.2318 383.919 48.9018 386.873C48.5241 387.375 48.2569 387.952 48.118 388.565C47.979 389.178 47.9713 389.814 48.0954 390.43C48.2195 391.046 48.4727 391.629 48.8381 392.14C49.2036 392.652 49.6731 393.08 50.2159 393.397C52.462 394.823 55.6961 394.329 58.0447 393.471C60.7009 392.484 65.0347 388.15 65.3796 387.796C67.8528 390.287 70.4934 392.607 73.2829 394.739C74.8953 395.997 76.5542 397.209 78.2411 398.402C77.393 397.973 76.6288 397.591 76.5169 397.554C73.3668 396.389 66.5912 395.979 64.2705 398.942C63.8913 399.444 63.6229 400.021 63.4831 400.634C63.3433 401.247 63.3353 401.883 63.4595 402.5C63.5837 403.117 63.8373 403.7 64.2037 404.211C64.57 404.723 65.0407 405.15 65.5846 405.466C67.8307 406.892 71.0647 406.398 73.4134 405.541C75.762 404.683 79.5739 401.03 80.5618 400.061L82.5097 401.421C85.6412 403.574 88.7728 405.709 91.8297 407.899C92.8922 408.672 93.9081 409.474 94.9333 410.266C94.1784 409.884 93.5353 409.567 93.4328 409.53C90.2826 408.365 83.5163 407.955 81.1863 410.919C80.8075 411.421 80.5397 411.998 80.4006 412.612C80.2615 413.226 80.2542 413.862 80.3793 414.478C80.5044 415.095 80.759 415.678 81.1263 416.189C81.4935 416.7 81.9651 417.127 82.5097 417.443C84.7465 418.868 87.9899 418.375 90.3385 417.517C92.6871 416.66 96.1262 413.36 97.3006 412.205C98.3258 413.053 99.3416 413.901 100.292 414.768C100.935 415.374 101.588 415.914 102.156 416.557L104.02 418.421C105.129 419.642 106.285 420.9 107.338 422.149C108.084 422.988 108.773 423.808 109.463 424.628C108.419 423.845 106.332 422.364 106.145 422.261C103.209 420.63 96.5829 419.204 93.8335 421.776C93.3895 422.216 93.0429 422.744 92.8162 423.326C92.5896 423.908 92.4878 424.532 92.5177 425.156C92.5476 425.78 92.7084 426.39 92.9897 426.948C93.271 427.506 93.6664 427.998 94.1504 428.394C96.1542 430.136 99.4255 430.164 101.877 429.652C104.579 429.083 109.333 425.625 109.948 425.187C110.908 426.585 111.98 427.918 112.995 429.204Z" fill="#AB0000"/>
<path d="M325.697 46.6372H153.351C149.403 46.6372 146.203 49.8377 146.203 53.7856V392.036C146.203 395.984 149.403 399.185 153.351 399.185H325.697C329.645 399.185 332.845 395.984 332.845 392.036V53.7856C332.845 49.8377 329.645 46.6372 325.697 46.6372Z" fill="#263238" stroke="#263238" stroke-linecap="round" stroke-linejoin="round"/>
<path d="M324.56 85.3433H154.507V360.47H324.56V85.3433Z" fill="white" stroke="#263238" stroke-linecap="round" stroke-linejoin="round"/>
<path d="M258.015 66.088H221.042C220.375 66.088 219.735 65.8229 219.263 65.351C218.791 64.8791 218.526 64.239 218.526 63.5716C218.525 63.2404 218.589 62.9122 218.715 62.6058C218.841 62.2994 219.026 62.0209 219.26 61.7862C219.493 61.5516 219.771 61.3654 220.077 61.2383C220.383 61.1113 220.711 61.0459 221.042 61.0459H258.015C258.346 61.0459 258.674 61.1113 258.98 61.2383C259.286 61.3654 259.564 61.5516 259.797 61.7862C260.031 62.0209 260.216 62.2994 260.342 62.6058C260.468 62.9122 260.532 63.2404 260.531 63.5716C260.531 64.239 260.266 64.8791 259.794 65.351C259.322 65.8229 258.682 66.088 258.015 66.088Z" fill="white"/>
<path d="M249.608 376.006C249.608 374.012 249.016 372.062 247.908 370.404C246.8 368.745 245.225 367.453 243.383 366.689C241.54 365.926 239.513 365.727 237.556 366.116C235.6 366.505 233.803 367.465 232.393 368.875C230.983 370.286 230.022 372.083 229.633 374.039C229.244 375.995 229.444 378.023 230.207 379.865C230.97 381.708 232.263 383.283 233.921 384.391C235.58 385.499 237.529 386.09 239.524 386.09C240.848 386.092 242.16 385.832 243.384 385.325C244.608 384.819 245.72 384.076 246.657 383.139C247.594 382.203 248.336 381.091 248.843 379.867C249.349 378.643 249.609 377.331 249.608 376.006Z" fill="white" stroke="#263238" stroke-width="0.704333" stroke-linecap="round" stroke-linejoin="round"/>
<path d="M244.641 370.889H234.417V381.113H244.641V370.889Z" fill="#263238"/>
<path d="M337.179 256.142L336.079 264.53C336.079 264.53 331.531 295.686 334.681 311.791C337.831 327.896 343.777 344.346 344.132 348.195C344.486 352.044 342.379 367.096 344.831 379.352C347.282 391.608 351.83 415.756 351.83 415.756L347.981 424.862C347.981 424.862 339.928 430.109 338.884 431.861C338.731 432.057 338.626 432.286 338.578 432.53C338.53 432.774 338.541 433.026 338.609 433.265C338.677 433.504 338.801 433.723 338.971 433.905C339.14 434.087 339.35 434.227 339.583 434.312H364.747C365.519 432.425 365.878 430.394 365.801 428.357V403.854C365.801 401.403 367.199 359.752 368.597 352.399C369.995 345.045 371.393 289.386 371.393 289.386H372.8C372.8 289.386 379.454 344.691 381.188 350.646C382.921 356.602 390.294 382.148 392.372 387.405C394.45 392.661 396.929 410.854 398.327 415.411C399.666 419.534 400.719 423.744 401.478 428.012C401.836 430.168 402.423 432.28 403.23 434.312H422.196C422.196 434.312 422.55 431.162 421.143 429.065C419.735 426.968 410.648 417.881 409.241 411.208C407.834 404.535 411.347 373.732 411.012 362.902C410.676 352.072 407.508 350.646 407.508 341.196C407.508 331.745 411.012 303.04 411.012 289.386C411.012 275.732 409.148 263.15 405.727 255.965L400.862 251.23H340.627L337.179 256.142Z" fill="#D9D9D9" stroke="#263238" stroke-linecap="round" stroke-linejoin="round"/>
<path d="M412.084 417.462V417.508C412.084 417.508 407.182 414.358 405.429 416.809C403.677 419.26 403.677 420.658 403.677 420.658H399.949C400.64 423.075 401.185 425.53 401.58 428.012C401.939 430.168 402.526 432.28 403.332 434.312H422.196C422.196 434.312 422.55 431.162 421.143 429.065C420.155 427.574 415.337 422.597 412.084 417.462Z" fill="#AB0000" stroke="#263238" stroke-linecap="round" stroke-linejoin="round"/>
<path d="M403.295 434.312H422.196C422.265 433.502 422.243 432.686 422.131 431.88H402.447C402.875 433.278 403.295 434.312 403.295 434.312Z" fill="white" stroke="#263238" stroke-linecap="round" stroke-linejoin="round"/>
<path d="M365.838 428.357V422.411H359.183C359.183 422.411 359.537 419.615 356.387 417.508C353.237 415.402 350.078 420.304 350.078 420.304H349.91L347.981 424.852C347.981 424.852 339.928 430.1 338.884 431.852C338.731 432.047 338.626 432.277 338.578 432.52C338.53 432.764 338.541 433.016 338.609 433.255C338.677 433.494 338.801 433.714 338.971 433.896C339.14 434.078 339.35 434.218 339.583 434.303H364.747C365.53 432.421 365.902 430.394 365.838 428.357Z" fill="#AB0000" stroke="#263238" stroke-linecap="round" stroke-linejoin="round"/>
<path d="M338.866 431.88C338.717 432.077 338.616 432.305 338.572 432.548C338.527 432.791 338.54 433.041 338.61 433.277C338.68 433.514 338.805 433.731 338.974 433.911C339.143 434.091 339.352 434.228 339.584 434.312H364.748C365.089 433.535 365.333 432.718 365.475 431.88H338.866Z" fill="white" stroke="#263238" stroke-linecap="round" stroke-linejoin="round"/>
<path d="M409.148 398.3C409.735 386.379 411.226 370.172 411.012 362.884C410.667 352.026 407.508 350.628 407.508 341.177C407.508 331.727 411.012 303.04 411.012 289.386C411.012 275.732 409.148 263.15 405.727 255.965L400.862 251.23H340.627L337.179 256.142L336.079 264.53C336.079 264.53 331.531 295.686 334.681 311.791C337.831 327.896 343.777 344.346 344.132 348.195C344.486 352.044 342.379 367.096 344.831 379.352C345.912 384.73 347.384 392.4 348.708 399.315C354.348 400.595 360.134 401.118 365.912 400.872C366.211 390.741 367.422 358.755 368.634 352.408C370.032 345.054 371.43 289.395 371.43 289.395H372.8C372.8 289.395 379.454 344.7 381.188 350.656C382.921 356.611 390.294 382.157 392.372 387.414C393.304 389.651 394.236 394.236 395.168 399.12C399.828 399.943 404.616 399.662 409.148 398.3Z" fill="white" stroke="#263238" stroke-linecap="round" stroke-linejoin="round"/>
<path d="M377.041 286.236L395.941 271.184" stroke="#263238" stroke-linecap="round" stroke-linejoin="round"/>
<path d="M349.379 272.582L359.184 280.634" stroke="#263238" stroke-linecap="round" stroke-linejoin="round"/>
<path d="M390.508 102.949C390.508 102.949 382.465 98.1957 382.651 100.759C382.838 103.322 386.305 105.139 386.305 105.139C386.305 105.139 374.785 103.499 372.959 104.207C371.132 104.915 374.245 105.857 374.245 105.857C374.245 105.857 359.985 116.817 355.055 124.31C350.125 131.804 345.735 142.773 350.852 151.18C355.968 159.587 363.462 166.166 376.072 169.82C388.682 173.473 401.105 169.633 409.512 166.166C417.918 162.699 426.288 152.82 424.862 140.397C423.436 127.973 412.401 115.009 404.171 106.248C395.942 97.4873 390.834 98.7921 390.834 100.032C390.812 101.012 390.703 101.988 390.508 102.949Z" fill="#263238" stroke="#263238" stroke-linecap="round" stroke-linejoin="round"/>
<path d="M370.787 154.861L368.923 168.925C368.923 168.925 355.577 173.306 350.646 175.319C345.716 177.332 343.516 179.886 342.603 182.076C341.69 184.266 328.623 214.696 328.064 217.585C327.505 220.474 328.427 221.788 332.444 223.615C336.461 225.442 347.636 218.685 347.636 218.685L349.099 223.801C349.099 223.801 341.783 236.225 340.506 240.242C339.229 244.259 337.216 256.142 337.216 256.142C337.216 256.142 351.103 263.085 373.033 262.545C394.963 262.004 405.746 255.965 405.746 255.965C405.746 255.965 403.369 244.082 400.816 237.138C398.262 230.195 396.063 227.455 396.063 224.715C396.063 221.975 404.106 207.715 404.106 207.715L421.087 215.721C421.087 215.721 417.079 201.871 415.979 192.551C414.88 183.231 412.988 181.712 409.325 178.422C405.662 175.132 389.595 170.388 389.045 170.034C388.495 169.68 389.772 154.321 389.772 154.321C389.772 154.321 375.903 157.974 370.787 154.861Z" fill="#D9D9D9" stroke="#263238" stroke-linecap="round" stroke-linejoin="round"/>
<path d="M381.393 164.489C383.947 163.557 386.985 161.143 389.371 158.981C389.567 156.362 389.735 154.321 389.735 154.321C389.735 154.321 375.904 157.993 370.787 154.88L369.529 164.2C372.362 166.735 376.985 166.148 381.393 164.489Z" fill="#263238" stroke="#263238" stroke-linecap="round" stroke-linejoin="round"/>
<path d="M400.76 237.138C398.197 230.195 396.007 227.455 396.007 224.715C396.007 221.975 404.05 207.715 404.05 207.715L421.031 215.721C421.031 215.721 417.023 201.872 415.924 192.552C415.337 187.509 414.498 184.76 413.286 182.766C387.246 186.074 358.298 180.137 346.751 177.332C344.917 178.465 343.461 180.116 342.566 182.076C341.634 184.275 328.586 214.696 328.027 217.585C327.468 220.474 328.39 221.788 332.407 223.615C336.424 225.442 347.636 218.685 347.636 218.685L349.099 223.802C349.099 223.802 341.783 236.225 340.506 240.242C339.229 244.259 337.216 256.142 337.216 256.142C337.216 256.142 351.103 263.085 373.033 262.545C394.963 262.004 405.746 255.965 405.746 255.965C405.746 255.965 403.332 244.082 400.76 237.138Z" fill="#AB0000" stroke="#263238" stroke-linecap="round" stroke-linejoin="round"/>
<path d="M349.947 213.652C349.947 213.652 346.313 206.037 347.301 202.067C348.289 198.097 348.96 197.1 348.96 197.1" stroke="#263238" stroke-linecap="round" stroke-linejoin="round"/>
<path d="M415.942 192.552C415.355 187.509 414.516 184.76 413.305 182.766C387.265 186.074 358.317 180.137 346.769 177.332C344.936 178.465 343.48 180.116 342.585 182.076C342.268 182.849 340.432 187.127 338.176 192.458C348.428 195.254 387.693 204.975 417.275 200.418C416.716 197.706 416.231 194.975 415.942 192.552Z" fill="#AB0000" stroke="#263238" stroke-linecap="round" stroke-linejoin="round"/>
<path d="M374.357 120.88L397.657 135.895L397.014 141.962C397.014 141.962 401.17 137.815 401.813 142.288C402.456 146.762 400.881 148.999 397.974 150.276C395.066 151.552 393.5 151.208 393.5 151.208C393.5 151.208 386.473 158.869 381.384 160.789C376.295 162.709 370.852 163.212 368.336 159.055C365.82 154.898 362.241 147.368 363.201 142.894C364.161 138.421 372.8 120.88 372.8 120.88H374.357Z" fill="#D9D9D9" stroke="#263238" stroke-linecap="round" stroke-linejoin="round"/>
<path d="M376.649 135.075C376.645 136.204 376.257 137.298 375.549 138.178C374.459 139.278 371.896 140.741 371.896 141.832C371.896 142.922 374.273 145.122 376.463 144.945" stroke="#263238" stroke-linecap="round" stroke-linejoin="round"/>
<path d="M372.623 147.321C373.708 148.061 374.998 148.441 376.311 148.408C377.624 148.374 378.893 147.929 379.939 147.135" stroke="#263238" stroke-linecap="round" stroke-linejoin="round"/>
<path d="M381.402 137.815C381.402 137.815 385.419 136.352 387.609 139.455" stroke="#263238" stroke-linecap="round" stroke-linejoin="round"/>
<path d="M368.97 135.988C368.97 135.988 372.26 134.525 373.909 136.352" stroke="#263238" stroke-linecap="round" stroke-linejoin="round"/>
<path d="M370.982 129.772C371.584 129.035 372.397 128.5 373.311 128.238C374.226 127.977 375.199 128.001 376.099 128.309" stroke="#263238" stroke-linecap="round" stroke-linejoin="round"/>
<path d="M383.229 130.135C383.229 130.135 388.346 130.322 389.436 135.075" stroke="#263238" stroke-linecap="round" stroke-linejoin="round"/>
<path d="M336.452 211.564C336.452 211.564 330.786 213.754 328.996 217.231C327.207 220.707 327.533 228.741 334.653 230.754C341.774 232.767 394.413 222.161 394.413 222.161C395.703 224.13 397.106 226.022 398.616 227.827C399.903 229.104 403.193 231.667 403.37 232.758C403.547 233.848 403.92 240.801 405.383 241.146C406.846 241.49 406.315 237.856 406.315 237.856C406.315 237.856 408.691 234.389 408.691 232.739C408.691 231.089 409.055 225.796 408.691 224.519C408.328 223.242 399.735 215.749 397.908 215.199C396.081 214.649 349.295 213.335 344.915 212.636C340.534 211.937 337.906 211.368 336.452 211.564Z" fill="#D9D9D9" stroke="#263238" stroke-linecap="round" stroke-linejoin="round"/>
<path d="M383.019 161.27L388.615 164.99C389.605 165.648 390.942 165.379 391.6 164.389L402.883 147.413C403.541 146.423 403.272 145.087 402.281 144.429L396.685 140.709C395.695 140.051 394.358 140.32 393.7 141.31L382.418 158.286C381.759 159.276 382.029 160.612 383.019 161.27Z" fill="#AB0000" stroke="#263238" stroke-miterlimit="10"/>
<path d="M399.828 161.563C399.828 161.563 400.984 158.599 402.13 156.465C403.277 154.33 403.286 153.333 402.466 153.333C401.589 153.491 400.778 153.903 400.134 154.518C399.489 155.132 399.04 155.923 398.84 156.791C398.442 158.573 398.332 160.407 398.514 162.224L399.828 161.563Z" fill="#D9D9D9" stroke="#263238" stroke-miterlimit="10"/>
<path d="M389.94 172.923C389.94 172.923 399.325 163.538 399.651 162.718C399.977 161.898 399.651 151.208 399.511 148.188C399.514 147.963 399.435 147.745 399.289 147.574C399.144 147.403 398.941 147.29 398.719 147.256C398.587 147.227 398.45 147.228 398.318 147.258C398.186 147.288 398.062 147.346 397.954 147.428C397.847 147.511 397.759 147.615 397.696 147.735C397.634 147.855 397.598 147.988 397.591 148.123L396.855 156.781L394.702 145.877C394.666 145.656 394.553 145.456 394.382 145.312C394.211 145.168 393.994 145.091 393.77 145.094C393.64 145.093 393.512 145.12 393.393 145.172C393.274 145.224 393.167 145.3 393.08 145.396C392.992 145.491 392.925 145.604 392.884 145.727C392.842 145.85 392.827 145.98 392.838 146.11L393.444 158.226L390.741 147.853C390.708 147.724 390.649 147.603 390.568 147.497C390.488 147.39 390.387 147.302 390.271 147.235C390.156 147.168 390.029 147.125 389.897 147.108C389.764 147.091 389.63 147.1 389.502 147.135C389.27 147.198 389.069 147.341 388.934 147.54C388.799 147.738 388.739 147.978 388.765 148.216L389.986 159.4L387.684 161.376V157.424L384.888 152.764C384.787 152.596 384.626 152.473 384.438 152.417C384.25 152.362 384.048 152.379 383.872 152.466C383.691 152.555 383.552 152.71 383.484 152.9C383.416 153.09 383.425 153.299 383.509 153.482L385.373 157.573C385.373 157.573 381.747 172.392 381.58 172.886C381.412 173.38 382.241 176.018 382.735 177.006C383.229 177.993 405.29 224.743 406.604 226.551C407.918 228.359 416.809 231.164 420.761 226.877C424.713 222.59 423.398 218.321 421.255 213.381C419.111 208.442 389.94 172.923 389.94 172.923Z" fill="#D9D9D9" stroke="#263238" stroke-miterlimit="10"/>
<path d="M236.728 178.012C258.347 178.012 275.872 160.487 275.872 138.868C275.872 117.249 258.347 99.7241 236.728 99.7241C215.109 99.7241 197.584 117.249 197.584 138.868C197.584 160.487 215.109 178.012 236.728 178.012Z" fill="#AB0000"/>
<path d="M260.624 121.151H214.229L237.101 143.202L260.624 121.151Z" fill="#263238"/>
<path d="M246.393 138.318L262.544 152.597V123.183L246.393 138.318Z" fill="#263238"/>
<path d="M227.986 138.29L211.62 122.521V151.926L227.986 138.29Z" fill="#263238"/>
<path d="M244.342 140.238L237.073 147.051L230.008 140.248L212.98 154.433H260.401L244.342 140.238Z" fill="#263238"/>
<path d="M236.728 263.756C258.347 263.756 275.872 246.231 275.872 224.612C275.872 202.994 258.347 185.468 236.728 185.468C215.109 185.468 197.584 202.994 197.584 224.612C197.584 246.231 215.109 263.756 236.728 263.756Z" fill="#AB0000"/>
<path d="M231.499 212.263C231.61 212.479 231.765 212.669 231.954 212.822C232.143 212.974 232.362 213.085 232.596 213.147C232.831 213.21 233.076 213.222 233.316 213.184C233.555 213.146 233.784 213.057 233.988 212.925C235.265 212.226 236.541 211.527 237.716 210.716C238.136 210.316 238.483 209.846 238.741 209.327C238.508 208.777 238.387 208.395 238.2 208.06C237.697 207.128 237.157 206.196 236.625 205.264L231.229 195.944C231.122 195.672 230.953 195.429 230.735 195.235C230.517 195.041 230.257 194.901 229.975 194.825C229.693 194.75 229.397 194.742 229.112 194.802C228.826 194.862 228.558 194.988 228.331 195.17C227.175 195.823 226.028 196.475 224.901 197.165C224.683 197.269 224.489 197.419 224.333 197.604C224.177 197.789 224.062 198.005 223.996 198.237C223.93 198.47 223.914 198.714 223.95 198.953C223.985 199.193 224.071 199.422 224.202 199.625C226.625 203.857 229.057 208.069 231.499 212.263Z" fill="#263238"/>
<path d="M258.369 242.935C256.008 238.834 253.641 234.74 251.267 230.651C251.166 230.403 251.01 230.181 250.81 230.003C250.61 229.824 250.372 229.693 250.114 229.62C249.856 229.548 249.585 229.535 249.321 229.582C249.058 229.63 248.808 229.738 248.592 229.896C247.406 230.561 246.231 231.242 245.069 231.938C244.85 232.041 244.654 232.188 244.495 232.371C244.335 232.553 244.215 232.767 244.143 232.998C244.07 233.229 244.046 233.473 244.072 233.714C244.099 233.955 244.175 234.188 244.296 234.398L252.013 247.567C252.291 247.808 252.64 247.954 253.007 247.982C253.375 248.011 253.741 247.921 254.054 247.726C255.303 247.045 256.561 246.365 257.782 245.573C258.214 245.18 258.585 244.724 258.882 244.221C258.744 243.78 258.573 243.35 258.369 242.935Z" fill="#263238"/>
<path d="M242.395 235.246C241.634 235.518 240.824 235.622 240.02 235.552C239.215 235.481 238.436 235.237 237.735 234.836C236.942 234.431 236.198 233.937 235.517 233.363C232.07 230.329 229.662 226.29 228.629 221.816C227.949 219.02 227.762 216.224 229.906 213.987L221.965 200.38C221.341 200.781 220.735 201.163 220.167 201.564C219.017 202.277 218.085 203.292 217.472 204.498C216.859 205.704 216.589 207.055 216.69 208.404C216.832 211.173 217.235 213.922 217.892 216.615C220.524 225.945 225.208 234.568 231.602 241.854C233.976 244.753 236.81 247.244 239.99 249.226C241.557 250.203 243.383 250.681 245.227 250.596C247.072 250.511 248.847 249.867 250.317 248.751L242.395 235.246Z" fill="#263238"/>
<path d="M236.728 349.5C258.347 349.5 275.872 331.975 275.872 310.356C275.872 288.737 258.347 271.212 236.728 271.212C215.109 271.212 197.584 288.737 197.584 310.356C197.584 331.975 215.109 349.5 236.728 349.5Z" fill="#AB0000"/>
<path d="M230.959 317.691H222.263V322.099C222.262 323.472 222.782 324.795 223.718 325.8C224.653 326.805 225.936 327.417 227.305 327.514L230.959 317.691Z" fill="#263238"/>
<path d="M255.2 302.593H251.472V310.263C251.472 312.241 250.687 314.137 249.288 315.535C247.89 316.934 245.994 317.719 244.016 317.719H243.886L230.577 327.533H245.023L241.453 337.133L254.436 327.533H255.219C256.661 327.533 258.044 326.961 259.064 325.942C260.085 324.924 260.659 323.541 260.662 322.1V308.026C260.66 307.311 260.518 306.603 260.243 305.942C259.968 305.282 259.565 304.682 259.058 304.177C258.55 303.672 257.948 303.273 257.287 303.001C256.625 302.729 255.916 302.59 255.2 302.593Z" fill="#263238"/>
<path d="M244.007 290.784H216.503C215.062 290.784 213.68 291.357 212.661 292.376C211.642 293.395 211.07 294.777 211.07 296.218V310.291C211.07 311.733 211.642 313.116 212.661 314.136C213.679 315.157 215.061 315.731 216.503 315.734H233.829L230.26 325.268L243.252 315.706H244.035C245.477 315.703 246.86 315.129 247.881 314.109C248.901 313.089 249.475 311.706 249.478 310.263V296.19C249.468 294.748 248.886 293.369 247.86 292.355C246.835 291.342 245.449 290.777 244.007 290.784Z" fill="#263238"/>
<path d="M222.72 304.82C223.796 304.82 224.668 303.948 224.668 302.872C224.668 301.796 223.796 300.924 222.72 300.924C221.644 300.924 220.772 301.796 220.772 302.872C220.772 303.948 221.644 304.82 222.72 304.82Z" fill="#AB0000"/>
<path d="M232.599 302.9C232.599 303.285 232.485 303.662 232.271 303.982C232.057 304.303 231.753 304.552 231.397 304.7C231.041 304.847 230.649 304.886 230.271 304.81C229.894 304.735 229.547 304.55 229.274 304.277C229.002 304.005 228.816 303.658 228.741 303.28C228.666 302.902 228.704 302.511 228.852 302.155C228.999 301.799 229.249 301.494 229.569 301.28C229.89 301.066 230.266 300.952 230.651 300.952C231.167 300.955 231.661 301.161 232.026 301.525C232.391 301.89 232.597 302.384 232.599 302.9Z" fill="#AB0000"/>
<path d="M240.521 302.9C240.521 303.286 240.407 303.663 240.192 303.983C239.978 304.304 239.673 304.553 239.317 304.701C238.96 304.848 238.568 304.886 238.19 304.81C237.812 304.734 237.465 304.547 237.193 304.274C236.921 304.001 236.736 303.653 236.662 303.274C236.588 302.896 236.628 302.504 236.776 302.148C236.925 301.792 237.176 301.489 237.498 301.276C237.82 301.063 238.197 300.95 238.583 300.952C239.098 300.955 239.591 301.161 239.954 301.526C240.317 301.891 240.521 302.385 240.521 302.9Z" fill="#AB0000"/>
<path d="M142.755 196.288L143.463 195.356L155.01 179.624C155.01 179.624 156.576 170.239 157.359 167.89C158.142 165.542 159.708 160.593 160.23 158.766C160.752 156.939 161.273 154.852 162.317 155.634C163.361 156.417 163.361 159.549 162.839 161.115C162.379 162.544 162.29 164.068 162.578 165.542C162.839 166.324 176.661 154.591 177.956 155.634C179.252 156.678 177.444 161.637 174.834 165.02C172.224 168.403 161.534 180.668 161.534 180.668C161.534 180.668 149.279 213.521 145.625 218.74C141.972 223.959 141.198 221.611 137.545 218.74C133.891 215.87 129.157 209.355 129.157 209.355L142.755 196.288Z" fill="white" stroke="#263238" stroke-linecap="round" stroke-linejoin="round"/>
<path d="M161.795 174.386C161.795 174.386 163.1 169.726 164.405 168.645C165.71 167.564 170.659 164.479 170.659 164.479L174.051 154.041C174.051 154.041 175.095 153.258 174.834 155.607C174.573 157.955 174.051 163.174 173.268 165.514C172.485 167.853 169.093 172.038 169.093 172.038" fill="white"/>
<path d="M161.795 174.386C161.795 174.386 163.1 169.726 164.405 168.645C165.71 167.564 170.659 164.479 170.659 164.479L174.051 154.041C174.051 154.041 175.095 153.258 174.834 155.607C174.573 157.955 174.051 163.174 173.268 165.514C172.485 167.853 169.093 172.038 169.093 172.038" stroke="#263238" stroke-linecap="round" stroke-linejoin="round"/>
<path d="M123.984 156.39L144.06 195.767L128.682 211.415L124.245 196.55L123.984 156.39Z" fill="#AB0000" stroke="#263238" stroke-linecap="round" stroke-linejoin="round"/>
<path d="M126.836 205.245L128.681 211.415L144.059 195.767L141.291 190.342L126.836 205.245Z" fill="#263238" stroke="#263238" stroke-miterlimit="10"/>
<path d="M75.8464 415.672L73.9824 423.063C73.9824 423.063 63.0501 429.121 62.2113 429.959C61.3725 430.798 61.6987 434.331 61.6987 434.331H92.9952C93.1542 431.622 92.9283 428.905 92.3242 426.259C91.851 422.982 91.5616 419.681 91.4574 416.371L75.8464 415.672Z" fill="#263238" stroke="#263238" stroke-linecap="round" stroke-linejoin="round"/>
<path d="M61.7081 434.312H92.9953C93.0317 433.638 93.0317 432.963 92.9953 432.29H61.6522C61.6242 433.38 61.7081 434.312 61.7081 434.312Z" fill="white" stroke="#263238" stroke-linecap="round" stroke-linejoin="round"/>
<path d="M62.8915 429.652C65.0352 427.821 67.6642 426.652 70.4594 426.287C75.5015 425.439 80.0496 427.294 81.0562 428.3C82.0628 429.307 82.7338 432.168 82.7338 432.168L61.652 432.336C61.4951 432.087 61.4028 431.804 61.3836 431.51C61.3645 431.217 61.419 430.924 61.5422 430.657C61.6654 430.39 61.8534 430.158 62.0891 429.983C62.3248 429.807 62.6006 429.693 62.8915 429.652Z" fill="white" stroke="#263238" stroke-linecap="round" stroke-linejoin="round"/>
<path d="M89.7983 421.609C89.7983 423.426 89.1645 424.889 88.3723 424.889C87.5801 424.889 86.937 423.426 86.937 421.609C86.937 419.791 87.5801 418.328 88.3723 418.328C89.1645 418.328 89.7983 419.801 89.7983 421.609Z" fill="white" stroke="#263238" stroke-linecap="round" stroke-linejoin="round"/>
<path d="M153.948 415.672L155.812 423.063C155.812 423.063 166.744 429.121 167.583 429.959C168.422 430.798 168.086 434.331 168.086 434.331H136.799C136.634 431.622 136.86 428.904 137.47 426.259C137.937 422.981 138.223 419.68 138.328 416.371L153.948 415.672Z" fill="#263238" stroke="#263238" stroke-linecap="round" stroke-linejoin="round"/>
<path d="M168.077 434.312H136.799C136.746 433.639 136.728 432.964 136.743 432.29H168.142C168.157 432.964 168.135 433.64 168.077 434.312Z" fill="white" stroke="#263238" stroke-linecap="round" stroke-linejoin="round"/>
<path d="M166.903 429.652C164.757 427.824 162.129 426.656 159.335 426.287C154.293 425.439 149.745 427.294 148.738 428.3C147.732 429.307 147.051 432.168 147.051 432.168L168.142 432.336C168.299 432.087 168.392 431.804 168.411 431.51C168.43 431.217 168.375 430.924 168.252 430.657C168.129 430.39 167.941 430.158 167.705 429.983C167.47 429.807 167.194 429.693 166.903 429.652Z" fill="white" stroke="#263238" stroke-linecap="round" stroke-linejoin="round"/>
<path d="M139.987 421.609C139.987 423.426 140.63 424.889 141.422 424.889C142.214 424.889 142.848 423.426 142.848 421.609C142.848 419.791 142.214 418.328 141.422 418.328C140.63 418.328 139.987 419.801 139.987 421.609Z" fill="white" stroke="#263238" stroke-linecap="round" stroke-linejoin="round"/>
<path d="M75.492 258.779L74.4575 275.089L75.8462 415.653L91.4572 416.352L107.078 286.543L109.165 285.844L138.327 416.352L153.948 415.653L146.995 328.194L136.501 253.131L75.492 258.779Z" fill="white" stroke="#263238" stroke-linecap="round" stroke-linejoin="round"/>
<path d="M108.448 263.206V275.108L111.691 269.702L112.241 261.584" stroke="#808080" stroke-linecap="round" stroke-linejoin="round"/>
<path d="M86.1727 154.563C86.1727 154.563 50.9711 169.95 50.4492 171.488C49.9272 173.026 40.542 211.909 42.0612 215.553C42.9944 217.596 44.6653 219.212 46.7392 220.076C48.8131 220.94 51.1369 220.989 53.2452 220.213C58.1941 218.349 62.8914 199.355 62.8914 199.355C62.8914 199.355 73.8424 232.729 73.8424 236.122C73.8424 239.514 74.8862 260.354 74.8862 260.354C74.8862 260.354 94.9615 263.215 111.654 259.31C128.346 255.405 136.426 253.047 136.426 253.047L128.607 205.329C128.607 205.329 124.431 158.132 123.947 156.305C123.462 154.479 93.694 153.957 91.3267 154.218C88.9594 154.479 86.1727 154.563 86.1727 154.563Z" fill="#AB0000" stroke="#263238" stroke-linecap="round" stroke-linejoin="round"/>
<path d="M59.471 210.632C58.2748 206.784 56.1382 203.296 53.2545 200.482C50.3467 197.901 46.4789 199.364 43.832 200.967C42.434 208.209 41.53 214.295 42.1078 215.627C43.041 217.671 44.7119 219.287 46.7858 220.151C48.8597 221.015 51.1835 221.064 53.2918 220.287C55.5566 219.448 57.784 215.105 59.471 210.632Z" fill="#263238" stroke="#263238" stroke-miterlimit="10"/>
<path d="M69.7791 220.884L129.157 208.404L128.682 205.459C128.682 205.459 128.588 204.527 128.449 202.84L68.1108 215.516C68.67 217.249 69.2292 219.02 69.7791 220.884Z" fill="#263238"/>
<path d="M136.501 253.131L130.639 217.398L72.3423 229.514C73.0486 231.704 73.5754 233.949 73.9174 236.224C73.9174 239.608 74.9612 260.456 74.9612 260.456C74.9612 260.456 95.0365 263.318 111.729 259.413C128.421 255.507 136.501 253.131 136.501 253.131Z" fill="#263238" stroke="#263238" stroke-miterlimit="10"/>
<path d="M91.3923 154.302C89.0436 154.563 86.1731 154.563 86.1731 154.563C86.1731 154.563 79.5745 157.452 72.0439 160.854L102.52 192.318C102.52 192.318 109.044 160.938 108.466 158.235C108.192 156.969 107.831 155.723 107.385 154.507C99.9014 154.237 92.5107 154.181 91.3923 154.302Z" fill="#263238" stroke="#263238" stroke-miterlimit="10"/>
<path d="M101.299 145.438C101.299 145.438 102.865 158.999 103.648 161.608C104.431 164.218 99.2115 182.467 99.2115 182.467C99.2115 182.467 84.0851 167.079 82.2584 162.652C80.4317 158.225 76.2656 142.829 76.2656 142.829C76.2656 142.829 89.5653 149.614 101.299 145.438Z" fill="white" stroke="#263238" stroke-linecap="round" stroke-linejoin="round"/>
<path d="M76.2656 142.829C76.2656 142.829 77.1976 146.342 78.4092 150.49C79.043 150.844 79.8072 151.245 80.7392 151.711C85.5969 154.283 91.1295 155.295 96.5832 154.609C97.722 154.422 98.8009 153.971 99.7333 153.291C100.666 152.611 101.426 151.722 101.952 150.695C101.579 147.778 101.308 145.438 101.308 145.438C89.5653 149.614 76.2656 142.829 76.2656 142.829Z" fill="#263238" stroke="#263238" stroke-linecap="round" stroke-linejoin="round"/>
<path d="M94.5981 111.215C94.5981 111.215 98.5498 119.128 101.197 122.558C103.844 125.988 108.056 133.649 106.211 138.132C104.365 142.615 103.154 150.248 97.2357 151.068C91.7811 151.746 86.2499 150.731 81.3917 148.16C76.6385 145.783 76.1165 144.991 76.1165 144.991C76.1165 144.991 72.1555 144.991 69.7789 143.127C67.4023 141.263 62.6584 135.475 63.9726 130.461C65.2867 125.447 68.4648 124.916 68.4648 124.916C68.4648 124.916 61.8663 122.278 66.0882 115.68C70.3102 109.081 79.276 106.714 83.5073 106.714C87.7386 106.714 94.5981 111.215 94.5981 111.215Z" fill="white" stroke="#263238" stroke-linecap="round" stroke-linejoin="round"/>
<path d="M93.2749 119.92C93.8812 120.879 94.693 121.691 95.6515 122.297C97.5155 123.62 100.134 122.828 99.3795 125.205C98.6246 127.581 96.7419 128.364 95.1575 128.103" stroke="#263238" stroke-linecap="round" stroke-linejoin="round"/>
<path d="M99.6124 131.011C99.6124 131.011 94.5982 133.91 91.1685 133.649C89.3803 133.609 87.6408 133.059 86.1543 132.064" stroke="#263238" stroke-linecap="round" stroke-linejoin="round"/>
<path d="M88.54 133.649C88.54 133.649 90.404 140.247 93.023 138.132C94.6816 136.68 95.7987 134.708 96.1918 132.54C93.7575 133.482 91.1416 133.861 88.54 133.649Z" fill="#263238" stroke="#263238" stroke-linecap="round" stroke-linejoin="round"/>
<path d="M88.2698 122.213C88.8476 123.145 88.8663 124.161 88.2698 124.515C87.6733 124.869 86.7786 124.422 86.1914 123.509C85.6043 122.595 85.595 121.561 86.1914 121.197C86.7879 120.834 87.6826 121.29 88.2698 122.213Z" fill="#263238"/>
<path d="M96.6951 118.224C97.2729 119.156 97.2916 120.181 96.6951 120.535C96.0986 120.89 95.2039 120.442 94.6167 119.52C94.0296 118.597 94.0202 117.572 94.6167 117.217C95.2132 116.863 96.1079 117.311 96.6951 118.224Z" fill="#263238"/>
<path d="M82.7339 121.421C82.7339 121.421 83.4981 117.898 86.2569 117.432" stroke="#263238" stroke-linecap="round" stroke-linejoin="round"/>
<path d="M91.7744 115.903C91.7744 115.903 93.3122 112.995 95.7634 114.216" stroke="#263238" stroke-linecap="round" stroke-linejoin="round"/>
<path d="M69.2571 119.398C69.2571 119.398 86.4152 119.398 87.7386 116.49C89.0621 113.583 85.0917 111.476 85.0917 111.476C85.0917 111.476 99.8733 112.008 101.458 107.515C103.042 103.023 96.1825 101.187 94.0669 101.187H90.8981C90.8981 101.187 90.1059 94.5885 82.4542 96.1729C74.8025 97.7573 60.0209 107.786 58.2222 113.592C56.4234 119.398 52.1549 121.244 55.3237 128.103C58.4925 134.963 67.1973 140.508 67.1973 140.508C67.1973 140.508 65.8739 135.494 68.5208 135.233C71.1677 134.972 75.6413 136.808 76.4335 136.808C77.2257 136.808 79.6023 134.702 78.2975 133.378C76.9927 132.055 75.6599 131.272 75.3989 130.48C75.138 129.688 76.7131 127.05 75.6599 124.673C74.6067 122.297 69.2571 119.398 69.2571 119.398Z" fill="#263238" stroke="#263238" stroke-linecap="round" stroke-linejoin="round"/>
<path d="M69.4997 128.991L63.3833 133.056C62.3931 133.714 62.1239 135.051 62.7821 136.041L74.8334 154.173C75.4916 155.163 76.8279 155.432 77.8181 154.774L83.9345 150.709C84.9248 150.051 85.194 148.714 84.5358 147.724L72.4845 129.592C71.8263 128.602 70.49 128.333 69.4997 128.991Z" fill="#AB0000" stroke="#263238" stroke-miterlimit="10"/>
<path d="M66.0976 151.086C66.0976 151.086 64.8767 147.964 63.6651 145.699C62.4535 143.434 62.4442 142.4 63.3109 142.4C64.2293 142.572 65.0774 143.009 65.7512 143.656C66.425 144.303 66.8952 145.133 67.1042 146.044C67.5195 147.928 67.6359 149.865 67.449 151.785L66.0976 151.086Z" fill="white" stroke="#263238" stroke-miterlimit="10"/>
<path d="M76.5267 163.1C76.5267 163.1 66.6196 153.192 66.2747 152.326C65.9299 151.459 66.3213 140.21 66.4239 136.976C66.4424 136.75 66.5344 136.536 66.686 136.368C66.8375 136.2 67.0401 136.086 67.2627 136.044C67.4031 136.02 67.5469 136.026 67.685 136.061C67.8231 136.096 67.9524 136.159 68.0646 136.247C68.1769 136.334 68.2696 136.444 68.3369 136.57C68.4042 136.695 68.4447 136.834 68.4556 136.976L69.2385 146.109L71.5033 134.59C71.5489 134.357 71.6746 134.148 71.8584 133.998C72.0422 133.848 72.2727 133.767 72.5098 133.77C72.6477 133.771 72.7839 133.8 72.9103 133.855C73.0368 133.91 73.1508 133.989 73.2456 134.089C73.3405 134.19 73.4142 134.308 73.4623 134.437C73.5104 134.566 73.532 134.704 73.5257 134.841L72.8826 147.675L75.7439 136.724C75.7784 136.588 75.8399 136.46 75.9246 136.348C76.0093 136.236 76.1156 136.142 76.2372 136.072C76.3588 136.001 76.4932 135.956 76.6326 135.938C76.7719 135.921 76.9134 135.931 77.0487 135.969C77.2734 136.033 77.4709 136.168 77.6107 136.355C77.7505 136.542 77.8249 136.77 77.8222 137.004L76.5267 148.793L78.9593 150.881V146.706L81.8764 141.803C81.9803 141.623 82.1495 141.49 82.349 141.431C82.5485 141.372 82.763 141.392 82.9482 141.487C83.1366 141.583 83.281 141.747 83.352 141.947C83.4231 142.146 83.4153 142.365 83.3303 142.558L81.3918 146.883C81.3918 146.883 85.2223 162.522 85.3901 163.044C85.5578 163.566 84.7004 166.352 84.1785 167.396C83.6565 168.44 60.3565 217.808 59.0145 219.719C57.6724 221.629 48.2405 224.584 44.1025 220.063C39.9644 215.543 41.3065 211.023 43.5805 205.813C45.8546 200.603 76.5267 163.1 76.5267 163.1Z" fill="white" stroke="#263238" stroke-miterlimit="10"/>
<path d="M80.0029 268.845L93.2001 276.478" stroke="#808080" stroke-linecap="round" stroke-linejoin="round"/>
<path d="M133.454 263.635L125.476 274.045" stroke="#808080" stroke-linecap="round" stroke-linejoin="round"/>
<path d="M27.96 434.312H444.564" stroke="#263238" stroke-linecap="round" stroke-linejoin="round"/>
</svg>
