<svg width="247" height="247" viewBox="0 0 247 247" fill="none" xmlns="http://www.w3.org/2000/svg">
<path d="M125.254 237.95C190.372 237.95 243.162 210.925 243.162 177.588C243.162 144.251 190.372 117.226 125.254 117.226C60.135 117.226 7.34579 144.251 7.34579 177.588C7.34579 210.925 60.135 237.95 125.254 237.95Z" fill="#FAFAFA"/>
<path d="M192.472 216.555C210.214 216.555 224.597 207.67 224.597 196.711C224.597 185.751 210.214 176.867 192.472 176.867C174.73 176.867 160.347 185.751 160.347 196.711C160.347 207.67 174.73 216.555 192.472 216.555Z" fill="#E0E0E0"/>
<path d="M116.214 161.103L95.6285 149.223C95.2868 149.047 94.9084 148.956 94.5244 148.956C94.1405 148.956 93.762 149.047 93.4203 149.223L25.194 188.619C25.0603 188.664 24.944 188.749 24.8616 188.864C24.7793 188.978 24.7349 189.115 24.7349 189.256C24.7349 189.397 24.7793 189.535 24.8616 189.649C24.944 189.763 25.0603 189.849 25.194 189.894L45.774 201.779C46.1169 201.951 46.4949 202.04 46.8781 202.04C47.2614 202.04 47.6394 201.951 47.9822 201.779L54.0634 198.267L110.127 165.984L116.218 162.402C116.356 162.358 116.476 162.271 116.561 162.154C116.646 162.037 116.691 161.896 116.691 161.751C116.69 161.606 116.644 161.466 116.558 161.349C116.472 161.233 116.352 161.147 116.214 161.103Z" fill="#E0E0E0"/>
<path d="M208.75 189.33L205.568 187.641C205.568 187.641 205.879 172.11 209.1 160.081C212.4 147.765 222.004 134.16 231.078 139.259C240.153 144.357 224.024 154.834 219.173 164.947C214.322 175.059 208.75 189.33 208.75 189.33Z" fill="#AB0000"/>
<path opacity="0.15" d="M208.75 189.33L205.568 187.641C205.568 187.641 205.879 172.11 209.1 160.081C212.4 147.765 222.004 134.16 231.078 139.259C240.153 144.357 224.024 154.834 219.173 164.947C214.322 175.059 208.75 189.33 208.75 189.33Z" fill="black"/>
<path d="M208.33 185.645C208.288 185.644 208.246 185.634 208.208 185.617C208.169 185.599 208.134 185.575 208.105 185.544C208.077 185.513 208.054 185.477 208.039 185.438C208.024 185.398 208.017 185.356 208.018 185.314C208.7 161.212 219.237 146.495 228.055 141.22C228.128 141.176 228.216 141.163 228.299 141.184C228.382 141.204 228.453 141.257 228.497 141.331C228.541 141.404 228.554 141.492 228.533 141.575C228.512 141.658 228.459 141.729 228.386 141.773C219.707 146.965 209.337 161.488 208.661 185.329C208.66 185.371 208.651 185.413 208.634 185.452C208.617 185.492 208.592 185.527 208.561 185.556C208.531 185.586 208.494 185.609 208.454 185.624C208.415 185.639 208.372 185.646 208.33 185.645Z" fill="white"/>
<path d="M210.187 190.072L207.347 188.614C207.347 188.614 207.697 180.987 213.541 171.048C218.728 162.22 229.241 155.304 233.657 157.769C237.085 159.676 237.876 163.855 234.591 166.636C231.306 169.417 216.14 175.252 210.187 190.072Z" fill="#AB0000"/>
<path d="M209.046 187.636C209.54 187.735 209.713 186.515 209.812 186.203C209.999 185.621 210.197 185.048 210.414 184.474C210.84 183.36 211.323 182.269 211.862 181.204C212.899 179.157 214.114 177.205 215.493 175.37C216.781 173.652 218.186 172.025 219.697 170.499C221.06 169.127 222.495 167.828 223.994 166.607C225.249 165.579 226.553 164.606 227.892 163.692C228.88 163.02 229.868 162.378 230.901 161.775C231.439 161.459 231.977 161.148 232.536 160.861L232.694 160.782C232.782 160.739 232.85 160.662 232.882 160.569C232.914 160.476 232.907 160.374 232.864 160.286C232.821 160.197 232.744 160.13 232.651 160.098C232.558 160.066 232.456 160.072 232.368 160.115C232.022 160.283 231.691 160.471 231.38 160.659C230.51 161.153 229.661 161.647 228.826 162.2C227.587 163 226.379 163.847 225.2 164.739C223.738 165.846 222.333 167.02 220.986 168.261C219.451 169.668 218.005 171.169 216.659 172.757C215.198 174.469 213.877 176.294 212.707 178.216C211.461 180.249 210.419 182.4 209.594 184.638C209.44 185.069 209.291 185.499 209.15 185.927C208.942 186.354 208.816 186.817 208.779 187.29C208.785 187.366 208.812 187.438 208.857 187.499C208.901 187.56 208.961 187.607 209.031 187.636H209.046Z" fill="white"/>
<path d="M47.839 175.785C47.839 175.785 47.918 166.098 44.1093 158.08C40.3005 150.062 34.3429 144.638 28.3013 143.398C22.2596 142.158 16.6873 147.148 22.7141 151.796C28.7409 156.445 39.8115 161.824 43.3485 176.882L47.839 175.785Z" fill="#AB0000"/>
<path opacity="0.15" d="M47.839 175.785C47.839 175.785 47.918 166.098 44.1093 158.08C40.3005 150.062 34.3429 144.638 28.3013 143.398C22.2596 142.158 16.6873 147.148 22.7141 151.796C28.7409 156.445 39.8115 161.824 43.3485 176.882L47.839 175.785Z" fill="black"/>
<path d="M45.3196 174.11C45.2565 174.11 45.1959 174.086 45.15 174.043C45.104 174 45.0763 173.941 45.0726 173.878C44.1438 158.371 31.369 148.289 25.0557 146.57C24.993 146.552 24.9397 146.511 24.9073 146.455C24.8749 146.398 24.8661 146.331 24.8828 146.268C24.9002 146.204 24.9421 146.15 24.9994 146.117C25.0567 146.083 25.1249 146.074 25.1891 146.091C31.6111 147.844 44.623 158.095 45.5666 173.848C45.5681 173.913 45.545 173.976 45.502 174.025C45.4589 174.074 45.399 174.104 45.3344 174.11H45.3196Z" fill="white"/>
<path d="M48.6195 189.083C49.8433 187.539 50.6645 185.715 51.0094 183.775C51.3542 181.835 51.212 179.84 50.5955 177.968C50.2369 176.838 49.6632 175.788 48.906 174.876C48.2984 174.16 47.424 173.789 46.7126 173.191C45.1812 171.922 43.4028 170.573 42.8496 168.558C42.405 166.952 42.4988 165.431 41.6096 163.924C41.0857 162.981 40.2514 162.247 39.2483 161.849C37.9392 161.355 36.4967 161.681 35.1135 161.849C33.1375 162.072 31.6555 161.39 29.9463 160.481C28.0641 159.493 25.8658 158.712 23.8256 159.32C23.1621 159.517 22.5473 159.85 22.021 160.3C21.4947 160.749 21.0688 161.304 20.7707 161.929C20.4726 162.553 20.3091 163.233 20.2907 163.925C20.2723 164.617 20.3995 165.305 20.664 165.944C21.1185 167.051 21.9583 167.95 22.5758 168.978C23.1933 170.005 23.5193 171.181 23.0698 172.302C22.724 173.132 22.0818 173.784 21.8249 174.629C21.0938 176.852 21.5038 178.828 23.712 179.974C26.019 181.155 29.64 180.266 30.796 183.165C31.2307 184.267 31.2455 185.487 31.4826 186.648C31.9693 188.984 33.3277 191.048 35.2815 192.418C37.9343 194.261 41.5355 193.811 44.2871 192.527C45.9776 191.729 47.4604 190.55 48.6195 189.083Z" fill="#AB0000"/>
<path d="M27.8221 175.054C27.8761 175.063 27.9315 175.054 27.9802 175.029C29.9259 174.277 32.0139 173.965 34.0945 174.115C36.1751 174.265 38.1966 174.874 40.014 175.898C40.0763 175.932 40.1492 175.939 40.2168 175.919C40.2844 175.898 40.3411 175.852 40.3746 175.79C40.392 175.759 40.403 175.726 40.4072 175.691C40.4114 175.656 40.4085 175.621 40.3989 175.588C40.3892 175.554 40.3729 175.523 40.3509 175.495C40.3289 175.468 40.3017 175.446 40.2709 175.429C38.3827 174.369 36.2831 173.74 34.1229 173.588C31.9627 173.436 29.7957 173.764 27.7776 174.55C27.7302 174.576 27.6918 174.616 27.6675 174.664C27.6432 174.713 27.6342 174.767 27.6417 174.821C27.6492 174.874 27.6729 174.924 27.7095 174.964C27.7461 175.004 27.794 175.032 27.8468 175.044L27.8221 175.054Z" fill="white"/>
<path d="M45.0725 189.167C45.0079 189.168 44.9452 189.144 44.8981 189.1C44.851 189.056 44.8232 188.995 44.8206 188.93C44.3612 177.766 33.1523 165.959 25.6386 162.748C25.6082 162.736 25.5807 162.717 25.5575 162.694C25.5343 162.671 25.516 162.643 25.5036 162.613C25.4911 162.583 25.4849 162.55 25.4852 162.517C25.4855 162.484 25.4923 162.452 25.5052 162.422C25.5323 162.361 25.5822 162.314 25.6442 162.29C25.7062 162.265 25.7752 162.267 25.8362 162.294C33.4685 165.564 44.8502 177.568 45.3195 188.92C45.3209 188.953 45.3157 188.986 45.3042 189.017C45.2927 189.048 45.2753 189.077 45.2528 189.101C45.2303 189.126 45.2033 189.145 45.1732 189.159C45.1431 189.173 45.1106 189.181 45.0775 189.182L45.0725 189.167Z" fill="white"/>
<path d="M106.941 29.6404L51.0302 61.9085C50.4765 62.2699 50.0164 62.7574 49.6875 63.331C49.3586 63.9046 49.1704 64.548 49.1382 65.2084V196.874C49.1382 198.08 49.9879 198.569 51.0302 197.961L106.941 165.683C107.491 165.322 107.949 164.838 108.277 164.268C108.606 163.698 108.796 163.06 108.833 162.403V30.7173C108.833 29.512 107.983 29.018 106.941 29.6404ZM106.111 152.646C106.111 153.679 105.385 154.336 104.491 154.85L53.2927 184.42C52.4035 184.914 51.6724 184.519 51.6724 183.482V73.9868C51.6726 73.4206 51.822 72.8645 52.1056 72.3745C52.3892 71.8845 52.797 71.4779 53.2878 71.1957L104.486 41.6199C104.65 41.5245 104.837 41.474 105.027 41.4735C105.217 41.4731 105.403 41.5226 105.568 41.6173C105.733 41.7119 105.87 41.8483 105.965 42.0126C106.061 42.177 106.111 42.3636 106.111 42.5536V152.646Z" fill="#455A64"/>
<path d="M106.111 152.646C106.111 153.678 105.385 154.335 104.491 154.849L53.2927 184.42C52.4035 184.914 51.6724 184.519 51.6724 183.481V73.9864C51.6726 73.4202 51.822 72.8641 52.1056 72.3741C52.3892 71.8841 52.797 71.4775 53.2878 71.1953L104.486 41.6195C104.65 41.5241 104.837 41.4736 105.027 41.4731C105.217 41.4727 105.403 41.5223 105.568 41.6169C105.733 41.7116 105.87 41.8479 105.965 42.0123C106.061 42.1766 106.111 42.3632 106.111 42.5532V152.646Z" fill="#263238"/>
<path d="M53.2927 184.42L104.491 154.859C104.85 154.665 105.182 154.424 105.479 154.143L51.6724 123.841V183.481C51.6724 184.519 52.4035 184.934 53.2927 184.42Z" fill="#37474F"/>
<path d="M101.967 150.725V43.0771L53.2878 71.1956C52.797 71.4778 52.3892 71.8844 52.1056 72.3744C51.822 72.8645 51.6726 73.4206 51.6724 73.9867V181.032L100.346 152.928C101.24 152.414 101.967 151.757 101.967 150.725Z" fill="#AB0000"/>
<path d="M50.7931 198.094C50.2285 198.332 49.619 198.445 49.0066 198.424C48.3942 198.404 47.7936 198.251 47.2462 197.976L45.0824 196.726C44.5303 196.368 44.0706 195.885 43.7409 195.316C43.4112 194.747 43.2209 194.107 43.1855 193.451V61.7501C43.1979 61.262 43.3088 60.7815 43.5115 60.3373C43.5807 60.1842 43.6548 60.036 43.7388 59.8828L49.6668 63.3408C49.5422 63.5635 49.4332 63.7946 49.3407 64.0324C49.1968 64.4065 49.1183 64.8025 49.1085 65.2032V196.874C49.1382 197.985 49.8594 198.489 50.7931 198.094Z" fill="#263238"/>
<path d="M80.6554 171.566C81.8657 171.566 81.9941 172.925 81.9941 173.508C81.9218 174.676 81.5794 175.811 80.9939 176.824C80.4085 177.837 79.5959 178.701 78.6201 179.347C78.2286 179.596 77.7792 179.739 77.3159 179.762C76.1056 179.762 75.9772 178.403 75.9772 177.82C76.0501 176.653 76.3922 175.517 76.9766 174.503C77.5611 173.49 78.3721 172.625 79.3463 171.976C79.7411 171.732 80.1914 171.591 80.6554 171.566Z" fill="#AB0000"/>
<path d="M78.9461 47.8737C79.4401 47.5773 79.8699 47.8144 79.8699 48.4072C79.852 48.7277 79.7591 49.0395 79.5986 49.3175C79.4382 49.5955 79.2147 49.8319 78.9461 50.0078C78.4521 50.2992 78.0174 50.0621 78.0174 49.4743C78.0343 49.153 78.1274 48.8403 78.2888 48.562C78.4503 48.2837 78.6756 48.0478 78.9461 47.8737Z" fill="#263238"/>
<path d="M72.9786 55.6741C73.4331 55.4123 73.7987 55.6247 73.7987 56.1681C73.7836 56.4524 73.7015 56.7291 73.5589 56.9755C73.4164 57.2219 73.2175 57.4311 72.9786 57.5859C72.5242 57.8477 72.1586 57.6353 72.1586 57.0919C72.1744 56.8078 72.2569 56.5314 72.3994 56.2851C72.5418 56.0388 72.7403 55.8295 72.9786 55.6741Z" fill="#263238"/>
<path d="M75.7203 54.0538L84.9038 48.7532C85.3978 48.4617 85.8128 48.6692 85.8128 49.2126C85.7887 49.5177 85.694 49.8131 85.5363 50.0755C85.3786 50.3378 85.162 50.5599 84.9038 50.7242L75.7203 56.0249C75.2263 56.3163 74.8114 56.1088 74.8114 55.5654C74.8354 55.2603 74.9301 54.9649 75.0878 54.7026C75.2456 54.4402 75.4621 54.2181 75.7203 54.0538Z" fill="#263238"/>
<path d="M108.813 30.4158C108.675 29.4278 107.89 29.077 106.946 29.6254L51.0253 61.9083C50.4657 62.2556 50.0061 62.7425 49.6915 63.3211L43.7635 59.8631C44.083 59.2891 44.5438 58.8062 45.1022 58.4601L100.988 26.1822C101.575 25.8849 102.223 25.73 102.88 25.73C103.538 25.73 104.186 25.8849 104.772 26.1822L106.946 27.4271C107.453 27.7631 107.881 28.2037 108.203 28.7192C108.525 29.2347 108.733 29.8132 108.813 30.4158Z" fill="#37474F"/>
<path d="M94.1465 34.4126C93.8564 34.5676 93.5336 34.6515 93.2047 34.6575C92.8758 34.6635 92.5501 34.5914 92.2545 34.4472C92.1555 34.4049 92.0697 34.3367 92.0062 34.2498C91.9428 34.1628 91.9039 34.0604 91.8939 33.9532C91.8939 33.8148 91.8939 33.3011 91.8939 33.1578C91.9098 33.0346 91.9572 32.9175 92.0316 32.8179C92.1061 32.7184 92.205 32.6398 92.3187 32.5897L98.3109 29.1317C98.6023 28.9778 98.9258 28.8945 99.2553 28.8885C99.5848 28.8825 99.9111 28.954 100.208 29.0971C100.305 29.1413 100.389 29.2102 100.451 29.2968C100.514 29.3835 100.553 29.4849 100.564 29.5911C100.564 29.7344 100.564 30.2679 100.564 30.4062C100.548 30.5302 100.501 30.6481 100.426 30.7485C100.352 30.8489 100.253 30.9284 100.139 30.9793L94.1465 34.4126Z" fill="#AB0000"/>
<path opacity="0.25" d="M94.1465 34.4126C93.8564 34.5676 93.5336 34.6515 93.2047 34.6575C92.8758 34.6635 92.5501 34.5914 92.2545 34.4472C92.1555 34.4049 92.0697 34.3367 92.0062 34.2498C91.9428 34.1628 91.9039 34.0604 91.8939 33.9532C91.8939 33.8148 91.8939 33.3011 91.8939 33.1578C91.9098 33.0346 91.9572 32.9175 92.0316 32.8179C92.1061 32.7184 92.205 32.6398 92.3187 32.5897L98.3109 29.1317C98.6023 28.9778 98.9258 28.8945 99.2553 28.8885C99.5848 28.8825 99.9111 28.954 100.208 29.0971C100.305 29.1413 100.389 29.2102 100.451 29.2968C100.514 29.3835 100.553 29.4849 100.564 29.5911C100.564 29.7344 100.564 30.2679 100.564 30.4062C100.548 30.5302 100.501 30.6481 100.426 30.7485C100.352 30.8489 100.253 30.9284 100.139 30.9793L94.1465 34.4126Z" fill="black"/>
<path d="M94.1465 33.6269L100.139 30.1689C100.682 29.8528 100.707 29.3637 100.203 29.0722C99.9062 28.9291 99.5799 28.8576 99.2504 28.8636C98.9209 28.8696 98.5974 28.9529 98.306 29.1068L92.3138 32.5648C91.7753 32.876 91.7457 33.3651 92.2545 33.6566C92.5501 33.8004 92.8754 33.8727 93.2041 33.8676C93.5328 33.8624 93.8556 33.78 94.1465 33.6269Z" fill="#AB0000"/>
<path opacity="0.3" d="M94.1465 33.6269L100.139 30.1689C100.682 29.8528 100.707 29.3637 100.203 29.0722C99.9062 28.9291 99.5799 28.8576 99.2504 28.8636C98.9209 28.8696 98.5974 28.9529 98.306 29.1068L92.3138 32.5648C91.7753 32.876 91.7457 33.3651 92.2545 33.6566C92.5501 33.8004 92.8754 33.8727 93.2041 33.8676C93.5328 33.8624 93.8556 33.78 94.1465 33.6269Z" fill="black"/>
<path d="M46.93 81.5941C46.9183 81.2653 46.8289 80.9439 46.6692 80.6563C46.5095 80.3687 46.284 80.1229 46.0112 79.9392C45.9218 79.8731 45.8159 79.8331 45.7051 79.8235C45.5944 79.8139 45.4832 79.8352 45.3838 79.8848C45.2702 79.954 44.8157 80.2059 44.6971 80.28C44.5979 80.3552 44.5198 80.4547 44.4705 80.569C44.4212 80.6833 44.4022 80.8084 44.4155 80.9321V95.6138C44.4275 95.942 44.5164 96.2627 44.6752 96.5502C44.8339 96.8377 45.058 97.0838 45.3294 97.2687C45.4187 97.3288 45.522 97.3649 45.6293 97.3735C45.7365 97.3822 45.8442 97.3631 45.942 97.3181C46.0704 97.2539 46.5299 96.9871 46.6534 96.913C46.7526 96.8378 46.8307 96.7383 46.88 96.624C46.9293 96.5098 46.9483 96.3847 46.9349 96.2609L46.93 81.5941Z" fill="#AB0000"/>
<path opacity="0.3" d="M46.93 81.5941C46.9183 81.2653 46.8289 80.9439 46.6692 80.6563C46.5095 80.3687 46.284 80.1229 46.0112 79.9392C45.9218 79.8731 45.8159 79.8331 45.7051 79.8235C45.5944 79.8139 45.4832 79.8352 45.3838 79.8848C45.2702 79.954 44.8157 80.2059 44.6971 80.28C44.5979 80.3552 44.5198 80.4547 44.4705 80.569C44.4212 80.6833 44.4022 80.8084 44.4155 80.9321V95.6138C44.4275 95.942 44.5164 96.2627 44.6752 96.5502C44.8339 96.8377 45.058 97.0838 45.3294 97.2687C45.4187 97.3288 45.522 97.3649 45.6293 97.3735C45.7365 97.3822 45.8442 97.3631 45.942 97.3181C46.0704 97.2539 46.5299 96.9871 46.6534 96.913C46.7526 96.8378 46.8307 96.7383 46.88 96.624C46.9293 96.5098 46.9483 96.3847 46.9349 96.2609L46.93 81.5941Z" fill="black"/>
<path d="M46.2483 82.004V96.6857C46.2483 97.3081 45.8383 97.5749 45.3295 97.2834C45.0581 97.0985 44.8339 96.8524 44.6752 96.5649C44.5164 96.2775 44.4275 95.9567 44.4156 95.6285V80.932C44.4156 80.3046 44.8256 80.0379 45.3295 80.3293C45.6044 80.5156 45.8311 80.7647 45.9909 81.0558C46.1507 81.347 46.2389 81.672 46.2483 82.004Z" fill="#AB0000"/>
<path opacity="0.4" d="M46.2483 82.004V96.6857C46.2483 97.3081 45.8383 97.5749 45.3295 97.2834C45.0581 97.0985 44.8339 96.8524 44.6752 96.5649C44.5164 96.2775 44.4275 95.9567 44.4156 95.6285V80.932C44.4156 80.3046 44.8256 80.0379 45.3295 80.3293C45.6044 80.5156 45.8311 80.7647 45.9909 81.0558C46.1507 81.347 46.2389 81.672 46.2483 82.004Z" fill="black"/>
<path d="M46.93 101.27C46.9183 100.941 46.8289 100.62 46.6692 100.332C46.5095 100.044 46.284 99.7987 46.0112 99.6149C45.9218 99.5489 45.8159 99.5089 45.7051 99.4993C45.5944 99.4897 45.4832 99.5109 45.3838 99.5606C45.2702 99.6298 44.8157 99.8817 44.6971 99.9558C44.5979 100.031 44.5198 100.131 44.4705 100.245C44.4212 100.359 44.4022 100.484 44.4155 100.608V107.524C44.4282 107.851 44.5175 108.171 44.6763 108.458C44.835 108.744 45.0587 108.989 45.3294 109.174C45.4158 109.238 45.5177 109.277 45.6245 109.289C45.7313 109.3 45.8393 109.282 45.9371 109.238C46.0655 109.174 46.5249 108.907 46.6484 108.833C46.7472 108.759 46.8251 108.66 46.8744 108.547C46.9238 108.433 46.9429 108.309 46.93 108.186V101.27Z" fill="#AB0000"/>
<path opacity="0.3" d="M46.93 101.27C46.9183 100.941 46.8289 100.62 46.6692 100.332C46.5095 100.044 46.284 99.7987 46.0112 99.6149C45.9218 99.5489 45.8159 99.5089 45.7051 99.4993C45.5944 99.4897 45.4832 99.5109 45.3838 99.5606C45.2702 99.6298 44.8157 99.8817 44.6971 99.9558C44.5979 100.031 44.5198 100.131 44.4705 100.245C44.4212 100.359 44.4022 100.484 44.4155 100.608V107.524C44.4282 107.851 44.5175 108.171 44.6763 108.458C44.835 108.744 45.0587 108.989 45.3294 109.174C45.4158 109.238 45.5177 109.277 45.6245 109.289C45.7313 109.3 45.8393 109.282 45.9371 109.238C46.0655 109.174 46.5249 108.907 46.6484 108.833C46.7472 108.759 46.8251 108.66 46.8744 108.547C46.9238 108.433 46.9429 108.309 46.93 108.186V101.27Z" fill="black"/>
<path d="M46.2483 101.641V108.557C46.2483 109.179 45.8383 109.451 45.3295 109.154C45.0581 108.97 44.8339 108.723 44.6752 108.436C44.5164 108.149 44.4275 107.828 44.4156 107.5V100.584C44.4156 99.9611 44.8256 99.6894 45.3295 99.9809C45.6019 100.166 45.8269 100.413 45.9865 100.701C46.1461 100.99 46.2358 101.311 46.2483 101.641Z" fill="#AB0000"/>
<path opacity="0.4" d="M46.2483 101.641V108.557C46.2483 109.179 45.8383 109.451 45.3295 109.154C45.0581 108.97 44.8339 108.723 44.6752 108.436C44.5164 108.149 44.4275 107.828 44.4156 107.5V100.584C44.4156 99.9611 44.8256 99.6894 45.3295 99.9809C45.6019 100.166 45.8269 100.413 45.9865 100.701C46.1461 100.99 46.2358 101.311 46.2483 101.641Z" fill="black"/>
<path d="M63.3012 89.0137C63.3503 89.2536 63.4163 89.4896 63.4988 89.7202C63.8199 90.5896 64.3978 91.4096 64.3484 92.3384C64.2941 93.3856 63.4691 94.1958 62.8368 95.0307C62.015 96.1345 61.4674 97.4178 61.2389 98.7749C61.0104 100.132 61.1077 101.524 61.5228 102.836C62.1301 104.434 62.9726 105.932 64.0224 107.282L66.4084 110.666C67.1299 111.613 68.0507 112.391 69.1057 112.943C71.1559 114.102 73.4436 114.778 75.7944 114.919C79.6586 115.18 83.5023 114.172 86.7415 112.049C90.1748 109.777 88.6631 103.947 92.1755 101.818C96.4239 99.2494 98.4493 90.3278 93.2425 86.603C93.2425 86.603 94.0823 81.1394 92.541 79.7463C91.0051 78.461 89.1044 77.6904 87.107 77.5431C84.3505 77.2565 81.589 77.795 78.8375 77.7851C76.0049 77.776 73.1748 77.9526 70.3654 78.3137C69.3774 78.4471 67.9843 78.8077 67.4508 79.771C67.3001 80.1488 67.259 80.5614 67.3322 80.9615C67.3246 81.5963 67.0977 82.2089 66.69 82.6955C66.0774 83.4365 65.208 83.9354 64.5559 84.632C64.0178 85.2128 63.6239 85.912 63.4059 86.6732C63.188 87.4344 63.1521 88.2361 63.3012 89.0137Z" fill="#263238"/>
<path d="M90.7182 96.8979C95.1642 97.0214 95.7421 97.9699 99.7238 101.912C103.034 105.187 114 115.309 114 115.309L127.141 118.807L124.038 126.824C124.038 126.824 121.074 126.701 115.146 126.696C111.506 126.696 110.241 125.881 106.576 123.436C104.708 122.186 94.1712 115.29 94.1712 115.29L90.7182 96.8979Z" fill="#E6E6E6"/>
<path d="M141.679 102.594L117.597 111.081L110.957 139.733L111.496 140.306L134.393 131.764L142.213 103.167L141.679 102.594Z" fill="#AB0000"/>
<path opacity="0.35" d="M118.13 111.654L111.496 140.306L110.957 139.733L117.597 111.081L118.13 111.654Z" fill="black"/>
<path opacity="0.25" d="M142.213 103.167L118.13 111.654L111.496 140.306L134.393 131.765L142.213 103.167Z" fill="black"/>
<g opacity="0.2">
<path d="M130.811 125.935C131.034 126.499 132.881 127.738 135.554 127.516L136.003 125.866L130.811 125.935Z" fill="black"/>
</g>
<g opacity="0.1">
<path d="M134.961 109.036L135.158 108.072C135.267 107.544 133.854 107.82 132.002 108.695L127.655 110.009C125.802 110.883 124.053 111.535 123.94 112.064L123.742 113.022L134.961 109.036Z" fill="black"/>
</g>
<path d="M136.393 104.688C136.463 104.358 135.899 104.427 135.144 104.629L133.755 105.099C133.755 105.099 134.324 103.705 131.038 104.605C127.427 105.593 127.348 107.386 127.348 107.386C126.783 107.631 126.204 107.842 125.614 108.018C124.414 108.408 124.285 108.64 124.187 108.976L124.009 109.584L136.285 105.266C136.285 105.266 136.344 105.019 136.393 104.688Z" fill="#37474F"/>
<path d="M135.099 106.531C133.963 107.025 133.494 107.297 133.321 108.117C133.128 109.05 133.089 109.441 133.089 109.441L126.696 111.96C126.696 111.96 127.042 110.582 127.126 110.122C127.21 109.663 126.365 109.663 125.259 110.172L125.52 109.026L135.465 105.335L135.099 106.531Z" fill="#37474F"/>
<path d="M135.287 109.05C135.287 109.05 135.381 108.621 135.489 108.087C135.598 107.554 134.185 107.835 132.333 108.71L127.986 110.024C126.133 110.898 124.379 111.55 124.271 112.079L124.073 113.067L135.287 109.05Z" fill="#37474F"/>
<path d="M139.535 112.968C139.535 112.968 138.681 116.11 138.453 116.92C138.226 117.73 134.284 119.533 132.313 119.78C128.539 120.249 128.109 121.065 129.013 123.732C129.853 126.202 132.308 127.141 135.717 126.741C137.317 126.553 139.525 125.135 140.395 122.66C141.501 119.499 140.889 116.125 141.348 114.262C141.808 112.4 140.494 111.866 139.535 112.968Z" fill="#FFA8A7"/>
<path d="M102.218 156.173L99.6645 157.655L98.5925 158.273L84.5432 166.379L82.6264 167.466L79.3907 169.333L80.3787 159.251L82.2658 139.728V139.525L82.3547 138.651L84.8247 113.126L85.9066 101.957L86.287 97.9504L86.4154 96.6562H86.4846C87.6287 96.3379 88.838 96.3379 89.9821 96.6562C90.2372 96.7335 90.4851 96.8327 90.7231 96.9526C92.2051 97.6886 93.1931 99.1212 94.0131 100.628C94.2147 100.995 94.3961 101.372 94.5565 101.759C95.1656 103.223 95.6354 104.742 95.9595 106.294C96.6066 109.159 97.4415 112.089 97.7725 116.708C97.8246 117.896 97.7617 119.088 97.5848 120.264C97.3622 123.378 97.3242 126.502 97.4711 129.621C97.8861 136.685 99.6645 139.886 102.218 156.173Z" fill="#E0E0E0"/>
<path d="M98.5925 158.263L84.5432 166.369L82.6264 167.466L79.3907 169.333L77.1628 170.618L63.6371 178.423C63.7803 172.989 63.8446 167.095 63.7161 161.528C63.6766 159.666 63.6618 157.764 63.7408 155.817C63.9977 149.059 65.2821 141.812 69.8862 134.185L70.0986 133.8C70.642 137.026 75.582 139.12 80.028 139.614L80.522 139.659C81.0802 139.713 81.6582 139.738 82.2559 139.738H82.6314C86.3907 139.703 90.8417 138.819 95.9694 137.085C96.4634 139.95 96.9574 143.709 97.486 148.106C97.7231 150.082 97.9635 152.188 98.2072 154.424C98.306 155.674 98.4591 156.954 98.5925 158.263Z" fill="#FFA8A7"/>
<path d="M99.6645 157.645L98.5925 158.263L84.5432 166.369L82.6264 167.466L79.3908 169.333L77.1628 170.618L63.6371 178.423L62.1551 179.278C62.2292 173.429 62.2786 167.698 62.2736 164.102C62.2736 160.758 62.3478 157.784 62.5305 155.146C62.8912 149.939 63.642 146.022 64.8968 143.058C66.369 139.813 68.1107 136.699 70.1036 133.746C70.1036 133.746 71.3386 137.915 80.5764 138.572H80.6356C81.179 138.612 81.7521 138.636 82.3548 138.646H83.0562C94.5566 138.646 95.8261 135.746 95.8261 135.746C96.9496 140.01 97.8385 144.333 98.4888 148.694C98.7325 150.235 98.968 151.882 99.1952 153.634C99.3632 154.918 99.5212 156.252 99.6645 157.645Z" fill="#AB0000"/>
<path opacity="0.4" d="M99.6645 157.645L98.5925 158.263L84.5432 166.369L82.6264 167.466L79.3908 169.333L77.1628 170.618L63.6371 178.423L62.1551 179.278C62.2292 173.429 62.2786 167.698 62.2736 164.102C62.2736 160.758 62.3478 157.784 62.5305 155.146C62.8912 149.939 63.642 146.022 64.8968 143.058C66.369 139.813 68.1107 136.699 70.1036 133.746C70.1036 133.746 71.3386 137.915 80.5764 138.572H80.6356C81.179 138.612 81.7521 138.636 82.3548 138.646H83.0562C94.5566 138.646 95.8261 135.746 95.8261 135.746C96.9496 140.01 97.8385 144.333 98.4888 148.694C98.7325 150.235 98.968 151.882 99.1952 153.634C99.3632 154.918 99.5212 156.252 99.6645 157.645Z" fill="black"/>
<path opacity="0.2" d="M93.0696 151.09C93.0696 151.09 91.7852 155.17 86.3809 157.457L86.124 158.707L84.5432 166.369L82.6265 167.466L83.7725 159.014L84.2665 155.338C87.6065 154.992 90.7203 153.489 93.0696 151.09Z" fill="black"/>
<path d="M76.6342 97.8369L71.2002 98.41C67.6039 99.2893 65.9786 100.88 65.6081 104.056C65.4352 105.538 64.5411 109.49 65.7959 114.43C66.9321 118.916 69.9652 129.893 69.9652 129.893C69.9652 129.893 62.985 139.002 61.7204 154.622C74.4952 162.961 94.0922 158.48 99.3928 153.442C98.9482 148.67 95.9002 135.574 95.5198 131.32C95.5198 131.32 95.8014 124.676 96.33 121.796C100.371 117.384 99.8572 113.166 98.0442 109.762C94.6949 103.478 89.6462 97.9555 88.011 97.9604L76.6342 97.8369Z" fill="#AB0000"/>
<path opacity="0.7" d="M76.6342 97.8369L71.2002 98.41C67.6039 99.2893 65.9786 100.88 65.6081 104.056C65.4352 105.538 64.5411 109.49 65.7959 114.43C66.9321 118.916 69.9652 129.893 69.9652 129.893C69.9652 129.893 62.985 139.002 61.7204 154.622C74.4952 162.961 94.0922 158.48 99.3928 153.442C98.9482 148.67 95.9002 135.574 95.5198 131.32C95.5198 131.32 95.8014 124.676 96.33 121.796C100.371 117.384 99.8572 113.166 98.0442 109.762C94.6949 103.478 89.6462 97.9555 88.011 97.9604L76.6342 97.8369Z" fill="white"/>
<path d="M81.3421 131.849C81.3421 131.947 81.3421 132.036 81.3421 132.11V132.239C81.3452 132.28 81.3452 132.321 81.3421 132.362C81.1543 134.338 80.932 136.438 80.6949 138.577C80.6949 138.577 80.6949 138.577 80.6949 138.607C80.6603 138.952 80.6208 139.298 80.5813 139.649C79.8551 146.096 78.9906 152.987 78.3237 159.261C78.1607 160.782 78.0125 162.264 77.8791 163.707C77.6716 165.866 77.4493 168.232 77.2221 170.623L63.6964 178.428L62.2144 179.283L58.4353 181.461C59.196 173.977 60.9695 156.638 61.9575 148.813C62.0711 147.928 62.2193 147.044 62.3873 146.165L62.5207 145.523L62.5799 145.261C62.6442 144.964 62.7084 144.678 62.7775 144.386C62.8467 144.095 62.9109 143.848 62.9751 143.586C63.1283 142.988 63.2913 142.401 63.4691 141.827C63.5531 141.551 63.6322 141.274 63.7211 141.002C63.81 140.731 63.8841 140.459 63.973 140.192C64.1509 139.659 64.3238 139.135 64.5065 138.626C64.5044 138.617 64.5044 138.606 64.5065 138.597C64.5905 138.355 64.6794 138.103 64.7684 137.875C64.8869 137.54 65.0104 137.214 65.1339 136.887L65.2821 136.497C65.3562 136.319 65.4204 136.146 65.4896 135.974C65.7317 135.366 65.9836 134.788 66.2059 134.25C66.2553 134.131 66.3096 134.012 66.359 133.899C66.4084 133.785 66.4875 133.617 66.5468 133.479C66.695 133.133 66.8432 132.812 66.9864 132.491C67.0457 132.353 67.1099 132.219 67.1692 132.091C67.2285 131.962 67.3125 131.794 67.3767 131.656L67.4705 131.458L67.5693 131.266C67.5758 131.24 67.5876 131.217 67.6039 131.197C67.6174 131.161 67.6339 131.126 67.6533 131.093C67.6653 131.071 67.6752 131.048 67.6829 131.024C67.7241 130.954 67.7604 130.881 67.7916 130.806L68.1226 130.164C68.1226 130.13 68.1572 130.105 68.1671 130.075L68.2955 129.838L64.1854 112.795L62.1403 104.328V104.19C62.2341 103.439 62.8615 99.8967 66.4776 98.8198C68.5191 98.2928 70.6103 97.9816 72.7168 97.8911C73.527 97.8417 74.2581 97.8219 74.8558 97.8071H75.7994H76.3675C76.3688 97.8186 76.3688 97.8302 76.3675 97.8417C76.3971 97.9158 76.4811 98.1381 76.6095 98.4839C76.6234 98.5418 76.6433 98.5981 76.6688 98.6519C76.6693 98.6601 76.6693 98.6683 76.6688 98.6766C77.558 101.117 80.0527 108.221 81.2927 114.391C81.51 115.458 81.6879 116.5 81.8163 117.488C82.1868 120.576 81.9151 125.743 81.3421 131.849Z" fill="#FAFAFA"/>
<path d="M68.4289 121.677C68.4289 121.677 68.9229 119.242 69.6491 113.981C70.4938 107.914 70.1925 104.916 69.2786 102.999L64.1261 112.825L68.2362 129.868C68.2362 129.868 64.0125 137.604 62.3082 146.17C66.3491 134.753 70.7704 131.35 70.7704 131.35L68.4289 121.677Z" fill="#E6E6E6"/>
<path d="M86.4797 94.0332C88.0802 94.0332 88.268 94.3 89.6462 96.1475C90.4663 97.2491 95.6582 105.82 95.6582 105.82C95.6582 105.82 91.5284 100.386 88.4112 98.7361C87.8111 98.3844 87.1617 98.1246 86.4846 97.9654L86.4797 94.0332Z" fill="#EBEBEB"/>
<path d="M74.6434 112.247C74.6434 111.753 74.594 110.686 74.51 109.342C74.1 102.752 73.9024 96.8241 76.1254 96.3301L76.3181 97.239C74.6978 97.5898 75.2313 106.072 75.4338 109.263C75.5227 110.636 75.5919 111.733 75.5672 112.267L74.6434 112.247Z" fill="#AB0000"/>
<path d="M67.2334 69.1005L70.6914 71.9312C70.8794 71.716 71.0215 71.4647 71.109 71.1927C71.1965 70.9207 71.2275 70.6337 71.2003 70.3493C71.173 70.0649 71.0879 69.789 70.9503 69.5386C70.8127 69.2882 70.6254 69.0686 70.4 68.8931C69.9453 68.5171 69.3642 68.3292 68.7755 68.3677C68.1868 68.4063 67.6351 68.6685 67.2334 69.1005Z" fill="#263238"/>
<path d="M76.2637 94.4529C76.2637 92.2842 71.2101 89.0189 68.6018 84.4592C65.9935 79.8996 67.2976 72.4007 70.8742 71.2497C70.9038 71.2497 71.0026 70.2864 71.0175 70.2172C71.2152 69.3472 71.5486 68.5136 72.0055 67.7472C73.4628 65.2377 76.5503 63.3012 79.4155 62.8961C90.7429 61.2462 95.9496 65.6477 98.0294 70.4889C98.7035 72.1175 99.004 73.8764 98.9087 75.6364C98.8504 76.929 98.3708 78.1671 97.5431 79.1616C96.7153 80.1561 95.5849 80.8525 94.3244 81.1445L76.2637 94.4529Z" fill="#263238"/>
<path d="M91.9779 68.8687C94.1959 69.8567 96.3053 73.2307 96.2707 82.7254C96.2411 90.7776 93.7711 92.8128 92.5262 93.4106C91.2813 94.0083 88.8459 93.702 86.4796 93.3414V97.9652C86.4796 97.9652 88.2531 99.7091 87.6307 100.806C87.0082 101.902 84.7111 102.831 81.1395 101.71C77.0936 100.44 76.1699 97.7578 76.1699 97.7578L76.076 87.611C76.076 87.611 74.7175 89.0387 72.3216 86.9441C70.3456 85.2102 69.6342 82.2412 71.1212 80.611C72.6081 78.9808 74.515 78.8524 76.2341 80.6752L77.4691 80.0232C79.6723 79.7663 82.9031 79.3958 85.2842 78.1954C91.39 75.0881 92.0223 71.719 91.9779 68.8687Z" fill="#FFA8A7"/>
<path d="M76.2687 79.3613L76.2983 83.8073C76.5838 83.8149 76.8679 83.764 77.133 83.6577C77.3981 83.5515 77.6387 83.3921 77.84 83.1895C78.0413 82.9868 78.1989 82.7452 78.3034 82.4793C78.4078 82.2135 78.4567 81.9291 78.4472 81.6436C78.4419 81.0577 78.2137 80.4957 77.8091 80.0718C77.4045 79.6479 76.8538 79.3939 76.2687 79.3613Z" fill="#263238"/>
<path d="M92.1854 79.9937C92.1874 80.2026 92.2508 80.4063 92.3676 80.5795C92.4843 80.7527 92.6494 80.8879 92.8422 80.9682C93.0351 81.0485 93.2473 81.0704 93.4525 81.0312C93.6577 80.992 93.8468 80.8935 93.9965 80.7478C94.1463 80.6021 94.2499 80.4156 94.2946 80.2116C94.3394 80.0075 94.3232 79.7948 94.2482 79.5999C94.1732 79.4049 94.0426 79.2362 93.8726 79.1148C93.7026 78.9934 93.5007 78.9245 93.2919 78.9168C93.1482 78.9135 93.0053 78.9389 92.8715 78.9915C92.7377 79.0441 92.6157 79.1228 92.5127 79.2231C92.4097 79.3233 92.3276 79.4431 92.2714 79.5754C92.2152 79.7078 92.186 79.8499 92.1854 79.9937Z" fill="black"/>
<path d="M83.6639 80.4678C83.6552 80.6209 83.6768 80.7743 83.7275 80.9191C83.7782 81.0638 83.857 81.1972 83.9594 81.3114C84.0617 81.4257 84.1856 81.5187 84.3239 81.585C84.4622 81.6513 84.6123 81.6896 84.7655 81.6978C84.9209 81.6991 85.0751 81.6697 85.2192 81.6113C85.3633 81.5528 85.4943 81.4665 85.605 81.3573C85.7156 81.248 85.8035 81.118 85.8638 80.9747C85.924 80.8314 85.9554 80.6776 85.956 80.5221C85.9609 80.3716 85.936 80.2216 85.8829 80.0807C85.8298 79.9398 85.7495 79.8107 85.6465 79.7009C85.5435 79.591 85.4199 79.5025 85.2827 79.4404C85.1456 79.3783 84.9975 79.3438 84.847 79.339C84.6965 79.3341 84.5465 79.3589 84.4056 79.412C84.2647 79.4651 84.1356 79.5455 84.0257 79.6485C83.9159 79.7514 83.8274 79.8751 83.7653 80.0122C83.7032 80.1494 83.6687 80.2975 83.6639 80.448V80.4678Z" fill="black"/>
<path d="M95.011 78.0026L92.2595 76.9109C92.3231 76.7258 92.4243 76.5558 92.5566 76.4115C92.689 76.2673 92.8497 76.1519 93.0286 76.0726C93.2076 75.9933 93.401 75.9518 93.5968 75.9507C93.7925 75.9496 93.9864 75.9889 94.1663 76.0661C94.5289 76.2187 94.8188 76.5049 94.9761 76.8654C95.1333 77.2259 95.1459 77.6331 95.011 78.0026Z" fill="black"/>
<path d="M89.577 79.124L89.4387 85.714L92.9807 84.9285L89.577 79.124Z" fill="#F28F8F"/>
<path d="M85.4027 87.0576L88.8607 88.1296C88.8104 88.3653 88.7122 88.5882 88.5722 88.7844C88.4321 88.9806 88.2532 89.1459 88.0466 89.27C87.84 89.3942 87.6101 89.4745 87.3711 89.5061C87.1322 89.5377 86.8893 89.5198 86.6575 89.4535C86.183 89.2885 85.7891 88.9489 85.556 88.5039C85.3229 88.0588 85.2681 87.5417 85.4027 87.0576Z" fill="#B16668"/>
<path d="M87.3145 89.513C87.3106 89.0321 87.1168 88.5723 86.7754 88.2336C86.434 87.895 85.9725 87.7049 85.4916 87.7049C85.4439 87.7025 85.3961 87.7025 85.3484 87.7049C85.3661 88.0909 85.4995 88.4627 85.7312 88.7719C85.9628 89.0811 86.2821 89.3135 86.6476 89.4389C86.8623 89.5097 87.0895 89.5349 87.3145 89.513Z" fill="#F28F8F"/>
<path d="M86.4797 93.366C83.985 93.0696 78.8424 91.637 78.0076 89.5474C78.3421 90.5963 78.984 91.5205 79.8502 92.2001C81.4013 93.5339 86.4797 94.9221 86.4797 94.9221V93.366Z" fill="#F28F8F"/>
<path d="M76.1452 94.0579C75.4931 93.9245 74.9151 94.211 74.3816 95.1101C73.8481 96.0092 72.6773 97.9259 72.6773 97.9259C72.6773 97.9259 72.0697 104.244 72.6773 105.83C73.2009 107.193 78.9758 112.306 78.9758 112.306C78.9758 112.306 77.4691 117.982 77.4147 119.845C77.3604 121.707 80.8727 128.776 81.2976 132.392C81.2976 132.392 82.5474 121.03 82.0089 116.935C81.0802 109.836 77.7507 100.668 76.1797 97.753L76.1452 94.0579Z" fill="#EBEBEB"/>
<path d="M79.6773 117.572C79.2919 116.655 78.8377 115.768 78.3188 114.919C77.4987 113.561 76.486 112.256 75.5721 111.92C75.4336 111.865 75.2864 111.835 75.1374 111.832H75.088C74.9376 111.84 74.7901 111.877 74.6533 111.94C73.9321 112.261 73.1713 113.244 72.5538 114.376C71.9214 115.512 71.4003 116.706 70.9977 117.942C70.7606 118.708 70.8643 120.333 71.1459 122.191C71.6992 125.797 72.9292 130.302 73.6159 131.191C74.1192 131.813 74.7138 132.354 75.3795 132.797C74.9719 133.067 74.5321 133.284 74.0704 133.444C73.8092 133.539 73.5333 133.588 73.2553 133.587V134.234H73.3343C73.628 134.23 73.9193 134.182 74.1988 134.091C74.8463 133.881 75.4578 133.573 76.0118 133.177C76.5966 133.525 77.2314 133.782 77.8939 133.938C78.2059 134.013 78.5285 134.033 78.8474 133.997L78.7683 133.355C78.4917 133.379 78.213 133.357 77.9433 133.291C77.4681 133.167 77.0101 132.984 76.5799 132.748C77.2068 132.248 77.7562 131.659 78.2101 130.999C78.5954 130.411 79.0697 128.385 79.4253 126.059C79.6427 124.671 79.8205 123.179 79.9193 121.82C80.028 119.923 79.9786 118.298 79.6773 117.572ZM77.6371 130.643C77.1736 131.312 76.6047 131.901 75.9525 132.387C75.2597 131.959 74.6422 131.42 74.1247 130.791C73.4825 129.956 72.2969 125.56 71.7634 122.092C71.4917 120.338 71.3929 118.822 71.6103 118.14C72.0131 116.889 72.5463 115.683 73.2009 114.544C73.8827 113.368 74.6088 112.503 75.1127 112.484C75.7105 112.484 76.6787 113.565 77.5827 114.954C77.7655 115.225 77.9384 115.522 78.1064 115.818C78.4749 116.456 78.8048 117.116 79.0944 117.794C79.3661 118.466 79.3957 119.983 79.2722 121.746C79.203 122.734 79.0944 123.767 78.956 124.794C78.5806 127.477 78.052 129.991 77.6371 130.628V130.643Z" fill="#455A64"/>
<path d="M79.7316 133.617C79.7393 133.806 79.6909 133.992 79.5924 134.153C79.494 134.314 79.35 134.443 79.1786 134.522C79.0073 134.601 78.8164 134.627 78.63 134.598C78.4436 134.568 78.2701 134.484 78.1316 134.356C77.993 134.228 77.8956 134.061 77.8517 133.878C77.8078 133.694 77.8194 133.502 77.8849 133.325C77.9504 133.148 78.067 132.994 78.2199 132.884C78.3728 132.773 78.555 132.71 78.7436 132.703C78.9957 132.694 79.2412 132.785 79.4264 132.956C79.6116 133.127 79.7213 133.365 79.7316 133.617Z" fill="#263238"/>
<path d="M74.1939 133.874C74.2026 134.063 74.155 134.25 74.0572 134.412C73.9594 134.573 73.8157 134.702 73.6445 134.782C73.4733 134.862 73.2823 134.889 73.0956 134.86C72.9089 134.831 72.735 134.748 72.596 134.62C72.4569 134.492 72.359 134.325 72.3147 134.142C72.2703 133.958 72.2816 133.765 72.3469 133.588C72.4123 133.411 72.5288 133.257 72.6817 133.146C72.8347 133.035 73.0171 132.972 73.2059 132.965C73.3305 132.96 73.4549 132.979 73.572 133.022C73.6891 133.065 73.7966 133.13 73.8884 133.215C73.9801 133.299 74.0544 133.401 74.1068 133.514C74.1592 133.627 74.1888 133.75 74.1939 133.874Z" fill="#263238"/>
<path d="M79.8403 121.81L79.292 121.771C79.2361 121.766 79.1843 121.739 79.1474 121.697C79.1106 121.655 79.0916 121.6 79.0944 121.544C79.208 119.731 79.1487 118.397 78.9264 117.863C77.9681 115.522 75.9624 112.587 75.1177 112.622C74.2729 112.657 72.5242 115.754 71.7634 118.165C71.5905 118.718 71.6448 120.052 71.9067 121.85C71.9153 121.905 71.902 121.961 71.8697 122.006C71.8373 122.052 71.7885 122.082 71.7338 122.092L71.1904 122.176C71.1334 122.183 71.076 122.167 71.0307 122.132C70.9853 122.097 70.9557 122.045 70.9483 121.988C70.647 119.973 70.6124 118.59 70.8396 117.873C71.2447 116.579 73.1565 111.733 75.0781 111.654C76.9998 111.575 79.3167 116.238 79.8304 117.498C80.112 118.189 80.196 119.573 80.0676 121.603C80.0637 121.66 80.038 121.714 79.9956 121.752C79.9533 121.791 79.8976 121.812 79.8403 121.81Z" fill="#AB0000"/>
<path d="M67.9942 98.7555C64.3781 98.6962 62.7084 99.9164 60.4162 102.984C58.5983 105.42 51.5242 118.58 49.1777 122.423L36.4029 115.596C33.8193 113.813 32.9844 110.997 31.3493 109.352C29.7141 107.707 28.0197 107.376 26.2215 106.017C24.4234 104.659 23.6923 103.602 23.1736 104.871C22.6549 106.141 24.6556 108.196 25.0359 108.705C25.4163 109.213 27.422 110.345 24.8186 110.384C22.2152 110.424 17.0628 107.727 15.808 107.247C14.5533 106.768 14.6274 108.265 15.2449 109.223C15.8624 110.182 15.8327 112.889 16.8751 114.455C17.9767 116.115 18.5794 116.836 21.0345 117.913C23.3168 118.901 28.1086 119.296 30.5342 120.813C32.9597 122.329 38.9717 127.674 42.6273 130.88C47.2758 134.956 50.4819 135.702 53.0704 133.256C55.5849 130.623 58.1339 127.536 59.3788 125.97C62.7331 121.746 68.0386 112.138 68.0386 112.138C68.0386 112.138 70.3357 107.198 67.9942 98.7555Z" fill="#FFA8A7"/>
<path d="M68.4931 98.395C63.1678 98.395 61.5771 100.322 58.8502 104.773C56.1234 109.224 49.1283 121.964 49.1283 121.964L39.0557 116.688C39.0557 116.688 37.2427 120.679 35.3161 124.794C35.3161 124.794 41.0168 129.734 43.7141 132.071C46.4113 134.408 49.9879 136.24 53.3026 133.38C56.8446 130.327 68.3301 114.465 68.3301 114.465C71.057 109.515 70.4493 102.011 68.4931 98.395Z" fill="#F0F0F0"/>
<path d="M49.1283 121.964C50.7733 123.9 52.7642 126.079 52.6752 127.793C52.6752 127.793 53.8016 126.271 49.8446 120.665L49.1283 121.964Z" fill="#E0E0E0"/>
<path d="M30.0747 74.4557L25.9548 76.8171L25.9696 72.0845L22.887 70.3062L15.6993 74.4557V82.755L8.51163 86.9045V95.2037L11.5942 96.9822L15.6993 94.611V99.3583L18.7819 101.137L25.9696 96.9822V88.683L33.1573 84.5333V76.2342L30.0747 74.4557Z" fill="#AB0000"/>
<path d="M11.5942 88.6829V96.9821L18.7819 92.8325V101.137L25.9696 96.9821V88.6829L33.1573 84.5333V76.2341L25.9449 80.3985L25.9696 72.0845L18.7819 76.2341V84.5333L11.5942 88.6829Z" fill="#AB0000"/>
<g opacity="0.2">
<path d="M11.5942 96.9819L8.51163 95.2035V86.9043L11.5942 88.6827V96.9819Z" fill="black"/>
<path d="M18.7819 76.234L15.6993 74.4556V82.7548L18.7819 84.5332V76.234Z" fill="black"/>
<path d="M18.7819 101.137L15.6993 99.3583V94.6109L18.7819 92.8325V101.137Z" fill="black"/>
</g>
<g opacity="0.5">
<path d="M18.7819 84.5333L15.6993 82.7549L8.51163 86.9045L11.5942 88.6829L18.7819 84.5333Z" fill="white"/>
<path d="M25.9696 72.0845L22.887 70.3062L15.6993 74.4557L18.7819 76.2342L25.9696 72.0845Z" fill="white"/>
<path d="M33.1573 76.234L30.0747 74.4556L25.9548 76.8169L25.9449 80.3984L33.1573 76.234Z" fill="white"/>
</g>
<path d="M148.299 57.7981C148.168 57.685 148.028 57.5841 147.879 57.4967C147.355 57.1855 144.984 55.8221 144.861 55.748C143.606 54.9477 141.62 55.1255 139.851 56.0197C137.317 57.2991 135.208 60.0013 133.597 64.5017C133.597 64.5017 131.967 63.3309 131.439 63.0196C130.129 62.3033 128.598 62.6491 126.874 63.7705C124.933 65.0352 123.609 66.6753 122.398 69.1551V69.1996C121.35 71.3053 120.776 73.6157 120.719 75.9674C120.719 81.1692 122.848 83.6491 125.619 85.5115C126.41 86.045 128.499 87.1664 128.707 87.3047C130.379 88.409 132.229 89.2177 134.175 89.6957L136.907 90.3329L139.639 86.5439C141.628 83.7502 143.454 80.8439 145.108 77.8397C147.879 72.7762 150.048 67.8164 150.008 62.6343C149.969 60.4163 149.331 58.7861 148.299 57.7981Z" fill="#AB0000"/>
<path opacity="0.3" d="M148.299 57.7981C148.168 57.685 148.028 57.5841 147.879 57.4967C147.355 57.1855 144.984 55.8221 144.861 55.748C143.606 54.9477 141.62 55.1255 139.851 56.0197C137.317 57.2991 135.208 60.0013 133.597 64.5017C133.597 64.5017 131.967 63.3309 131.439 63.0196C130.129 62.3033 128.598 62.6491 126.874 63.7705C124.933 65.0352 123.609 66.6753 122.398 69.1551V69.1996C121.35 71.3053 120.776 73.6157 120.719 75.9674C120.719 81.1692 122.848 83.6491 125.619 85.5115C126.41 86.045 128.499 87.1664 128.707 87.3047C130.379 88.409 132.229 89.2177 134.175 89.6957L136.907 90.3329L139.639 86.5439C141.628 83.7502 143.454 80.8439 145.108 77.8397C147.879 72.7762 150.048 67.8164 150.008 62.6343C149.969 60.4163 149.331 58.7861 148.299 57.7981Z" fill="black"/>
<path d="M148.299 57.7981C148.168 57.685 148.028 57.5841 147.879 57.4967C147.355 57.1855 144.984 55.8221 144.861 55.748C143.606 54.9477 141.62 55.1255 139.851 56.0197C137.317 57.2991 135.208 60.0013 133.597 64.5017C133.597 64.5017 131.967 63.3309 131.439 63.0196C130.129 62.3033 128.598 62.6491 126.874 63.7705C124.933 65.0352 123.609 66.6753 122.398 69.1551V69.1996C122.344 69.3083 122.3 69.417 122.25 69.5256L142.998 81.4903C143.734 80.2948 144.451 79.0845 145.132 77.8397C147.904 72.7762 150.072 67.8164 150.033 62.6343C149.969 60.4163 149.331 58.7861 148.299 57.7981Z" fill="#AB0000"/>
<path opacity="0.15" d="M148.299 57.7981C148.168 57.685 148.028 57.5841 147.879 57.4967C147.355 57.1855 144.984 55.8221 144.861 55.748C143.606 54.9477 141.62 55.1255 139.851 56.0197C137.317 57.2991 135.208 60.0013 133.597 64.5017C133.597 64.5017 131.967 63.3309 131.439 63.0196C130.129 62.3033 128.598 62.6491 126.874 63.7705C124.933 65.0352 123.609 66.6753 122.398 69.1551V69.1996C122.344 69.3083 122.3 69.417 122.25 69.5256L142.998 81.4903C143.734 80.2948 144.451 79.0845 145.132 77.8397C147.904 72.7762 150.072 67.8164 150.033 62.6343C149.969 60.4163 149.331 58.7861 148.299 57.7981Z" fill="black"/>
<path d="M133.583 64.4819L136.359 68.1029L140.834 62.8072L135.776 59.8877C134.875 61.3321 134.139 62.8732 133.583 64.4819Z" fill="#AB0000"/>
<path opacity="0.3" d="M133.583 64.4819L136.359 68.1029L140.834 62.8072L135.776 59.8877C134.875 61.3321 134.139 62.8732 133.583 64.4819Z" fill="black"/>
<path d="M148.299 57.7981C147.089 56.7162 144.885 56.8101 142.939 57.7981C140.286 59.1418 138.093 62.0415 136.453 66.9519C134.813 63.9385 132.619 63.8446 129.966 65.5687C128.02 66.8333 126.696 68.4734 125.491 70.9533L125.466 70.9978C124.421 73.1063 123.85 75.4179 123.791 77.7705C123.791 82.9723 125.926 85.4522 128.692 87.3146C130.364 88.4189 132.214 89.2276 134.161 89.7055L136.892 90.3428L139.624 86.5538C141.613 83.7601 143.439 80.8538 145.093 77.8495C147.864 72.786 150.033 67.8263 149.993 62.6442C149.969 60.4163 149.331 58.7861 148.299 57.7981Z" fill="#AB0000"/>
<g opacity="0.07">
<path d="M145.967 57.3043C146.729 57.2695 147.477 57.5097 148.076 57.9811C148.087 58.0024 148.102 58.021 148.121 58.0354C149.139 58.9641 149.707 60.6141 149.712 62.6691C149.712 68.0784 147.242 73.3297 144.846 77.746C143.204 80.7405 141.39 83.637 139.412 86.4207L136.789 90.0713L134.235 89.4736C132.317 89.0026 130.494 88.2073 128.845 87.1221C126.375 85.4425 124.043 83.1701 124.063 77.7954C124.116 75.4841 124.67 73.2119 125.688 71.1363V71.0918C126.904 68.5971 128.213 67.0213 130.07 65.8159C130.933 65.176 131.962 64.7986 133.034 64.7291C134.289 64.7291 135.321 65.5047 136.191 67.1003C136.212 67.1431 136.246 67.1788 136.287 67.2032C136.328 67.2277 136.375 67.24 136.423 67.2386H136.448C136.499 67.2339 136.547 67.2146 136.587 67.1831C136.628 67.1516 136.658 67.1091 136.675 67.0608C138.241 62.3727 140.321 59.4285 143.028 58.0601C143.932 57.5867 144.932 57.328 145.952 57.3043M145.952 57.0425C144.891 57.0644 143.85 57.3315 142.909 57.823C140.256 59.1667 138.063 62.0665 136.423 66.9768C135.475 65.2281 134.338 64.4624 133.034 64.4624C131.915 64.536 130.84 64.9285 129.937 65.5936C127.99 66.8583 126.667 68.4983 125.461 70.9782L125.436 71.0227C124.391 73.1313 123.82 75.4428 123.762 77.7954C123.762 82.9972 125.896 85.4771 128.662 87.3395C130.335 88.4438 132.185 89.2525 134.131 89.7305L136.863 90.3677L139.595 86.5787C141.583 83.785 143.409 80.8787 145.063 77.8745C147.834 72.811 150.003 67.8512 149.964 62.6691C149.964 60.4412 149.316 58.7863 148.284 57.8378C147.632 57.3067 146.807 57.0341 145.967 57.0721L145.952 57.0425Z" fill="black"/>
</g>
<path d="M147.997 71.8032L142.682 74.8758L140.706 67.6881C140.678 67.5794 140.614 67.4835 140.524 67.4162C140.434 67.3488 140.324 67.3141 140.212 67.3176C140.096 67.3153 139.984 67.3536 139.893 67.4258C139.803 67.498 139.741 67.5996 139.718 67.7128L136.64 81.7721L134.052 74.6881C134.047 74.5571 133.99 74.4335 133.893 74.3446C133.797 74.2556 133.669 74.2086 133.538 74.2139C133.407 74.2191 133.283 74.2762 133.195 74.3725C133.106 74.4689 133.059 74.5966 133.064 74.7276L131.315 80.9372L125.466 84.3162C125.659 84.5959 125.866 84.8647 126.089 85.1214L132.017 81.7078C132.131 81.6414 132.216 81.5336 132.254 81.4065L133.632 76.506L136.285 83.7481C136.32 83.8494 136.387 83.9365 136.476 83.9962C136.565 84.0559 136.672 84.085 136.779 84.079C136.888 84.0736 136.993 84.0317 137.076 83.9602C137.159 83.8886 137.216 83.7914 137.238 83.6838L140.252 69.9408L141.842 75.7749C141.861 75.85 141.897 75.9195 141.948 75.978C141.999 76.0365 142.063 76.0822 142.134 76.1115C142.206 76.1409 142.283 76.1529 142.36 76.1468C142.438 76.1407 142.512 76.1165 142.578 76.0762L147.301 73.3543C147.573 72.8356 147.79 72.3219 147.997 71.8032Z" fill="white"/>
<path d="M170.307 203.918C170.104 204.588 170.087 205.3 170.257 205.978C170.455 206.393 171.69 207.757 174.209 208.251C176.728 208.745 180.191 208.251 181.683 208.162C183.175 208.073 187.858 208.656 189.345 208.844C191.687 209.16 193.485 208.646 194.359 207.801C194.501 207.631 194.605 207.434 194.666 207.221C194.726 207.008 194.741 206.785 194.71 206.566C194.705 206.003 194.622 205.442 194.463 204.902L170.307 203.918Z" fill="#263238"/>
<path d="M194.078 202.451C194.122 202.644 194.167 202.842 194.206 203.039C194.434 204.033 194.506 205.056 194.419 206.072C194.117 206.813 193.292 207.223 192.625 207.431C190.862 207.994 189.523 207.925 187.572 207.535C185.609 207.249 183.627 207.126 181.644 207.169C180.107 207.273 177.993 207.569 176.457 207.426C175.15 207.371 173.861 207.108 172.638 206.645C171.616 206.211 170.568 205.657 170.316 204.59C170.015 202.367 170.949 201.389 172.001 200.767C173.053 200.144 174.55 200.194 176.151 200.09C177.598 199.991 178.655 199.991 179.944 199.892C181.059 199.838 182.167 199.684 183.254 199.433C184.242 199.127 185.23 197.887 185.635 197.842C185.635 197.842 192.082 197.793 192.695 197.842C193.406 197.902 193.623 200.105 193.712 200.584C193.781 200.959 193.796 201.364 193.895 201.725C193.959 201.967 194.019 202.209 194.078 202.451Z" fill="#37474F"/>
<path d="M174.214 207.13C174.012 205.529 173.72 202.061 176.684 200.056H177.055C175.723 199.67 174.31 199.67 172.979 200.056C170.623 200.683 169.575 202.59 170.163 204.605C170.173 204.585 170.697 206.537 174.214 207.13Z" fill="#FAFAFA"/>
<path d="M182.815 199.547C181.861 200.391 181.53 202.313 181.53 202.313C181.407 203.034 180.103 203.143 180.226 202.446C180.425 201.489 180.809 200.579 181.357 199.769C181.804 199.533 182.318 199.455 182.815 199.547Z" fill="#FAFAFA"/>
<path d="M180.142 199.878C179.423 200.582 178.953 201.501 178.803 202.496C178.67 203.187 177.583 203.178 177.662 202.496C177.662 202.496 177.786 200.792 178.803 199.996C179 199.87 179.225 199.793 179.458 199.773C179.691 199.752 179.926 199.788 180.142 199.878Z" fill="#FAFAFA"/>
<path d="M192.892 193.154C192.892 193.154 192.719 197.299 192.492 198.657C192.354 199.468 191.292 200.317 188.649 200.228C186.791 200.164 185.329 200.317 185.403 198.865L185.566 194.631L192.892 193.154Z" fill="#FFA8A7"/>
<path d="M197.037 183.363C196.943 184.495 196.79 185.517 197.254 186.762C197.916 188.55 199.319 189.37 200.144 190.072C201.012 190.932 201.813 191.856 202.54 192.838C203.35 193.826 203.563 194.414 204.778 195.491C205.383 195.957 206.1 196.258 206.856 196.365C207.613 196.471 208.385 196.38 209.095 196.099C210.148 195.649 210.513 195.293 210.449 193.678C210.385 192.063 205.237 191.514 205.237 191.514L197.037 183.363Z" fill="#263238"/>
<path d="M209.782 188.866C210.222 189.025 210.33 189.82 210.4 191.401C210.449 192.596 210.978 194.365 209.244 195.101C207.846 195.708 205.613 195.303 204.669 194.177C203.493 192.769 202.693 191.529 201.014 189.815C199.532 188.333 198.05 187.839 197.393 184.85C196.973 182.934 197.304 182.143 198.657 181.595C200.52 180.839 203.439 183.304 204.901 183.694C206.156 184.025 209.342 188.708 209.782 188.866Z" fill="#37474F"/>
<path d="M204.901 183.694L204.654 183.61C203.821 183.641 203.011 183.889 202.304 184.33C201.597 184.772 201.017 185.39 200.623 186.124C200.376 186.643 201.117 187.048 201.611 186.643C202.649 184.667 204.783 184.242 205.637 184.148C205.427 183.946 205.176 183.791 204.901 183.694Z" fill="#FAFAFA"/>
<path d="M206.102 184.593C205.32 184.667 204.568 184.933 203.915 185.368C203.261 185.804 202.726 186.395 202.357 187.088C202.11 187.582 202.876 188.012 203.345 187.582C203.698 186.964 204.181 186.43 204.761 186.018C205.341 185.606 206.005 185.325 206.704 185.196C206.492 184.998 206.294 184.786 206.102 184.593Z" fill="#FAFAFA"/>
<path d="M210.034 186.011L209.782 189.345C209.782 189.345 207.663 190.891 204.625 189.474C204.536 189.291 204.279 186.307 204.279 186.307L210.034 186.011Z" fill="#FFA8A7"/>
<path d="M198.247 187.048C198.247 187.048 198.39 183.506 203.424 183.017L203.716 183.17C203.143 182.282 202.264 181.635 201.246 181.352C199.576 180.923 198.252 181.352 197.373 182.41C196.493 183.467 197.378 186.362 198.247 187.048Z" fill="#FAFAFA"/>
<path d="M211.501 163.801C210.78 157.966 210.513 154.716 210.513 154.716C210.513 154.716 210.37 146.501 210.869 138.908C211.086 135.578 211.2 131.893 211.269 128.534C211.361 124.835 211.066 121.136 210.39 117.498C210.39 117.498 184.558 112.36 184.237 121.835C183.847 133.197 183.896 152.616 183.457 160.031C183.215 164.196 183.635 167.649 183.896 175.741C184.109 182.449 184.045 198.959 184.045 198.959C186.89 202.866 193.608 199.887 193.608 199.887C193.608 199.887 195.683 176.704 195.99 171.912C196.316 166.76 195.772 164.151 195.772 164.151L198.435 140.148C198.435 140.148 198.637 147.849 198.865 152.004C199.092 156.158 199.7 158.712 200.781 166.463C201.72 173.192 203.716 190.363 203.716 190.363C207.174 192.408 210.513 190.363 210.513 190.363C210.513 190.363 212.222 169.635 211.501 163.801Z" fill="#455A64"/>
<path d="M207.974 130.648C207.974 130.648 204.738 134.778 200.564 136.552C200.564 136.552 198.756 151.07 198.771 150.784L198.301 136.171C198.301 136.171 204.516 133.425 207.974 130.648Z" fill="#37474F"/>
<path d="M207.885 83.9803C210.666 83.3579 213.813 85.3438 215.908 89.775C217.933 94.0135 223.466 104.718 223.599 107.717C223.742 110.824 209.92 120.25 210.261 120.067C210.37 120.013 207.875 112.939 207.875 112.939L214.589 107.381L210.938 99.8624L207.885 83.9803Z" fill="#FFA8A7"/>
<path d="M206.423 83.3135C208.764 83.027 213.008 83.9112 214.628 86.727C216.98 90.8025 219.124 95.5153 221.855 101.606C221.855 101.606 219.83 105.993 214.001 106.408L210.508 100.282L206.423 83.3135Z" fill="#37474F"/>
<path d="M194.636 79.6431L195.041 88.2881L203.607 87.8287L203.345 77.7856L194.636 79.6431Z" fill="#FFA8A7"/>
<path d="M212.02 87.6656C211.299 85.3092 208.809 83.3678 205.662 83.2739C204.961 83.2739 203.488 83.2739 203.488 83.2739C203.133 84.7312 198.672 85.2499 194.858 84.3755C193.707 84.6818 188.93 85.8575 187.942 86.1539C185.201 87.0629 184.356 89.8589 183.931 98.8003C183.931 98.8003 184.015 116.426 183.931 124.839C188.752 127.383 196.202 127.067 201.503 126.529C209.831 125.689 211.071 122.67 211.071 122.67C210.721 117.765 210.933 115.917 211.071 111.076C211.175 107.435 212.222 103.587 212.553 99.4623C213.042 93.3318 212.509 89.2859 212.02 87.6656Z" fill="#AB0000"/>
<path d="M193.297 81.2828C191.321 81.1445 188.851 82.7203 188.214 86.0943L189.824 85.6646L193.297 81.2828Z" fill="#AB0000"/>
<path opacity="0.3" d="M193.297 81.2828C191.321 81.1445 188.851 82.7203 188.214 86.0943L189.824 85.6646L193.297 81.2828Z" fill="black"/>
<path d="M194.745 82.0042C196.227 82.4982 200.549 82.429 201.997 82.0042C203.444 81.5793 203.429 80.9371 203.429 80.9371V80.211C204.264 80.2086 205.079 80.462 205.766 80.9371C206.69 81.688 208.28 84.3951 208.236 85.6944C208.191 86.9936 205.415 90.4219 200.06 90.338C194.705 90.254 191.697 88.273 190.773 86.9689L189.844 85.6598C189.844 85.6598 191.114 83.0515 192.364 81.9548C193.004 81.3336 193.826 80.9323 194.71 80.8087L194.745 82.0042Z" fill="#AB0000"/>
<path opacity="0.2" d="M194.745 82.0042C196.227 82.4982 200.549 82.429 201.997 82.0042C203.444 81.5793 203.429 80.9371 203.429 80.9371V80.211C204.264 80.2086 205.079 80.462 205.766 80.9371C206.69 81.688 208.28 84.3951 208.236 85.6944C208.191 86.9936 205.415 90.4219 200.06 90.338C194.705 90.254 191.697 88.273 190.773 86.9689L189.844 85.6598C189.844 85.6598 191.114 83.0515 192.364 81.9548C193.004 81.3336 193.826 80.9323 194.71 80.8087L194.745 82.0042Z" fill="black"/>
<path d="M188.871 69.0415C188.871 69.0415 186.831 72.1389 187.063 72.4402C187.295 72.7416 188.797 73.0232 188.797 73.0232L188.871 69.0415Z" fill="#F28F8F"/>
<path d="M194.542 60.4659C190.412 61.3403 188.762 62.5506 188.505 69.6099C188.258 76.4765 189.123 78.739 190.022 79.6628C190.63 80.2852 194.014 80.3988 195.718 79.9246C197.852 79.3367 202.678 77.6275 204.936 74.1794C207.594 70.1187 208.29 64.6155 205.43 62.3579C201.443 59.1815 196.227 60.1102 194.542 60.4659Z" fill="#FFA8A7"/>
<path d="M190.022 79.6578C190.516 80.1518 192.882 80.3396 194.661 80.1222L194.636 79.0996C193.163 79.6432 191.583 79.8343 190.022 79.6578Z" fill="#F28F8F"/>
<path d="M187.957 63.1186C188.986 63.8562 190.262 64.1628 191.514 63.9732C191.489 64.5267 191.638 65.0741 191.939 65.5392C192.358 66.1733 192.994 66.6333 193.727 66.8334C193.275 67.7196 193.035 68.6988 193.026 69.6937C192.998 70.006 193.065 70.3193 193.218 70.5928C193.266 70.6921 193.34 70.776 193.433 70.8348C193.526 70.8935 193.634 70.9247 193.744 70.9247C193.854 70.9247 193.962 70.8935 194.055 70.8348C194.148 70.776 194.223 70.6921 194.27 70.5928C194.503 70.0672 194.794 69.57 195.14 69.1108C195.588 68.5749 196.217 68.2231 196.908 68.1228C199.502 67.8412 199.828 71.235 198.791 72.6429C197.091 74.9449 195.649 73.3839 195.649 73.3839C195.582 74.463 195.746 75.5439 196.13 76.5548C196.513 77.5657 197.107 78.4836 197.872 79.2477C199.715 79.7909 201.669 79.8403 203.538 79.3909C205.84 76.2244 207.287 74.6831 208.517 71.9513C211.116 66.1665 209.861 62.5356 207.85 61.0042C207.455 58.3416 205.356 57.1461 202.96 56.5978C199.383 55.7728 196.044 57.897 192.497 57.0918C191.915 56.9699 191.339 56.8182 190.773 56.6373C190.555 56.535 190.306 56.5191 190.076 56.5928C189.949 56.6773 189.85 56.7972 189.79 56.9377C189.73 57.0781 189.713 57.2331 189.74 57.3832C189.785 58.0649 190.477 58.8208 190.827 59.1863C190.053 59.2572 189.272 59.2122 188.51 59.0529C188.246 59.0034 187.975 59.0034 187.71 59.0529C187.42 59.1711 187.175 59.3782 187.01 59.6445C186.845 59.9108 186.768 60.2225 186.791 60.5349C186.794 61.0232 186.899 61.5053 187.1 61.9503C187.301 62.3953 187.593 62.7933 187.957 63.1186Z" fill="#263238"/>
<path d="M207.915 61.8639L210.385 60.3819C210.188 60.0543 209.87 59.8183 209.499 59.7256C209.128 59.633 208.736 59.6913 208.409 59.8879C208.081 60.0844 207.845 60.403 207.752 60.7736C207.66 61.1441 207.718 61.5363 207.915 61.8639Z" fill="#263238"/>
<path d="M175.726 100.776C175.166 98.5765 174.626 96.3732 174.105 94.1667C173.611 92.1363 172.851 89.7849 173.547 87.7101C173.943 86.804 174.44 85.9455 175.029 85.1512C175.539 84.3139 175.969 83.4307 176.314 82.5132C176.486 82.0686 176.645 81.6142 176.808 81.1646C176.971 80.7151 177.203 80.4582 177.094 80.0284C176.733 78.6205 174.916 80.4681 174.545 81.046C174.381 81.3494 174.189 81.6372 173.972 81.9056C173.735 82.1575 173.157 82.4737 172.88 82.1032C172.788 81.9546 172.737 81.7841 172.732 81.6092C172.544 79.4405 173.325 77.4991 173.972 75.4737C174.074 75.2078 174.136 74.9281 174.155 74.6438C174.167 74.5019 174.147 74.3591 174.099 74.2252C174.05 74.0914 173.973 73.9696 173.873 73.8682C173.712 73.7447 173.521 73.6659 173.32 73.6399C173.119 73.6138 172.914 73.6415 172.727 73.72C172.362 73.8435 172.045 74.0757 171.68 74.1893C171.314 74.3029 171.043 74.3029 170.721 74.3869C169.96 74.5567 169.226 74.8345 168.543 75.2119C167.357 75.9084 166.834 76.9261 166.522 78.2204C166.149 79.8101 166.022 81.448 166.147 83.0764C166.231 84.1582 166.424 85.2253 166.557 86.2923L167.002 89.864C167.303 92.245 167.392 104.141 167.802 106.507C168.212 108.873 169.002 110.459 170.875 111.244C173.592 112.351 177.983 107.352 180.478 104.763L175.726 100.776Z" fill="#FFA8A7"/>
<path d="M174.733 99.4274C172.984 100.736 170.805 102.915 170.366 105.098C170.366 105.098 169.931 101.171 174.733 97.6885V99.4274Z" fill="#F28F8F"/>
<path d="M187.804 86.208C186.124 86.3661 183.358 86.4254 180.542 89.4536C177.277 92.9906 172.243 99.9659 172.243 99.9659C172.243 99.9659 172.9 105.518 178.245 107.509C178.245 107.509 186.016 100.099 187.685 96.908C189.355 93.7168 189.731 88.4261 187.804 86.208Z" fill="#37474F"/>
<path d="M185.566 74.4708L183.442 73.3296L184.662 72.2873L180.251 70.2224L182.177 69.1059L177.425 66.5767L180.251 69.0714L177.954 70.2224L183.136 72.4651L181.856 73.7446L185.566 74.4708Z" fill="#AB0000"/>
<path d="M186.648 71.6697L185.265 70.3458L186.021 69.7875L184.805 68.3451L185.971 67.9499L185.566 66.1221L186.386 68.0931L185.566 68.4488L186.88 69.8913L185.991 70.5236L186.648 71.6697Z" fill="#AB0000"/>
<path d="M185.843 76.5603L183.234 78.5956L182.271 77.1778L179.989 78.4177L179.055 76.664L175.523 77.5681L179.609 75.6118L180.779 77.2272L182.676 76.2096L183.467 77.5681L185.843 76.5603Z" fill="#AB0000"/>
<path d="M167.708 112.983C167.787 112.917 167.89 112.885 167.992 112.895C168.095 112.904 168.19 112.953 168.256 113.033C168.761 113.6 169.418 114.012 170.148 114.22C170.878 114.428 171.653 114.424 172.381 114.208C172.431 114.191 172.484 114.183 172.536 114.187C172.589 114.19 172.64 114.204 172.687 114.228C172.734 114.252 172.776 114.285 172.81 114.325C172.844 114.365 172.869 114.412 172.884 114.463C172.9 114.513 172.905 114.566 172.899 114.618C172.893 114.671 172.877 114.721 172.851 114.767C172.826 114.813 172.791 114.853 172.749 114.886C172.707 114.918 172.66 114.941 172.609 114.954C171.735 115.213 170.806 115.216 169.931 114.964C169.056 114.712 168.271 114.215 167.669 113.531C167.635 113.493 167.609 113.448 167.592 113.4C167.576 113.351 167.57 113.3 167.573 113.249C167.577 113.198 167.591 113.148 167.614 113.102C167.637 113.057 167.669 113.016 167.708 112.983Z" fill="#E0E0E0"/>
<path d="M168.103 115.596C168.173 115.539 168.26 115.507 168.35 115.507C168.441 115.507 168.528 115.539 168.597 115.596C168.999 115.887 169.46 116.086 169.947 116.18C170.435 116.274 170.937 116.26 171.418 116.14C171.52 116.121 171.626 116.143 171.712 116.201C171.798 116.259 171.857 116.349 171.877 116.451C171.887 116.501 171.887 116.552 171.877 116.602C171.867 116.652 171.848 116.7 171.819 116.742C171.791 116.784 171.754 116.821 171.712 116.849C171.669 116.877 171.621 116.896 171.571 116.906C170.976 117.044 170.358 117.049 169.76 116.922C169.163 116.795 168.6 116.538 168.113 116.169C168.074 116.136 168.042 116.096 168.019 116.05C167.996 116.004 167.982 115.955 167.978 115.904C167.975 115.853 167.981 115.801 167.998 115.753C168.014 115.704 168.04 115.66 168.074 115.621C168.082 115.612 168.092 115.603 168.103 115.596Z" fill="#E0E0E0"/>
<path d="M216.609 85.6547C216.564 85.6784 216.514 85.6927 216.462 85.6968C216.411 85.7009 216.36 85.6947 216.311 85.6786C216.262 85.6625 216.217 85.6368 216.178 85.603C216.14 85.5692 216.108 85.528 216.085 85.4818C215.725 84.8134 215.182 84.2608 214.52 83.8883C213.858 83.5158 213.104 83.3387 212.346 83.3774C212.295 83.3803 212.243 83.3731 212.195 83.3562C212.146 83.3393 212.102 83.313 212.063 83.2788C211.986 83.2098 211.939 83.1129 211.933 83.0094C211.928 82.9059 211.963 82.8043 212.032 82.7269C212.101 82.6496 212.198 82.6028 212.301 82.5969C213.212 82.5492 214.117 82.7624 214.911 83.2113C215.705 83.6602 216.354 84.3262 216.782 85.1311C216.827 85.2237 216.834 85.3303 216.802 85.4281C216.77 85.5259 216.701 85.6072 216.609 85.6547Z" fill="#E0E0E0"/>
<path d="M216.826 83.0367C216.744 83.0802 216.648 83.0922 216.557 83.0704C216.466 83.0486 216.386 82.9945 216.332 82.9182C216.014 82.5456 215.618 82.246 215.173 82.0397C214.728 81.8334 214.244 81.7253 213.754 81.7227C213.703 81.7207 213.652 81.7087 213.606 81.6873C213.559 81.6659 213.517 81.6355 213.482 81.5979C213.447 81.5603 213.42 81.5162 213.402 81.4681C213.385 81.42 213.376 81.3689 213.378 81.3176C213.38 81.2664 213.392 81.216 213.414 81.1694C213.435 81.1228 213.466 81.0809 213.503 81.046C213.541 81.0111 213.585 80.984 213.633 80.9662C213.681 80.9484 213.732 80.9402 213.783 80.9422C214.393 80.9483 214.993 81.0876 215.543 81.3505C216.092 81.6133 216.578 81.9933 216.965 82.4637C217.02 82.5473 217.041 82.6493 217.023 82.7481C217.004 82.8468 216.948 82.9344 216.866 82.9923L216.826 83.0367Z" fill="#E0E0E0"/>
<path d="M223.733 111.511C223.683 111.42 223.671 111.314 223.7 111.215C223.729 111.116 223.796 111.032 223.886 110.982C224.536 110.591 225.062 110.023 225.403 109.344C225.743 108.666 225.883 107.904 225.807 107.149C225.801 107.098 225.805 107.046 225.819 106.997C225.834 106.947 225.858 106.901 225.89 106.861C225.922 106.821 225.962 106.788 226.007 106.763C226.052 106.739 226.102 106.724 226.153 106.719C226.256 106.708 226.359 106.738 226.44 106.803C226.52 106.868 226.572 106.962 226.583 107.065C226.671 107.968 226.501 108.878 226.093 109.689C225.684 110.499 225.054 111.177 224.276 111.644C224.232 111.672 224.182 111.69 224.131 111.699C224.079 111.707 224.027 111.705 223.976 111.692C223.925 111.68 223.878 111.657 223.836 111.626C223.794 111.595 223.759 111.556 223.733 111.511Z" fill="#E0E0E0"/>
<path d="M226.356 111.605C226.312 111.524 226.297 111.431 226.314 111.341C226.331 111.251 226.379 111.169 226.45 111.111C226.808 110.775 227.089 110.366 227.275 109.912C227.46 109.457 227.544 108.968 227.522 108.478C227.522 108.374 227.563 108.275 227.636 108.202C227.709 108.129 227.808 108.087 227.912 108.087C228.015 108.087 228.115 108.129 228.188 108.202C228.261 108.275 228.302 108.374 228.302 108.478C228.323 109.086 228.212 109.691 227.977 110.253C227.742 110.814 227.387 111.317 226.939 111.728C226.898 111.76 226.852 111.784 226.803 111.798C226.754 111.812 226.702 111.816 226.651 111.81C226.6 111.804 226.551 111.788 226.506 111.763C226.461 111.738 226.422 111.704 226.39 111.664L226.356 111.605Z" fill="#E0E0E0"/>
<path d="M180.913 158.574C181.005 158.621 181.075 158.702 181.108 158.8C181.142 158.897 181.135 159.005 181.091 159.098C180.778 159.789 180.668 160.556 180.775 161.307C180.882 162.059 181.2 162.764 181.693 163.341C181.76 163.421 181.793 163.523 181.784 163.627C181.776 163.73 181.727 163.827 181.649 163.894C181.571 163.962 181.469 163.995 181.366 163.988C181.264 163.98 181.168 163.933 181.1 163.855C180.508 163.16 180.127 162.311 180 161.407C179.874 160.503 180.009 159.582 180.389 158.752C180.436 158.66 180.517 158.589 180.615 158.556C180.712 158.523 180.819 158.529 180.913 158.574Z" fill="#E0E0E0"/>
<path d="M178.7 159.982C178.784 160.022 178.851 160.09 178.889 160.176C178.927 160.261 178.934 160.357 178.907 160.446C178.803 160.926 178.805 161.423 178.911 161.902C179.018 162.381 179.227 162.832 179.525 163.223C179.583 163.307 179.606 163.412 179.588 163.513C179.571 163.615 179.514 163.705 179.431 163.766C179.346 163.825 179.241 163.849 179.14 163.831C179.038 163.814 178.947 163.756 178.887 163.672C178.521 163.184 178.266 162.621 178.14 162.024C178.013 161.427 178.019 160.809 178.156 160.214C178.171 160.164 178.196 160.118 178.229 160.079C178.263 160.039 178.303 160.006 178.349 159.982C178.395 159.958 178.446 159.944 178.497 159.939C178.549 159.935 178.601 159.941 178.65 159.957L178.7 159.982Z" fill="#E0E0E0"/>
<path d="M151.88 22.9463C151.856 22.4857 151.723 22.0373 151.492 21.6381C151.261 21.2388 150.939 20.8999 150.551 20.6492L149.475 20.0218C149.063 19.8158 148.609 19.7085 148.148 19.7085C147.688 19.7085 147.234 19.8158 146.822 20.0218L121.801 34.4812C121.414 34.7325 121.092 35.0715 120.861 35.4707C120.63 35.8698 120.497 36.3179 120.472 36.7783V49.7162C120.497 50.1765 120.631 50.6244 120.862 51.0235C121.093 51.4226 121.414 51.7617 121.801 52.0133L122.882 52.6357C123.293 52.8452 123.748 52.9544 124.209 52.9544C124.67 52.9544 125.125 52.8452 125.535 52.6357L150.551 38.1813C150.939 37.9306 151.261 37.5917 151.492 37.1924C151.723 36.7932 151.856 36.3448 151.88 35.8842V22.9463Z" fill="#AB0000"/>
<path opacity="0.5" d="M151.88 22.9463C151.856 22.4857 151.723 22.0373 151.492 21.6381C151.261 21.2388 150.939 20.8999 150.551 20.6492L149.475 20.0218C149.063 19.8158 148.609 19.7085 148.148 19.7085C147.688 19.7085 147.234 19.8158 146.822 20.0218L121.801 34.4812C121.414 34.7325 121.092 35.0715 120.861 35.4707C120.63 35.8698 120.497 36.3179 120.472 36.7783V49.7162C120.497 50.1765 120.631 50.6244 120.862 51.0235C121.093 51.4226 121.414 51.7617 121.801 52.0133L122.882 52.6357C123.293 52.8452 123.748 52.9544 124.209 52.9544C124.67 52.9544 125.125 52.8452 125.535 52.6357L150.551 38.1813C150.939 37.9306 151.261 37.5917 151.492 37.1924C151.723 36.7932 151.856 36.3448 151.88 35.8842V22.9463Z" fill="white"/>
<path opacity="0.2" d="M120.472 49.7162C120.497 50.1766 120.631 50.6245 120.862 51.0236C121.093 51.4227 121.414 51.7617 121.801 52.0133L122.882 52.6357C123.256 52.8241 123.666 52.9311 124.084 52.9498C124.502 52.9686 124.919 52.8986 125.308 52.7444C124.681 52.9815 124.206 52.6308 124.206 51.87V38.9322C124.222 38.4696 124.357 38.0189 124.597 37.6231L120.862 35.4692C120.622 35.8648 120.487 36.3157 120.472 36.7783V49.7162Z" fill="black"/>
<path opacity="0.3" d="M151.836 22.5708C151.683 22.0076 151.169 21.8249 150.556 22.1805L125.535 36.635C125.141 36.8766 124.818 37.2173 124.597 37.623L120.867 35.4691C121.088 35.0647 121.409 34.7243 121.801 34.4811L146.817 20.0267C147.228 19.8172 147.682 19.708 148.143 19.708C148.604 19.708 149.059 19.8172 149.47 20.0267L150.556 20.6491C150.888 20.8663 151.173 21.1486 151.393 21.4789C151.613 21.8092 151.764 22.1806 151.836 22.5708Z" fill="white"/>
<path d="M124.211 43.1162L120.482 40.9624L115.986 45.2898C115.919 45.3579 115.867 45.4405 115.836 45.5313C115.805 45.6221 115.796 45.7187 115.807 45.8139C115.819 45.9091 115.853 46.0004 115.905 46.0807C115.957 46.1611 116.027 46.2285 116.11 46.2778L119.78 48.4119C119.932 48.4914 120.103 48.5274 120.274 48.5157L124.226 47.7598V43.1162H124.211Z" fill="#AB0000"/>
<path opacity="0.5" d="M124.211 43.1162L120.482 40.9624L115.986 45.2898C115.919 45.3579 115.867 45.4405 115.836 45.5313C115.805 45.6221 115.796 45.7187 115.807 45.8139C115.819 45.9091 115.853 46.0004 115.905 46.0807C115.957 46.1611 116.027 46.2285 116.11 46.2778L119.78 48.4119C119.932 48.4914 120.103 48.5274 120.274 48.5157L124.226 47.7598V43.1162H124.211Z" fill="white"/>
<path opacity="0.3" d="M119.78 48.412L117.804 47.2807L117.572 47.1276L116.515 46.515L116.386 46.436L116.105 46.273C116.023 46.2236 115.953 46.1562 115.9 46.0759C115.848 45.9955 115.814 45.9042 115.802 45.809C115.791 45.7138 115.8 45.6172 115.831 45.5264C115.862 45.4356 115.914 45.353 115.981 45.285L120.477 40.9575L124.211 43.1163L119.716 47.424C119.645 47.4874 119.589 47.5663 119.552 47.6546C119.516 47.7429 119.5 47.8384 119.507 47.9337C119.513 48.029 119.541 48.1216 119.588 48.2045C119.635 48.2874 119.701 48.3583 119.78 48.412Z" fill="white"/>
<path d="M131.518 39.1394C131.001 39.4751 130.572 39.9279 130.264 40.461C129.956 40.994 129.778 41.5923 129.744 42.2071C129.744 43.3334 130.54 43.7929 131.518 43.2297C132.033 42.8937 132.462 42.4407 132.769 41.9077C133.077 41.3746 133.254 40.7764 133.286 40.162C133.286 39.0258 132.496 38.5762 131.518 39.1394Z" fill="white"/>
<path d="M138.043 35.3653C137.528 35.7012 137.099 36.1542 136.792 36.6873C136.484 37.2204 136.307 37.8185 136.275 38.433C136.275 39.5593 137.065 40.0187 138.043 39.4506C138.558 39.1151 138.987 38.663 139.294 38.1308C139.601 37.5986 139.779 37.0015 139.812 36.3878C139.802 35.2566 139.021 34.7972 138.043 35.3653Z" fill="white"/>
<path d="M144.569 31.5865C144.054 31.9233 143.626 32.3765 143.319 32.9094C143.012 33.4423 142.834 34.04 142.801 34.6542C142.801 35.7855 143.591 36.2399 144.569 35.6768C145.086 35.3406 145.516 34.887 145.824 34.353C146.132 33.819 146.31 33.2198 146.343 32.6041C146.343 31.4827 145.547 31.0233 144.569 31.5865Z" fill="white"/>
<path d="M200.04 48.3086L198.247 44.9544L199.69 40.7899V38.2261L195.273 40.7751V43.3242L197.17 46.6142C197.202 46.6633 197.246 46.7027 197.299 46.7278L200.04 48.3086Z" fill="#AB0000"/>
<path opacity="0.2" d="M200.04 48.3086L198.247 44.9544L199.69 40.7899V38.2261L195.273 40.7751V43.3242L197.17 46.6142C197.202 46.6633 197.246 46.7027 197.299 46.7278L200.04 48.3086Z" fill="black"/>
<path d="M213.452 21.6278C213.428 21.1684 213.295 20.7214 213.065 20.323C212.835 19.9247 212.514 19.5864 212.129 19.3356L211.052 18.7132C210.642 18.5037 210.188 18.3945 209.728 18.3945C209.267 18.3945 208.814 18.5037 208.404 18.7132L183.442 33.133C183.058 33.3869 182.739 33.7266 182.509 34.1253C182.279 34.524 182.145 34.9708 182.118 35.4301V48.3384C182.143 48.7977 182.275 49.2448 182.505 49.6431C182.735 50.0414 183.056 50.3798 183.442 50.6305L184.519 51.253C184.93 51.4582 185.383 51.5651 185.843 51.5651C186.302 51.5651 186.756 51.4582 187.167 51.253L198.035 44.9298L199.932 48.2099C199.959 48.2538 199.998 48.2891 200.044 48.3119C200.091 48.3348 200.143 48.3441 200.194 48.339C200.245 48.3338 200.294 48.3144 200.335 48.2829C200.376 48.2513 200.408 48.2089 200.426 48.1605L202.431 42.3857L212.104 36.8282C212.489 36.5774 212.81 36.2391 213.04 35.8407C213.271 35.4424 213.403 34.9953 213.428 34.536L213.452 21.6278Z" fill="#AB0000"/>
<path d="M189.597 37.9299L209.555 26.4049C210.148 26.064 210.627 26.3061 210.627 26.9483C210.6 27.3073 210.489 27.655 210.303 27.9631C210.116 28.2712 209.86 28.5311 209.555 28.7217L189.597 40.2468C189.009 40.5876 188.53 40.3456 188.53 39.7034C188.557 39.3449 188.667 38.9977 188.853 38.6897C189.038 38.3816 189.293 38.1214 189.597 37.9299Z" fill="white"/>
<path d="M189.597 43.0623L209.555 31.5422C210.148 31.2014 210.627 31.4434 210.627 32.0807C210.601 32.4406 210.49 32.7892 210.304 33.0983C210.117 33.4073 209.861 33.668 209.555 33.8591L189.597 45.3792C189.009 45.725 188.53 45.478 188.53 44.8407C188.556 44.4814 188.666 44.1332 188.852 43.8242C189.037 43.5153 189.292 43.2543 189.597 43.0623Z" fill="white"/>
<path opacity="0.2" d="M182.118 48.3384C182.143 48.7978 182.275 49.2448 182.505 49.6432C182.735 50.0415 183.056 50.3798 183.442 50.6306L184.519 51.253C184.892 51.4406 185.3 51.5473 185.718 51.566C186.135 51.5847 186.551 51.5151 186.939 51.3617C186.317 51.5939 185.843 51.2431 185.843 50.4873V37.5791C185.859 37.1187 185.991 36.67 186.228 36.2749L182.503 34.1211C182.266 34.5179 182.134 34.9683 182.118 35.4302V48.3384Z" fill="black"/>
<path opacity="0.2" d="M213.408 21.2422C213.255 20.679 212.741 20.5012 212.129 20.8519L187.167 35.2767C186.774 35.5179 186.452 35.8588 186.233 36.2647L182.508 34.1158C182.73 33.712 183.051 33.3718 183.442 33.1278L208.399 18.703C208.811 18.4969 209.265 18.3896 209.725 18.3896C210.186 18.3896 210.64 18.4969 211.052 18.703L212.129 19.3254C212.461 19.5409 212.746 19.8221 212.966 20.1517C213.186 20.4813 213.336 20.8524 213.408 21.2422Z" fill="white"/>
</svg>
