<svg width="580" height="580" viewBox="0 0 580 580" fill="none" xmlns="http://www.w3.org/2000/svg">
<path d="M72.7552 238.519C72.7552 238.519 56.7124 309.279 103.078 371.304C149.443 433.329 229.68 457.852 294.257 479.428C358.834 501.004 418.957 476.98 441.229 422.75C463.501 368.52 417.6 338.917 407.056 267.821C396.511 196.724 404.422 176.32 357.071 121.927C309.72 67.5351 213.231 68.1847 148.399 123.285C83.5664 178.385 72.7552 238.519 72.7552 238.519Z" fill="#AB0000"/>
<path opacity="0.7" d="M72.7552 238.519C72.7552 238.519 56.7124 309.279 103.078 371.304C149.443 433.329 229.68 457.852 294.257 479.428C358.834 501.004 418.957 476.98 441.229 422.75C463.501 368.52 417.6 338.917 407.056 267.821C396.511 196.724 404.422 176.32 357.071 121.927C309.72 67.5351 213.231 68.1847 148.399 123.285C83.5664 178.385 72.7552 238.519 72.7552 238.519Z" fill="white"/>
<path d="M449.512 144.466C449.512 144.466 450.672 138.457 443.909 128.389C437.146 118.32 432.68 112.45 432.68 112.45C432.68 112.45 425.72 125.465 431.938 135.418C436.533 142.465 441.709 149.116 447.412 155.301L449.512 144.466Z" fill="#AB0000"/>
<path d="M429.942 179.649C429.942 179.649 431.102 173.64 424.34 163.571C417.577 153.502 413.088 147.633 413.088 147.633C413.088 147.633 406.128 160.648 412.357 170.589C416.95 177.641 422.126 184.296 427.831 190.483L429.942 179.649Z" fill="#AB0000"/>
<path d="M446.971 154.616C446.971 154.616 448.781 148.816 459.511 143.086C470.241 137.355 476.911 134.351 476.911 134.351C476.911 134.351 476.911 149.083 466.726 154.941C459.343 158.98 451.637 162.398 443.688 165.161L446.971 154.616Z" fill="#AB0000"/>
<path d="M423.539 196.098C423.539 196.098 425.952 190.46 437.216 185.948C448.479 181.435 455.474 179.092 455.474 179.092C455.474 179.092 453.885 193.743 443.178 198.499C435.416 201.745 427.396 204.333 419.201 206.236L423.539 196.098Z" fill="#AB0000"/>
<path d="M416.858 245.015C416.858 245.015 418.018 238.995 428.11 232.255C438.202 225.515 444.524 221.722 444.524 221.722C444.524 221.722 446.032 236.385 436.566 243.275C429.659 248.079 422.36 252.293 414.746 255.873L416.858 245.015Z" fill="#AB0000"/>
<path d="M414.41 256.789C414.41 256.789 416.428 250.989 411.162 240.073C405.896 229.158 402.288 222.673 402.288 222.673C402.288 222.673 393.588 234.563 398.286 245.293C401.831 252.923 406.01 260.241 410.779 267.171L414.41 256.789Z" fill="#AB0000"/>
<path d="M399.272 290.162C399.272 290.162 400.432 284.153 410.512 277.402C420.593 270.651 426.938 266.8 426.938 266.8C426.938 266.8 428.446 281.451 418.98 288.353C412.071 293.152 404.772 297.366 397.161 300.95L399.272 290.162Z" fill="#AB0000"/>
<path d="M398.692 322.99C398.692 322.99 398.309 316.877 406.336 307.771C414.364 298.665 419.549 293.48 419.549 293.48C419.549 293.48 424.722 307.272 417.31 316.344C411.842 322.739 405.847 328.664 399.388 334.057L398.692 322.99Z" fill="#AB0000"/>
<path d="M450.567 143.074C448.92 149.257 446.933 155.345 444.616 161.309C437.923 177.863 427.437 187.328 421.068 202.211C414.7 217.094 420.349 238.983 413.888 258.436C407.427 277.889 397.497 287.436 397.114 301.217C396.731 314.998 401.36 353.313 401.36 353.313" stroke="#263238" stroke-width="0.5" stroke-linecap="round" stroke-linejoin="round"/>
<path d="M446.113 158.595L456.553 153.41" stroke="#263238" stroke-width="0.5" stroke-linecap="round" stroke-linejoin="round"/>
<path d="M448.096 150.661L445.625 143.167" stroke="#263238" stroke-width="0.5" stroke-linecap="round" stroke-linejoin="round"/>
<path d="M421.706 201.596C421.706 201.596 430.429 197.385 439.35 193.209" stroke="#263238" stroke-width="0.5" stroke-linecap="round" stroke-linejoin="round"/>
<path d="M427.831 190.483C427.831 190.483 423.922 176.83 418.354 167.202" stroke="#263238" stroke-width="0.5" stroke-linecap="round" stroke-linejoin="round"/>
<path d="M415.489 253.634C421.386 246.487 428.291 240.235 435.986 235.074" stroke="#263238" stroke-width="0.5" stroke-linecap="round" stroke-linejoin="round"/>
<path d="M412.357 261.789C411.108 255.908 409.37 250.142 407.16 244.551C404.005 237.15 403.541 236.176 403.541 236.176" stroke="#263238" stroke-width="0.5" stroke-linecap="round" stroke-linejoin="round"/>
<path d="M397.114 301.217C399.97 296.813 403.162 292.636 406.661 288.724C410.095 285.129 413.82 281.824 417.797 278.841" stroke="#263238" stroke-width="0.5" stroke-linecap="round" stroke-linejoin="round"/>
<path d="M399.388 333.998C399.843 329.349 401.528 324.904 404.272 321.122C408.633 315.612 413.795 308.304 415.872 305.416" stroke="#263238" stroke-width="0.5" stroke-linecap="round" stroke-linejoin="round"/>
<path d="M378.659 214.066C378.659 214.066 378.74 210.157 384.32 204.786C389.899 199.415 393.472 196.399 393.472 196.399C393.472 196.399 396.012 205.424 390.816 210.772C387.008 214.536 382.891 217.974 378.508 221.049L378.659 214.066Z" fill="#AB0000"/>
<path d="M386.048 238.589C386.048 238.589 386.141 234.691 391.709 229.309C397.277 223.926 400.873 220.922 400.873 220.922C400.873 220.922 403.402 229.947 398.216 235.306C394.404 239.066 390.283 242.5 385.897 245.572L386.048 238.589Z" fill="#AB0000"/>
<path d="M378.856 220.713C378.856 220.713 378.531 216.827 372.627 211.839C366.722 206.851 362.964 204.044 362.964 204.044C362.964 204.044 360.992 213.22 366.514 218.231C370.554 221.744 374.88 224.914 379.448 227.708L378.856 220.713Z" fill="#AB0000"/>
<path d="M387.811 249.678C387.811 249.678 387.069 245.85 380.677 241.558C374.286 237.266 370.237 234.818 370.237 234.818C370.237 234.818 369.251 244.098 375.26 248.553C379.647 251.641 384.283 254.357 389.122 256.673L387.811 249.678Z" fill="#AB0000"/>
<path d="M385.329 280.998C385.329 280.998 385.41 277.101 380.074 271.521C374.738 265.941 371.293 262.751 371.293 262.751C371.293 262.751 368.37 271.66 373.311 277.228C376.959 281.149 380.928 284.758 385.178 288.016L385.329 280.998Z" fill="#AB0000"/>
<path d="M385.259 288.654C385.259 288.654 384.784 284.791 389.551 278.701C394.319 272.611 397.416 269.12 397.416 269.12C397.416 269.12 401.209 277.692 396.836 283.724C393.598 287.988 390.009 291.973 386.106 295.637L385.259 288.654Z" fill="#AB0000"/>
<path d="M389.876 321.157C389.876 321.157 391.036 317.434 397.915 313.884C404.794 310.334 409.062 308.42 409.062 308.42C409.062 308.42 408.958 317.793 402.474 321.459C397.754 323.997 392.83 326.135 387.753 327.85L389.876 321.157Z" fill="#AB0000"/>
<path d="M390.154 311.46C390.154 311.46 390.236 307.562 384.888 301.982C379.54 296.403 376.107 293.213 376.107 293.213C376.107 293.213 373.184 302.122 378.137 307.69C381.784 311.611 385.754 315.219 390.004 318.478L390.154 311.46Z" fill="#AB0000"/>
<path d="M386.06 331.946C386.06 331.946 387.127 328.199 383.38 321.447C379.633 314.696 377.104 310.741 377.104 310.741C377.104 310.741 372.012 318.617 375.399 325.264C377.93 329.985 380.851 334.487 384.134 338.72L386.06 331.946Z" fill="#AB0000"/>
<path d="M378.16 213.045C378.347 217.113 378.758 221.168 379.39 225.191C381.315 236.385 386.547 243.751 388.496 253.819C390.444 263.888 383.96 276.776 385.34 289.779C386.721 302.783 391.593 310.045 389.98 318.652C388.368 327.259 380.306 350.471 380.306 350.471" stroke="#263238" stroke-width="0.5" stroke-linecap="round" stroke-linejoin="round"/>
<path d="M378.856 223.3L373.068 218.66" stroke="#263238" stroke-width="0.5" stroke-linecap="round" stroke-linejoin="round"/>
<path d="M378.694 218.103L381.246 213.776" stroke="#263238" stroke-width="0.5" stroke-linecap="round" stroke-linejoin="round"/>
<path d="M388.194 253.344C388.194 253.344 383.357 249.55 378.369 245.746" stroke="#263238" stroke-width="0.5" stroke-linecap="round" stroke-linejoin="round"/>
<path d="M385.897 245.607C388.458 240.911 391.489 236.488 394.945 232.406" stroke="#263238" stroke-width="0.5" stroke-linecap="round" stroke-linejoin="round"/>
<path d="M385.016 286.52C382.318 281.277 378.872 276.455 374.784 272.206" stroke="#263238" stroke-width="0.5" stroke-linecap="round" stroke-linejoin="round"/>
<path d="M385.862 292.042C387.43 288.557 389.284 285.208 391.407 282.031C394.377 277.855 394.794 277.31 394.794 277.31" stroke="#263238" stroke-width="0.5" stroke-linecap="round" stroke-linejoin="round"/>
<path d="M388.426 325.09C391.03 322.914 393.821 320.973 396.766 319.29C398.603 318.424 400.365 317.408 402.033 316.25" stroke="#263238" stroke-width="0.5" stroke-linecap="round" stroke-linejoin="round"/>
<path d="M389.992 318.629C388.816 315.501 387.4 312.468 385.758 309.557C384.107 306.86 382.237 304.303 380.167 301.913" stroke="#263238" stroke-width="0.5" stroke-linecap="round" stroke-linejoin="round"/>
<path d="M384.134 338.72C384.487 335.768 384.042 332.776 382.846 330.054C380.886 326.041 378.67 320.774 377.754 318.721" stroke="#263238" stroke-width="0.5" stroke-linecap="round" stroke-linejoin="round"/>
<path d="M98.3911 295.66C98.3911 295.66 96.5583 290.359 86.5823 285.522C76.6063 280.685 70.3423 278.086 70.3423 278.086C70.3423 278.086 70.8527 291.542 80.2951 296.565C87.1598 300.031 94.3035 302.914 101.651 305.184L98.3911 295.66Z" fill="#AB0000"/>
<path d="M99.0755 332.432C99.0755 332.432 97.2427 327.143 87.2667 322.294C77.2907 317.445 71.0267 314.858 71.0267 314.858C71.0267 314.858 71.5371 328.314 80.9795 333.349C87.8459 336.808 94.9893 339.687 102.335 341.956L99.0755 332.432Z" fill="#AB0000"/>
<path d="M101.048 304.836C101.048 304.836 99.7831 299.373 105.688 289.965C111.592 280.557 115.466 275.059 115.466 275.059C115.466 275.059 122.183 286.729 116.858 296.009C112.884 302.59 108.364 308.826 103.344 314.65L101.048 304.836Z" fill="#AB0000"/>
<path d="M101.558 348.371C101.558 348.371 100.874 342.803 107.706 334.068C114.538 325.333 118.993 320.276 118.993 320.276C118.993 320.276 124.456 332.583 118.181 341.249C113.535 347.374 108.386 353.101 102.788 358.37L101.558 348.371Z" fill="#AB0000"/>
<path d="M118.726 390.085C118.726 390.085 116.893 384.795 121.742 374.819C126.591 364.843 129.862 358.962 129.862 358.962C129.862 358.962 137.785 369.854 133.47 379.645C130.214 386.608 126.38 393.286 122.009 399.608L118.726 390.085Z" fill="#AB0000"/>
<path d="M122.206 400.513C122.206 400.513 121.139 395.015 111.952 388.797C102.764 382.58 96.9759 379.146 96.9759 379.146C96.9759 379.146 95.5607 392.532 104.203 398.866C110.502 403.282 117.161 407.162 124.108 410.466L122.206 400.513Z" fill="#AB0000"/>
<path d="M125.547 433.84C125.547 433.84 123.714 428.539 128.563 418.563C133.412 408.587 136.683 402.706 136.683 402.706C136.683 402.706 144.606 413.598 140.29 423.388C137.029 430.355 133.192 437.036 128.818 443.364L125.547 433.84Z" fill="#AB0000"/>
<path d="M140.163 460.032C140.163 460.032 137.042 455.392 139.212 444.5C141.381 433.608 143.074 427.1 143.074 427.1C143.074 427.1 153.514 435.638 151.786 446.194C150.4 453.758 148.383 461.192 145.754 468.419L140.163 460.032Z" fill="#AB0000"/>
<path d="M98.6 294.071C100.137 299.71 101.361 305.43 102.266 311.204C104.586 327.352 100.618 339.648 102.428 354.333C104.238 369.019 118.668 383.716 122.554 402.056C126.44 420.395 122.925 432.517 128.922 443.56C134.92 454.604 156.171 482.792 156.171 482.792" stroke="#263238" stroke-width="0.5" stroke-linecap="round" stroke-linejoin="round"/>
<path d="M102.184 308.374L108.054 299.489" stroke="#263238" stroke-width="0.5" stroke-linecap="round" stroke-linejoin="round"/>
<path d="M100.12 301.194L94.714 296.403" stroke="#263238" stroke-width="0.5" stroke-linecap="round" stroke-linejoin="round"/>
<path d="M102.637 353.556C102.637 353.556 107.59 346.225 112.729 338.836" stroke="#263238" stroke-width="0.5" stroke-linecap="round" stroke-linejoin="round"/>
<path d="M102.37 341.956C102.37 341.956 93.0203 332.92 84.2043 327.909" stroke="#263238" stroke-width="0.5" stroke-linecap="round" stroke-linejoin="round"/>
<path d="M121.603 397.52C122.982 389.167 125.569 381.059 129.282 373.45" stroke="#263238" stroke-width="0.5" stroke-linecap="round" stroke-linejoin="round"/>
<path d="M122.867 405.397C119.187 401.328 115.175 397.572 110.873 394.168C104.98 389.76 104.168 389.203 104.168 389.203" stroke="#263238" stroke-width="0.5" stroke-linecap="round" stroke-linejoin="round"/>
<path d="M128.911 443.561C129.153 438.77 129.758 434.004 130.72 429.304C131.79 424.907 133.217 420.604 134.989 416.44" stroke="#263238" stroke-width="0.5" stroke-linecap="round" stroke-linejoin="round"/>
<path d="M145.754 468.419C143.981 464.537 143.272 460.254 143.701 456.007C144.629 449.651 145.348 441.507 145.673 438.271" stroke="#263238" stroke-width="0.5" stroke-linecap="round" stroke-linejoin="round"/>
<path d="M74.3327 383.159C74.3327 383.159 72.6043 380.039 74.5647 373.253C76.5251 366.467 77.9519 362.43 77.9519 362.43C77.9519 362.43 84.0999 368.404 82.4527 375.005C81.1649 379.726 79.4847 384.332 77.4299 388.774L74.3327 383.159Z" fill="#AB0000"/>
<path d="M91.4311 399.144C91.4311 399.144 89.7143 396.024 91.6631 389.238C93.6119 382.452 95.0503 378.415 95.0503 378.415C95.0503 378.415 101.198 384.389 99.5511 390.989C98.2704 395.712 96.5941 400.318 94.5399 404.759L91.4311 399.144Z" fill="#AB0000"/>
<path d="M77.5459 388.322C77.5459 388.322 75.5043 385.398 68.5443 384.169C61.5843 382.939 57.3387 382.44 57.3387 382.44C57.3387 382.44 59.9951 390.56 66.6187 392.022C71.4268 392.949 76.3045 393.469 81.1999 393.576L77.5459 388.322Z" fill="#AB0000"/>
<path d="M97.9156 407.16C97.9156 407.16 95.5956 404.469 88.5312 403.981C81.4668 403.494 77.198 403.448 77.198 403.448C77.198 403.448 80.678 411.266 87.464 411.997C92.3392 412.403 97.2396 412.403 102.115 411.997L97.9156 407.16Z" fill="#AB0000"/>
<path d="M110.328 432.993C110.328 432.993 108.599 429.873 101.825 427.912C95.0504 425.952 90.8512 425.012 90.8512 425.012C90.8512 425.012 92.6376 433.399 99.0988 435.522C103.779 436.951 108.571 437.983 113.425 438.607L110.328 432.993Z" fill="#AB0000"/>
<path d="M113.784 439.071C113.784 439.071 111.638 436.229 112.624 429.246C113.61 422.263 114.446 418.041 114.446 418.041C114.446 418.041 121.406 423.075 120.686 429.861C120.086 434.716 119.077 439.513 117.67 444.199L113.784 439.071Z" fill="#AB0000"/>
<path d="M132.344 462.631C132.344 462.631 131.579 459.151 135.36 453.2C139.142 447.249 141.659 443.758 141.659 443.758C141.659 443.758 145.882 451.228 142.436 457.098C139.874 461.268 136.964 465.215 133.736 468.895L132.344 462.631Z" fill="#AB0000"/>
<path d="M128.11 454.847C128.11 454.847 126.394 451.727 119.608 449.778C112.822 447.829 108.646 446.867 108.646 446.867C108.646 446.867 110.42 455.253 116.893 457.388C121.573 458.83 126.365 459.878 131.219 460.52L128.11 454.847Z" fill="#AB0000"/>
<path d="M134.282 472.92C134.282 472.92 133.412 469.44 127.322 465.856C121.232 462.271 117.45 460.265 117.45 460.265C117.45 460.265 117.044 468.825 122.763 472.526C126.928 475.092 131.301 477.303 135.836 479.138L134.282 472.92Z" fill="#AB0000"/>
<path d="M73.4976 382.58C75.5142 385.703 77.6982 388.716 80.04 391.604C86.6984 399.574 94.192 402.949 100.375 410.048C106.558 417.148 107.335 430.279 114.364 439.895C121.394 449.512 128.621 453.038 131.277 460.59C133.934 468.141 138.237 490.17 138.237 490.17" stroke="#263238" stroke-width="0.5" stroke-linecap="round" stroke-linejoin="round"/>
<path d="M78.7291 390.375L72.0243 389.354" stroke="#263238" stroke-width="0.5" stroke-linecap="round" stroke-linejoin="round"/>
<path d="M76.2119 386.326L76.2467 381.744" stroke="#263238" stroke-width="0.5" stroke-linecap="round" stroke-linejoin="round"/>
<path d="M99.8991 409.828C99.8991 409.828 94.3311 409.051 88.6471 408.332" stroke="#263238" stroke-width="0.5" stroke-linecap="round" stroke-linejoin="round"/>
<path d="M94.5399 404.759C94.4032 399.877 94.7686 394.995 95.6303 390.189" stroke="#263238" stroke-width="0.5" stroke-linecap="round" stroke-linejoin="round"/>
<path d="M112.624 437.517C108.082 434.613 103.144 432.382 97.9619 430.894" stroke="#263238" stroke-width="0.5" stroke-linecap="round" stroke-linejoin="round"/>
<path d="M115.814 441.472C115.453 438.004 115.383 434.512 115.606 431.032C116.035 426.392 116.116 425.754 116.116 425.754" stroke="#263238" stroke-width="0.5" stroke-linecap="round" stroke-linejoin="round"/>
<path d="M133.006 466.401C134.047 463.481 135.343 460.659 136.88 457.968C137.93 456.435 138.857 454.821 139.652 453.142" stroke="#263238" stroke-width="0.5" stroke-linecap="round" stroke-linejoin="round"/>
<path d="M131.277 460.59C128.913 458.66 126.404 456.915 123.772 455.37C121.226 453.996 118.572 452.833 115.838 451.89" stroke="#263238" stroke-width="0.5" stroke-linecap="round" stroke-linejoin="round"/>
<path d="M135.859 479.138C134.779 476.643 133.053 474.48 130.86 472.874C127.472 470.612 123.308 467.48 121.58 466.262" stroke="#263238" stroke-width="0.5" stroke-linecap="round" stroke-linejoin="round"/>
<path d="M406.278 313.896H324.603C321.713 313.896 319.371 316.238 319.371 319.128V495.297C319.371 498.186 321.713 500.528 324.603 500.528H406.278C409.168 500.528 411.51 498.186 411.51 495.297V319.128C411.51 316.238 409.168 313.896 406.278 313.896Z" fill="white" stroke="#263238" stroke-width="1.01" stroke-linecap="round" stroke-linejoin="round"/>
<path d="M403.808 338.384H327.085C324.196 338.384 321.854 340.726 321.854 343.615V490.843C321.854 493.732 324.196 496.074 327.085 496.074H403.808C406.697 496.074 409.039 493.732 409.039 490.843V343.615C409.039 340.726 406.697 338.384 403.808 338.384Z" fill="#AB0000"/>
<path opacity="0.5" d="M403.808 338.384H327.085C324.196 338.384 321.854 340.726 321.854 343.615V490.843C321.854 493.732 324.196 496.074 327.085 496.074H403.808C406.697 496.074 409.039 493.732 409.039 490.843V343.615C409.039 340.726 406.697 338.384 403.808 338.384Z" fill="white"/>
<path d="M387.37 273.644H343.534V313.896H387.37V273.644Z" fill="#263238" stroke="#263238" stroke-width="1.01" stroke-linecap="round" stroke-linejoin="round"/>
<path d="M347.188 277.623V309.558" stroke="white" stroke-width="1.01" stroke-linecap="round" stroke-linejoin="round"/>
<path d="M353.962 277.623V309.558" stroke="white" stroke-width="1.01" stroke-linecap="round" stroke-linejoin="round"/>
<path d="M363.637 287.785V309.558" stroke="white" stroke-width="1.01" stroke-linecap="round" stroke-linejoin="round"/>
<path d="M363.637 277.623V282.947" stroke="white" stroke-width="1.01" stroke-linecap="round" stroke-linejoin="round"/>
<path d="M406.255 353.499H324.638V443.573H406.255V353.499Z" fill="white"/>
<path d="M364.901 431.091C381.597 431.091 395.131 417.557 395.131 400.861C395.131 384.166 381.597 370.632 364.901 370.632C348.206 370.632 334.672 384.166 334.672 400.861C334.672 417.557 348.206 431.091 364.901 431.091Z" fill="#263238"/>
<path d="M370.434 380.062H359.368V421.66H370.434V380.062Z" fill="#AB0000"/>
<path d="M385.7 406.395V395.328H344.102V406.395H385.7Z" fill="#AB0000"/>
<path d="M492.513 415.164H364.02C360.976 415.164 358.51 417.631 358.51 420.674V495.413C358.51 498.456 360.976 500.923 364.02 500.923H492.513C495.556 500.923 498.023 498.456 498.023 495.413V420.674C498.023 417.631 495.556 415.164 492.513 415.164Z" fill="white" stroke="#263238" stroke-linecap="round" stroke-linejoin="round"/>
<path d="M371.861 452.4C370.495 452.4 369.185 451.857 368.219 450.891C367.253 449.925 366.711 448.615 366.711 447.249V433.329C366.709 432.652 366.841 431.981 367.099 431.355C367.358 430.729 367.737 430.16 368.215 429.68C368.694 429.201 369.262 428.82 369.887 428.561C370.513 428.301 371.184 428.167 371.861 428.167C373.23 428.167 374.543 428.711 375.511 429.679C376.479 430.647 377.023 431.96 377.023 433.329V447.249C377.023 447.927 376.889 448.598 376.63 449.223C376.37 449.849 375.99 450.417 375.51 450.895C375.031 451.374 374.462 451.753 373.836 452.011C373.209 452.269 372.538 452.401 371.861 452.4Z" fill="#263238" stroke="#263238" stroke-width="1.01" stroke-linecap="round" stroke-linejoin="round"/>
<path d="M375.353 432.854V441.484" stroke="white" stroke-width="1.01" stroke-linecap="round" stroke-linejoin="round"/>
<path d="M375.353 443.712V448.445" stroke="white" stroke-width="1.01" stroke-linecap="round" stroke-linejoin="round"/>
<path d="M394.4 452.4C393.034 452.4 391.724 451.857 390.758 450.891C389.792 449.925 389.25 448.615 389.25 447.249V433.329C389.248 432.652 389.38 431.981 389.638 431.355C389.896 430.729 390.276 430.16 390.754 429.68C391.232 429.201 391.801 428.82 392.426 428.561C393.052 428.301 393.723 428.167 394.4 428.167C395.077 428.167 395.748 428.301 396.374 428.561C396.999 428.82 397.568 429.201 398.046 429.68C398.524 430.16 398.903 430.729 399.162 431.355C399.42 431.981 399.552 432.652 399.55 433.329V447.249C399.55 448.615 399.008 449.925 398.042 450.891C397.076 451.857 395.766 452.4 394.4 452.4Z" fill="#263238" stroke="#263238" stroke-width="1.01" stroke-linecap="round" stroke-linejoin="round"/>
<path d="M397.903 432.854V441.484" stroke="white" stroke-width="1.01" stroke-linecap="round" stroke-linejoin="round"/>
<path d="M397.903 443.712V448.445" stroke="white" stroke-width="1.01" stroke-linecap="round" stroke-linejoin="round"/>
<path d="M416.985 452.4C415.619 452.4 414.309 451.857 413.343 450.891C412.377 449.925 411.835 448.615 411.835 447.249V433.329C411.833 432.652 411.965 431.981 412.223 431.355C412.482 430.729 412.861 430.16 413.339 429.68C413.818 429.201 414.386 428.82 415.011 428.561C415.637 428.301 416.308 428.167 416.985 428.167C417.662 428.167 418.333 428.301 418.959 428.561C419.584 428.82 420.153 429.201 420.631 429.68C421.11 430.16 421.489 430.729 421.747 431.355C422.005 431.981 422.137 432.652 422.136 433.329V447.249C422.136 448.615 421.593 449.925 420.627 450.891C419.661 451.857 418.351 452.4 416.985 452.4Z" fill="#263238" stroke="#263238" stroke-width="1.01" stroke-linecap="round" stroke-linejoin="round"/>
<path d="M420.465 432.854V441.484" stroke="white" stroke-width="1.01" stroke-linecap="round" stroke-linejoin="round"/>
<path d="M420.465 443.712V448.445" stroke="white" stroke-width="1.01" stroke-linecap="round" stroke-linejoin="round"/>
<path d="M439.547 452.4C438.181 452.4 436.871 451.857 435.905 450.891C434.939 449.925 434.397 448.615 434.397 447.249V433.329C434.395 432.652 434.527 431.981 434.785 431.355C435.044 430.729 435.423 430.16 435.901 429.68C436.38 429.201 436.948 428.82 437.573 428.561C438.199 428.301 438.87 428.167 439.547 428.167C440.224 428.167 440.895 428.301 441.521 428.561C442.146 428.82 442.715 429.201 443.193 429.68C443.672 430.16 444.051 430.729 444.309 431.355C444.567 431.981 444.699 432.652 444.698 433.329V447.249C444.698 448.615 444.155 449.925 443.189 450.891C442.223 451.857 440.913 452.4 439.547 452.4Z" fill="#263238" stroke="#263238" stroke-width="1.01" stroke-linecap="round" stroke-linejoin="round"/>
<path d="M443.027 432.854V441.484" stroke="white" stroke-width="1.01" stroke-linecap="round" stroke-linejoin="round"/>
<path d="M443.027 443.712V448.445" stroke="white" stroke-width="1.01" stroke-linecap="round" stroke-linejoin="round"/>
<path d="M462.109 452.4C461.432 452.401 460.761 452.269 460.135 452.011C459.508 451.753 458.939 451.374 458.46 450.895C457.98 450.417 457.6 449.849 457.34 449.223C457.081 448.598 456.947 447.927 456.947 447.249V433.329C456.947 431.96 457.491 430.647 458.459 429.679C459.427 428.711 460.74 428.167 462.109 428.167C462.786 428.167 463.457 428.301 464.083 428.561C464.708 428.82 465.277 429.201 465.755 429.68C466.234 430.16 466.613 430.729 466.871 431.355C467.129 431.981 467.261 432.652 467.26 433.329V447.249C467.26 448.615 466.717 449.925 465.751 450.891C464.785 451.857 463.475 452.4 462.109 452.4Z" fill="#263238" stroke="#263238" stroke-width="1.01" stroke-linecap="round" stroke-linejoin="round"/>
<path d="M465.589 432.854V441.484" stroke="white" stroke-width="1.01" stroke-linecap="round" stroke-linejoin="round"/>
<path d="M465.589 443.712V448.445" stroke="white" stroke-width="1.01" stroke-linecap="round" stroke-linejoin="round"/>
<path d="M484.66 452.4C483.294 452.4 481.984 451.857 481.018 450.891C480.052 449.925 479.509 448.615 479.509 447.249V433.329C479.508 432.652 479.64 431.981 479.898 431.355C480.156 430.729 480.535 430.16 481.014 429.68C481.492 429.201 482.06 428.82 482.686 428.561C483.312 428.301 483.982 428.167 484.66 428.167C485.337 428.167 486.008 428.301 486.633 428.561C487.259 428.82 487.827 429.201 488.306 429.68C488.784 430.16 489.163 430.729 489.421 431.355C489.679 431.981 489.811 432.652 489.81 433.329V447.249C489.81 448.615 489.267 449.925 488.301 450.891C487.336 451.857 486.026 452.4 484.66 452.4Z" fill="#263238" stroke="#263238" stroke-width="1.01" stroke-linecap="round" stroke-linejoin="round"/>
<path d="M488.14 432.854V441.484" stroke="white" stroke-width="1.01" stroke-linecap="round" stroke-linejoin="round"/>
<path d="M488.14 443.712V448.445" stroke="white" stroke-width="1.01" stroke-linecap="round" stroke-linejoin="round"/>
<path d="M371.861 489.381C370.495 489.381 369.185 488.838 368.219 487.872C367.253 486.907 366.711 485.597 366.711 484.231V470.311C366.711 468.945 367.253 467.635 368.219 466.669C369.185 465.703 370.495 465.16 371.861 465.16C372.538 465.159 373.209 465.291 373.836 465.549C374.462 465.807 375.031 466.186 375.51 466.665C375.99 467.143 376.37 467.711 376.63 468.337C376.889 468.963 377.023 469.633 377.023 470.311V484.231C377.023 484.908 376.889 485.579 376.63 486.204C376.37 486.83 375.99 487.398 375.51 487.877C375.031 488.355 374.462 488.734 373.836 488.992C373.209 489.25 372.538 489.383 371.861 489.381Z" fill="#263238" stroke="#263238" stroke-width="1.01" stroke-linecap="round" stroke-linejoin="round"/>
<path d="M375.353 469.893V478.523" stroke="white" stroke-width="1.01" stroke-linecap="round" stroke-linejoin="round"/>
<path d="M375.353 480.75V485.483" stroke="white" stroke-width="1.01" stroke-linecap="round" stroke-linejoin="round"/>
<path d="M394.4 489.381C393.034 489.381 391.724 488.838 390.758 487.872C389.792 486.907 389.25 485.597 389.25 484.231V470.311C389.25 468.945 389.792 467.635 390.758 466.669C391.724 465.703 393.034 465.16 394.4 465.16C395.077 465.159 395.747 465.291 396.373 465.549C396.998 465.807 397.567 466.187 398.045 466.665C398.524 467.144 398.903 467.712 399.161 468.338C399.42 468.963 399.552 469.634 399.55 470.311V484.231C399.552 484.907 399.42 485.578 399.161 486.203C398.903 486.829 398.524 487.397 398.045 487.876C397.567 488.354 396.998 488.734 396.373 488.992C395.747 489.25 395.077 489.383 394.4 489.381Z" fill="#263238" stroke="#263238" stroke-width="1.01" stroke-linecap="round" stroke-linejoin="round"/>
<path d="M397.903 469.893V478.523" stroke="white" stroke-width="1.01" stroke-linecap="round" stroke-linejoin="round"/>
<path d="M397.903 480.75V485.483" stroke="white" stroke-width="1.01" stroke-linecap="round" stroke-linejoin="round"/>
<path d="M416.985 489.381C415.619 489.381 414.309 488.838 413.343 487.872C412.377 486.907 411.835 485.597 411.835 484.231V470.311C411.835 468.945 412.377 467.635 413.343 466.669C414.309 465.703 415.619 465.16 416.985 465.16C418.351 465.16 419.661 465.703 420.627 466.669C421.593 467.635 422.136 468.945 422.136 470.311V484.231C422.136 485.597 421.593 486.907 420.627 487.872C419.661 488.838 418.351 489.381 416.985 489.381Z" fill="#263238" stroke="#263238" stroke-width="1.01" stroke-linecap="round" stroke-linejoin="round"/>
<path d="M420.465 469.893V478.523" stroke="white" stroke-width="1.01" stroke-linecap="round" stroke-linejoin="round"/>
<path d="M420.465 480.75V485.483" stroke="white" stroke-width="1.01" stroke-linecap="round" stroke-linejoin="round"/>
<path d="M439.547 489.381C438.87 489.383 438.2 489.25 437.574 488.992C436.949 488.734 436.38 488.354 435.902 487.876C435.423 487.397 435.044 486.829 434.786 486.203C434.527 485.578 434.395 484.907 434.397 484.231V470.311C434.395 469.634 434.527 468.963 434.786 468.338C435.044 467.712 435.423 467.144 435.902 466.665C436.38 466.187 436.949 465.807 437.574 465.549C438.2 465.291 438.87 465.159 439.547 465.16C440.913 465.16 442.223 465.703 443.189 466.669C444.155 467.635 444.698 468.945 444.698 470.311V484.231C444.698 485.597 444.155 486.907 443.189 487.872C442.223 488.838 440.913 489.381 439.547 489.381Z" fill="#263238" stroke="#263238" stroke-width="1.01" stroke-linecap="round" stroke-linejoin="round"/>
<path d="M443.027 469.893V478.523" stroke="white" stroke-width="1.01" stroke-linecap="round" stroke-linejoin="round"/>
<path d="M443.027 480.75V485.483" stroke="white" stroke-width="1.01" stroke-linecap="round" stroke-linejoin="round"/>
<path d="M462.109 489.381C461.432 489.383 460.761 489.25 460.135 488.992C459.508 488.734 458.939 488.355 458.46 487.877C457.98 487.398 457.6 486.83 457.34 486.204C457.081 485.579 456.947 484.908 456.947 484.231V470.311C456.947 469.633 457.081 468.963 457.34 468.337C457.6 467.711 457.98 467.143 458.46 466.665C458.939 466.186 459.508 465.807 460.135 465.549C460.761 465.291 461.432 465.159 462.109 465.16C463.475 465.16 464.785 465.703 465.751 466.669C466.717 467.635 467.26 468.945 467.26 470.311V484.231C467.26 485.597 466.717 486.907 465.751 487.872C464.785 488.838 463.475 489.381 462.109 489.381Z" fill="#263238" stroke="#263238" stroke-width="1.01" stroke-linecap="round" stroke-linejoin="round"/>
<path d="M465.589 469.893V478.523" stroke="white" stroke-width="1.01" stroke-linecap="round" stroke-linejoin="round"/>
<path d="M465.589 480.75V485.483" stroke="white" stroke-width="1.01" stroke-linecap="round" stroke-linejoin="round"/>
<path d="M484.66 489.381C483.294 489.381 481.984 488.838 481.018 487.872C480.052 486.907 479.509 485.597 479.509 484.231V470.311C479.509 468.945 480.052 467.635 481.018 466.669C481.984 465.703 483.294 465.16 484.66 465.16C485.336 465.159 486.007 465.291 486.632 465.549C487.258 465.807 487.826 466.187 488.305 466.665C488.783 467.144 489.163 467.712 489.421 468.338C489.679 468.963 489.811 469.634 489.81 470.311V484.231C489.811 484.907 489.679 485.578 489.421 486.203C489.163 486.829 488.783 487.397 488.305 487.876C487.826 488.354 487.258 488.734 486.632 488.992C486.007 489.25 485.336 489.383 484.66 489.381Z" fill="#263238" stroke="#263238" stroke-width="1.01" stroke-linecap="round" stroke-linejoin="round"/>
<path d="M488.14 469.893V478.523" stroke="white" stroke-width="1.01" stroke-linecap="round" stroke-linejoin="round"/>
<path d="M488.14 480.75V485.483" stroke="white" stroke-width="1.01" stroke-linecap="round" stroke-linejoin="round"/>
<path d="M383.276 419.619V422.519" stroke="#263238" stroke-width="0.5" stroke-linecap="round" stroke-linejoin="round"/>
<path d="M383.276 427.901V489.787" stroke="#263238" stroke-width="0.5" stroke-linecap="round" stroke-linejoin="round" stroke-dasharray="4.64 4.64"/>
<path d="M383.276 492.478V495.378" stroke="#263238" stroke-width="0.5" stroke-linecap="round" stroke-linejoin="round"/>
<path d="M405.838 419.619V422.519" stroke="#263238" stroke-width="0.5" stroke-linecap="round" stroke-linejoin="round"/>
<path d="M405.838 427.901V489.787" stroke="#263238" stroke-width="0.5" stroke-linecap="round" stroke-linejoin="round" stroke-dasharray="4.64 4.64"/>
<path d="M405.838 492.478V495.378" stroke="#263238" stroke-width="0.5" stroke-linecap="round" stroke-linejoin="round"/>
<path d="M428.4 419.619V422.519" stroke="#263238" stroke-width="0.5" stroke-linecap="round" stroke-linejoin="round"/>
<path d="M428.4 427.901V489.787" stroke="#263238" stroke-width="0.5" stroke-linecap="round" stroke-linejoin="round" stroke-dasharray="4.64 4.64"/>
<path d="M428.4 492.478V495.378" stroke="#263238" stroke-width="0.5" stroke-linecap="round" stroke-linejoin="round"/>
<path d="M450.95 419.619V422.519" stroke="#263238" stroke-width="0.5" stroke-linecap="round" stroke-linejoin="round"/>
<path d="M450.95 427.901V489.787" stroke="#263238" stroke-width="0.5" stroke-linecap="round" stroke-linejoin="round" stroke-dasharray="4.64 4.64"/>
<path d="M450.95 492.478V495.378" stroke="#263238" stroke-width="0.5" stroke-linecap="round" stroke-linejoin="round"/>
<path d="M473.512 419.619V422.519" stroke="#263238" stroke-width="0.5" stroke-linecap="round" stroke-linejoin="round"/>
<path d="M473.512 427.901V489.787" stroke="#263238" stroke-width="0.5" stroke-linecap="round" stroke-linejoin="round" stroke-dasharray="4.64 4.64"/>
<path d="M473.512 492.478V495.378" stroke="#263238" stroke-width="0.5" stroke-linecap="round" stroke-linejoin="round"/>
<path d="M362.106 458.049H493.847" stroke="#263238" stroke-width="0.5" stroke-linecap="round" stroke-linejoin="round" stroke-dasharray="5 5"/>
<path d="M488.058 427.031V408.088H457.423V427.031L450.08 437.088C449.048 438.511 448.491 440.225 448.491 441.983V500.528H496.944V441.96C496.944 440.201 496.387 438.488 495.355 437.065L488.058 427.031Z" fill="#263238" stroke="#263238" stroke-width="1.01" stroke-linecap="round" stroke-linejoin="round"/>
<path d="M488.07 399.4H457.55V402.683H488.07V399.4Z" fill="#263238" stroke="#263238" stroke-width="1.01" stroke-linecap="round" stroke-linejoin="round"/>
<path d="M492.501 391.941H452.968V400.351H492.501V391.941Z" fill="#AB0000" stroke="#263238" stroke-width="1.01" stroke-linecap="round" stroke-linejoin="round"/>
<path d="M491.028 402.52H454.442C453.628 402.52 452.968 403.18 452.968 403.993V407.728C452.968 408.542 453.628 409.202 454.442 409.202H491.028C491.842 409.202 492.501 408.542 492.501 407.728V403.993C492.501 403.18 491.842 402.52 491.028 402.52Z" fill="#263238" stroke="#263238" stroke-width="1.01" stroke-linecap="round" stroke-linejoin="round"/>
<path d="M479.822 445.568H448.502V484.567H479.822V445.568Z" fill="#AB0000" stroke="#263238" stroke-width="1.01" stroke-linecap="round" stroke-linejoin="round"/>
<path d="M295 134.189H141.056C131.754 134.189 124.213 141.73 124.213 151.032V483.511C124.213 492.814 131.754 500.355 141.056 500.355H295C304.302 500.355 311.843 492.814 311.843 483.511V151.032C311.843 141.73 304.302 134.189 295 134.189Z" fill="#263238"/>
<mask id="mask0_314_159" style="mask-type:luminance" maskUnits="userSpaceOnUse" x="124" y="134" width="188" height="367">
<path d="M295 134.189H141.056C131.754 134.189 124.213 141.73 124.213 151.032V483.511C124.213 492.814 131.754 500.355 141.056 500.355H295C304.302 500.355 311.843 492.814 311.843 483.511V151.032C311.843 141.73 304.302 134.189 295 134.189Z" fill="white"/>
</mask>
<g mask="url(#mask0_314_159)">
<path opacity="0.2" d="M140.36 134.189C136.071 134.189 131.958 135.893 128.926 138.925C125.893 141.958 124.189 146.071 124.189 150.359V484.184C124.187 486.55 124.706 488.887 125.708 491.03C126.71 493.173 128.172 495.07 129.989 496.585L239.459 134.189H140.36Z" fill="white"/>
<path d="M224.414 489.764C224.414 488.502 224.039 487.268 223.338 486.219C222.637 485.17 221.641 484.352 220.475 483.869C219.309 483.387 218.027 483.26 216.789 483.506C215.551 483.753 214.414 484.36 213.522 485.252C212.63 486.145 212.022 487.282 211.776 488.519C211.53 489.757 211.656 491.04 212.139 492.205C212.622 493.371 213.44 494.368 214.489 495.069C215.538 495.77 216.772 496.144 218.034 496.144C219.726 496.144 221.348 495.472 222.545 494.275C223.741 493.079 224.414 491.456 224.414 489.764Z" stroke="white" stroke-linecap="round" stroke-linejoin="round"/>
</g>
<path d="M295 134.189H141.056C131.754 134.189 124.213 141.73 124.213 151.032V483.511C124.213 492.814 131.754 500.355 141.056 500.355H295C304.302 500.355 311.843 492.814 311.843 483.511V151.032C311.843 141.73 304.302 134.189 295 134.189Z" stroke="#263238" stroke-linecap="round" stroke-linejoin="round"/>
<path d="M303.514 159.06H132.565V478.628H303.514V159.06Z" fill="#AB0000"/>
<mask id="mask1_314_159" style="mask-type:luminance" maskUnits="userSpaceOnUse" x="132" y="159" width="172" height="320">
<path d="M303.514 159.06H132.565V478.628H303.514V159.06Z" fill="white"/>
</mask>
<g mask="url(#mask1_314_159)">
<path d="M271.44 316.75L244.342 292.263L218.034 292.715L191.725 292.263L164.627 316.75L100.549 358.951V483.465H214.646H221.421H335.518V358.951L271.44 316.75Z" fill="white" stroke="#263238" stroke-width="1.01" stroke-linecap="round" stroke-linejoin="round"/>
<path d="M215.841 408.866L204.16 425.43C204.16 425.43 218.08 419.12 231.49 413.656C244.899 408.193 261.754 390.955 265.536 384.656C269.317 378.358 274.816 369.101 274.816 369.101L257.972 356.12H276.08C276.08 356.12 275.651 336.4 270.187 320.381" stroke="#263238" stroke-width="1.01" stroke-linecap="round" stroke-linejoin="round"/>
<path d="M210.505 416.104C208.545 415.28 206.561 414.457 204.578 413.656C191.133 408.193 174.313 390.955 170.532 384.656C166.75 378.358 161.252 369.101 161.252 369.101L178.106 356.12H160.08C160.08 356.12 160.509 336.4 165.973 320.381" stroke="#263238" stroke-width="1.01" stroke-linecap="round" stroke-linejoin="round"/>
<path d="M189.393 294.119C189.393 294.119 184.162 377.186 215.841 408.866C215.841 408.866 249.261 385.921 249.261 295.116L189.393 294.119Z" fill="white"/>
<mask id="mask2_314_159" style="mask-type:luminance" maskUnits="userSpaceOnUse" x="189" y="294" width="61" height="115">
<path d="M189.393 294.119C189.393 294.119 184.162 377.186 215.841 408.866C215.841 408.866 249.261 385.921 249.261 295.116L189.393 294.119Z" fill="white"/>
</mask>
<g mask="url(#mask2_314_159)">
<path d="M207.083 199.59H234.03C241.755 199.59 249.164 202.659 254.626 208.122C260.089 213.584 263.158 220.993 263.158 228.718V289.166C263.159 294.301 262.149 299.386 260.186 304.131C258.222 308.876 255.343 313.187 251.713 316.819C248.083 320.452 243.773 323.333 239.029 325.3C234.285 327.266 229.201 328.279 224.066 328.281H217.106C211.971 328.281 206.886 327.269 202.141 325.304C197.397 323.339 193.086 320.459 189.455 316.828C185.824 313.196 182.944 308.886 180.979 304.141C179.014 299.397 178.002 294.312 178.002 289.177V228.718C178.002 220.993 181.071 213.584 186.533 208.122C191.996 202.659 199.405 199.59 207.13 199.59H207.083Z" fill="#AB0000"/>
<path opacity="0.5" d="M207.083 199.59H234.03C241.755 199.59 249.164 202.659 254.626 208.122C260.089 213.584 263.158 220.993 263.158 228.718V289.166C263.159 294.301 262.149 299.386 260.186 304.131C258.222 308.876 255.343 313.187 251.713 316.819C248.083 320.452 243.773 323.333 239.029 325.3C234.285 327.266 229.201 328.279 224.066 328.281H217.106C211.971 328.281 206.886 327.269 202.141 325.304C197.397 323.339 193.086 320.459 189.455 316.828C185.824 313.196 182.944 308.886 180.979 304.141C179.014 299.397 178.002 294.312 178.002 289.177V228.718C178.002 220.993 181.071 213.584 186.533 208.122C191.996 202.659 199.405 199.59 207.13 199.59H207.083Z" fill="white"/>
</g>
<path d="M189.393 294.119C189.393 294.119 184.162 377.186 215.841 408.866C215.841 408.866 249.261 385.921 249.261 295.116L189.393 294.119Z" stroke="#263238" stroke-width="1.01" stroke-linecap="round" stroke-linejoin="round"/>
<path d="M202.722 287.042C202.722 287.042 199.822 323.292 217.326 337.12C217.326 337.12 235.793 327.109 235.793 287.483L202.722 287.042Z" stroke="#263238" stroke-width="1.01" stroke-linecap="round" stroke-linejoin="round"/>
<path d="M196.875 348.499L217.326 337.12L240.282 352.988" stroke="#263238" stroke-width="1.01" stroke-linecap="round" stroke-linejoin="round"/>
<path d="M222.824 355.482L226.815 344.01L217.326 337.12L204.856 344.01L211.34 354.45L201.109 385.178C204.798 394.366 209.6 402.578 215.841 408.831C215.841 408.831 224.727 402.729 233.334 384.366L222.824 355.482Z" fill="#AB0000" stroke="#263238" stroke-width="1.01" stroke-linecap="round" stroke-linejoin="round"/>
<path d="M263.701 418.114C272.787 416.633 278.952 408.066 277.471 398.98C275.989 389.894 267.423 383.729 258.336 385.21C249.25 386.692 243.085 395.258 244.567 404.345C246.048 413.431 254.615 419.596 263.701 418.114Z" fill="white" stroke="#263238" stroke-width="1.01" stroke-linecap="round" stroke-linejoin="round"/>
<path d="M272.084 406.211C274.601 400.09 271.679 393.088 265.558 390.572C259.438 388.055 252.436 390.977 249.919 397.098C247.402 403.218 250.324 410.22 256.445 412.737C262.566 415.253 269.568 412.332 272.084 406.211Z" fill="white" stroke="#263238" stroke-width="1.01" stroke-linecap="round" stroke-linejoin="round"/>
<path d="M261 404.214C260.323 404.214 259.674 403.945 259.195 403.467C258.717 402.988 258.448 402.339 258.448 401.662V303.723C258.448 303.047 258.717 302.397 259.195 301.919C259.674 301.44 260.323 301.171 261 301.171C261.677 301.171 262.326 301.44 262.805 301.919C263.283 302.397 263.552 303.047 263.552 303.723V401.662C263.554 401.998 263.489 402.33 263.361 402.641C263.233 402.951 263.045 403.233 262.808 403.47C262.571 403.707 262.289 403.895 261.978 404.023C261.668 404.151 261.336 404.216 261 404.214Z" fill="#263238"/>
<path d="M180.461 439.733H180.218C177.898 439.339 155.637 417.693 153.538 411.893C151.438 406.093 152.03 396.813 152.053 396.465C152.074 396.127 152.229 395.811 152.484 395.587C152.738 395.363 153.072 395.249 153.41 395.271C153.748 395.292 154.064 395.447 154.289 395.702C154.513 395.956 154.626 396.289 154.605 396.628C154.605 396.709 154.083 405.734 155.939 411.058C157.644 415.919 177.457 435.325 180.589 437.216C182.329 436.671 188.709 430.952 191.029 425.094C191.091 424.938 191.182 424.796 191.299 424.675C191.416 424.554 191.555 424.458 191.709 424.391C191.863 424.324 192.029 424.289 192.197 424.286C192.365 424.283 192.531 424.313 192.688 424.375C192.844 424.437 192.986 424.529 193.107 424.645C193.228 424.762 193.324 424.901 193.391 425.056C193.458 425.21 193.493 425.375 193.496 425.543C193.499 425.711 193.469 425.878 193.407 426.034C190.994 432.24 183.396 439.733 180.461 439.733Z" fill="white" stroke="#263238" stroke-width="1.01" stroke-linecap="round" stroke-linejoin="round"/>
<path d="M160.683 439.733C157.737 439.733 150.15 432.24 147.691 425.964C147.567 425.649 147.572 425.297 147.707 424.986C147.842 424.675 148.095 424.43 148.41 424.305C148.726 424.181 149.078 424.186 149.389 424.321C149.7 424.456 149.945 424.709 150.069 425.024C152.389 430.882 158.758 436.624 160.509 437.146C163.641 435.256 183.454 415.849 185.159 410.988C187.015 405.664 186.505 396.639 186.493 396.558C186.472 396.22 186.585 395.886 186.81 395.632C187.034 395.377 187.35 395.222 187.688 395.201C188.026 395.179 188.36 395.293 188.614 395.517C188.869 395.741 189.024 396.057 189.045 396.396C189.045 396.79 189.602 406.024 187.56 411.824C185.519 417.624 163.305 439.316 160.88 439.664L160.683 439.733Z" fill="white" stroke="#263238" stroke-width="1.01" stroke-linecap="round" stroke-linejoin="round"/>
<path d="M170.88 353.163C170.204 353.16 169.556 352.89 169.078 352.412C168.601 351.934 168.331 351.287 168.328 350.611V307.888C168.328 307.211 168.597 306.562 169.075 306.083C169.554 305.605 170.203 305.336 170.88 305.336C171.556 305.336 172.206 305.605 172.684 306.083C173.163 306.562 173.432 307.211 173.432 307.888V350.611C173.432 350.946 173.366 351.278 173.237 351.587C173.109 351.897 172.921 352.178 172.684 352.415C172.447 352.652 172.166 352.84 171.856 352.968C171.547 353.097 171.215 353.163 170.88 353.163Z" fill="#263238"/>
<path d="M187.549 401.616C186.873 401.613 186.226 401.343 185.748 400.865C185.27 400.387 185 399.74 184.997 399.064V368.324C184.997 364.441 183.454 360.718 180.709 357.972C177.964 355.227 174.24 353.685 170.358 353.685C166.475 353.685 162.751 355.227 160.006 357.972C157.261 360.718 155.718 364.441 155.718 368.324V399.041C155.718 399.717 155.45 400.367 154.971 400.845C154.492 401.324 153.843 401.593 153.166 401.593C152.49 401.593 151.84 401.324 151.362 400.845C150.883 400.367 150.614 399.717 150.614 399.041V368.301C150.614 363.07 152.692 358.055 156.39 354.356C160.088 350.658 165.104 348.581 170.334 348.581C175.564 348.581 180.58 350.658 184.279 354.356C187.977 358.055 190.054 363.07 190.054 368.301V399.041C190.058 399.713 189.797 400.359 189.328 400.841C188.86 401.322 188.221 401.601 187.549 401.616Z" fill="#263238"/>
<path d="M145.334 421.212L144.903 421.547C143.608 422.553 143.373 424.419 144.38 425.714L146.265 428.141C147.271 429.437 149.137 429.671 150.432 428.665L150.863 428.33C152.158 427.324 152.392 425.459 151.386 424.164L149.5 421.736C148.494 420.441 146.629 420.206 145.334 421.212Z" fill="white" stroke="#263238" stroke-width="1.01" stroke-linecap="round" stroke-linejoin="round"/>
<path d="M189.834 428.315L190.264 428.65C191.56 429.656 193.425 429.422 194.431 428.127L196.317 425.699C197.323 424.404 197.089 422.538 195.794 421.532L195.363 421.198C194.068 420.191 192.202 420.426 191.196 421.721L189.31 424.149C188.304 425.444 188.539 427.309 189.834 428.315Z" fill="white" stroke="#263238" stroke-width="1.01" stroke-linecap="round" stroke-linejoin="round"/>
<path d="M175.752 240.434H174.673C171.329 240.434 168.618 243.145 168.618 246.489V257.358C168.618 260.702 171.329 263.413 174.673 263.413H175.752C179.096 263.413 181.807 260.702 181.807 257.358V246.489C181.807 243.145 179.096 240.434 175.752 240.434Z" fill="white" stroke="#263238" stroke-width="1.01" stroke-linecap="round" stroke-linejoin="round"/>
<path d="M264.886 240.434H263.807C260.463 240.434 257.752 243.145 257.752 246.489V257.358C257.752 260.702 260.463 263.413 263.807 263.413H264.886C268.23 263.413 270.941 260.702 270.941 257.358V246.489C270.941 243.145 268.23 240.434 264.886 240.434Z" fill="white" stroke="#263238" stroke-width="1.01" stroke-linecap="round" stroke-linejoin="round"/>
<path d="M207.083 182.863H234.03C241.755 182.863 249.164 185.932 254.626 191.394C260.089 196.857 263.158 204.265 263.158 211.99V272.438C263.158 282.809 259.038 292.755 251.704 300.088C244.371 307.422 234.425 311.542 224.054 311.542H217.094C211.959 311.542 206.874 310.53 202.13 308.565C197.386 306.6 193.075 303.72 189.444 300.088C185.813 296.457 182.932 292.147 180.967 287.402C179.002 282.658 177.99 277.573 177.99 272.438V211.99C177.99 204.271 181.054 196.868 186.509 191.406C191.964 185.945 199.364 182.872 207.083 182.863Z" fill="white" stroke="#263238" stroke-width="1.01" stroke-linecap="round" stroke-linejoin="round"/>
<path d="M210.54 233.729H197.107C195.896 233.729 194.915 234.711 194.915 235.921V236.316C194.915 237.527 195.896 238.508 197.107 238.508H210.54C211.751 238.508 212.732 237.527 212.732 236.316V235.921C212.732 234.711 211.751 233.729 210.54 233.729Z" fill="#263238" stroke="#263238" stroke-width="1.01" stroke-linecap="round" stroke-linejoin="round"/>
<path d="M245.746 233.729H232.313C231.102 233.729 230.121 234.711 230.121 235.921V236.316C230.121 237.527 231.102 238.508 232.313 238.508H245.746C246.957 238.508 247.938 237.527 247.938 236.316V235.921C247.938 234.711 246.957 233.729 245.746 233.729Z" fill="#263238" stroke="#263238" stroke-width="1.01" stroke-linecap="round" stroke-linejoin="round"/>
<path d="M208.8 248.298C208.8 251.059 207.536 253.286 205.97 253.286C204.404 253.286 203.151 251.059 203.151 248.298C203.151 245.538 204.415 243.299 205.97 243.299C207.524 243.299 208.8 245.538 208.8 248.298Z" fill="#263238" stroke="#263238" stroke-width="1.01" stroke-linecap="round" stroke-linejoin="round"/>
<path d="M240.561 248.298C240.561 251.059 239.296 253.286 237.73 253.286C236.164 253.286 234.9 251.059 234.9 248.298C234.9 245.538 236.164 243.299 237.73 243.299C239.296 243.299 240.561 245.538 240.561 248.298Z" fill="#263238" stroke="#263238" stroke-width="1.01" stroke-linecap="round" stroke-linejoin="round"/>
<path d="M235.793 182.863H205.32C198.063 182.863 191.102 185.746 185.971 190.878C180.839 196.01 177.956 202.97 177.956 210.227V274.526C177.956 284.343 181.856 293.758 188.797 300.7C195.739 307.642 205.154 311.542 214.971 311.542H226.2C231.061 311.543 235.876 310.587 240.367 308.727C244.859 306.867 248.94 304.141 252.377 300.703C255.815 297.266 258.541 293.185 260.401 288.693C262.261 284.201 263.217 279.387 263.216 274.526V210.227C263.216 206.629 262.506 203.066 261.127 199.742C259.748 196.418 257.728 193.399 255.18 190.857C252.633 188.315 249.61 186.301 246.283 184.929C242.956 183.557 239.392 182.855 235.793 182.863ZM256.673 265.466C256.673 265.466 256.673 273.285 248.855 281.115C248.855 281.115 240.596 270.246 237.116 269.376C234.865 268.819 226.49 268.981 220.806 269.167C215.134 268.981 206.747 268.819 204.566 269.376C201.086 270.246 192.827 281.115 192.827 281.115C185.008 273.285 185.008 265.466 185.008 265.466V229.82L189.08 224.46C190.637 222.468 191.53 220.037 191.632 217.511C191.734 214.984 191.04 212.489 189.648 210.378C188.186 208.136 187.549 205.454 187.848 202.794C188.146 200.133 189.361 197.659 191.284 195.797L191.365 195.727C193.228 193.926 195.643 192.804 198.221 192.543C200.799 192.282 203.39 192.897 205.575 194.289L211.654 199.056C214.304 201.126 217.571 202.25 220.934 202.25C224.297 202.25 227.563 201.126 230.214 199.056L236.269 194.289C238.466 192.889 241.071 192.269 243.664 192.53C246.256 192.791 248.686 193.917 250.56 195.727L250.63 195.797C252.555 197.695 253.761 200.204 254.04 202.894C254.32 205.584 253.655 208.287 252.161 210.54C250.818 212.645 250.162 215.116 250.284 217.61C250.407 220.103 251.302 222.498 252.845 224.46L257.056 229.82L256.673 265.466Z" fill="#263238" stroke="#263238" stroke-width="1.01" stroke-linecap="round" stroke-linejoin="round"/>
<path d="M227.082 263.982C227.082 263.982 232.302 263.286 232.302 266.302C232.302 269.318 229.251 271.51 223.172 269.341" fill="white"/>
<path d="M227.082 263.982C227.082 263.982 232.302 263.286 232.302 266.302C232.302 269.318 229.251 271.51 223.172 269.341" stroke="#263238" stroke-width="1.01" stroke-linecap="round" stroke-linejoin="round"/>
<path d="M226.641 239.378V264.596C226.641 265.979 226.092 267.305 225.116 268.283C224.14 269.262 222.815 269.813 221.432 269.816H216.792C213.475 270.048 212.315 269.236 211.92 267.833C211.797 267.365 211.773 266.877 211.849 266.4C211.925 265.923 212.099 265.466 212.361 265.06C212.361 263.761 217.906 263.761 217.906 263.761" fill="white"/>
<path d="M226.641 239.378V264.596C226.641 265.979 226.092 267.305 225.116 268.283C224.14 269.262 222.815 269.813 221.432 269.816H216.792C213.475 270.048 212.315 269.236 211.92 267.833C211.797 267.365 211.773 266.877 211.849 266.4C211.925 265.923 212.099 265.466 212.361 265.06C212.361 263.761 217.906 263.761 217.906 263.761" stroke="#263238" stroke-width="1.01" stroke-linecap="round" stroke-linejoin="round"/>
<path d="M221.177 284.201C216.336 284.228 211.572 282.984 207.362 280.593C206.947 280.316 206.658 279.888 206.555 279.4C206.451 278.912 206.542 278.404 206.808 277.982C207.074 277.56 207.494 277.259 207.979 277.142C208.463 277.026 208.974 277.103 209.403 277.357C213.049 279.349 217.142 280.383 221.297 280.363C225.451 280.342 229.533 279.268 233.16 277.241C233.382 277.11 233.629 277.025 233.885 276.992C234.141 276.959 234.401 276.978 234.65 277.048C234.898 277.118 235.13 277.238 235.331 277.4C235.532 277.562 235.698 277.763 235.82 277.991C235.941 278.219 236.015 278.469 236.037 278.726C236.059 278.983 236.029 279.242 235.949 279.487C235.868 279.733 235.739 279.959 235.569 280.153C235.399 280.347 235.191 280.505 234.958 280.616C230.734 282.938 225.997 284.17 221.177 284.201Z" fill="white" stroke="#263238" stroke-width="1.01" stroke-linecap="round" stroke-linejoin="round"/>
<path d="M235.144 255.838H243.565" stroke="#263238" stroke-width="1.01" stroke-linecap="round" stroke-linejoin="round"/>
<path d="M201.689 255.838H210.111" stroke="#263238" stroke-width="1.01" stroke-linecap="round" stroke-linejoin="round"/>
<path d="M168.328 471.239C176.643 471.239 183.384 464.498 183.384 456.182C183.384 447.867 176.643 441.125 168.328 441.125C160.012 441.125 153.271 447.867 153.271 456.182C153.271 464.498 160.012 471.239 168.328 471.239Z" stroke="#263238" stroke-width="0.724166" stroke-linecap="round" stroke-linejoin="round"/>
<path d="M168.304 459.906C167.498 459.906 166.725 459.585 166.155 459.015C165.585 458.445 165.265 457.672 165.265 456.866V447.238C165.265 446.432 165.585 445.659 166.155 445.089C166.725 444.519 167.498 444.199 168.304 444.199C169.11 444.199 169.884 444.519 170.454 445.089C171.023 445.659 171.344 446.432 171.344 447.238V456.866C171.344 457.672 171.023 458.445 170.454 459.015C169.884 459.585 169.11 459.906 168.304 459.906Z" fill="#263238"/>
<path d="M168.328 462.098C166.904 462.095 165.54 461.528 164.533 460.522C163.527 459.515 162.96 458.151 162.957 456.727V452.203C162.957 452.056 163.015 451.914 163.12 451.81C163.224 451.705 163.366 451.647 163.514 451.647C163.587 451.645 163.66 451.658 163.729 451.686C163.797 451.713 163.859 451.754 163.911 451.806C163.963 451.858 164.004 451.92 164.031 451.988C164.059 452.057 164.072 452.13 164.07 452.203V456.727C164.127 457.82 164.601 458.848 165.395 459.601C166.188 460.354 167.24 460.774 168.333 460.774C169.427 460.774 170.479 460.354 171.272 459.601C172.065 458.848 172.539 457.82 172.596 456.727V452.203C172.595 452.13 172.608 452.057 172.636 451.988C172.663 451.92 172.704 451.858 172.756 451.806C172.808 451.754 172.87 451.713 172.938 451.686C173.007 451.658 173.08 451.645 173.153 451.647C173.301 451.647 173.442 451.705 173.547 451.81C173.651 451.914 173.71 452.056 173.71 452.203V456.727C173.707 458.153 173.138 459.519 172.129 460.526C171.12 461.533 169.753 462.098 168.328 462.098Z" fill="#263238"/>
<path d="M168.328 467.875C168.255 467.875 168.183 467.86 168.116 467.832C168.049 467.804 167.989 467.763 167.938 467.711C167.887 467.659 167.847 467.598 167.821 467.53C167.794 467.463 167.781 467.391 167.782 467.318V461.518C167.782 461.364 167.844 461.217 167.952 461.108C168.061 460.999 168.209 460.938 168.362 460.938C168.516 460.938 168.664 460.999 168.773 461.108C168.881 461.217 168.942 461.364 168.942 461.518V467.318C168.945 467.397 168.93 467.475 168.899 467.548C168.868 467.62 168.822 467.685 168.763 467.738C168.705 467.791 168.636 467.831 168.561 467.854C168.485 467.878 168.406 467.885 168.328 467.875Z" fill="#263238"/>
<path d="M172.04 468.177H164.627C164.48 468.174 164.341 468.114 164.237 468.01C164.133 467.906 164.073 467.767 164.07 467.62C164.07 467.472 164.129 467.33 164.234 467.226C164.338 467.122 164.48 467.063 164.627 467.063H172.04C172.187 467.063 172.329 467.122 172.433 467.226C172.538 467.33 172.596 467.472 172.596 467.62C172.593 467.767 172.534 467.906 172.43 468.01C172.326 468.114 172.186 468.174 172.04 468.177Z" fill="#263238"/>
<path d="M268.03 471.239C276.345 471.239 283.086 464.498 283.086 456.182C283.086 447.867 276.345 441.125 268.03 441.125C259.714 441.125 252.973 447.867 252.973 456.182C252.973 464.498 259.714 471.239 268.03 471.239Z" stroke="#263238" stroke-width="0.724166" stroke-linecap="round" stroke-linejoin="round"/>
<path d="M277.321 451.774L272.925 454.314V452.226C272.922 451.752 272.731 451.297 272.394 450.962C272.057 450.628 271.602 450.44 271.127 450.44H261.197C260.962 450.438 260.728 450.484 260.51 450.573C260.292 450.662 260.094 450.793 259.927 450.959C259.759 451.125 259.627 451.323 259.536 451.54C259.446 451.758 259.399 451.991 259.399 452.226V460.23C259.398 460.467 259.443 460.701 259.533 460.92C259.623 461.139 259.755 461.338 259.922 461.505C260.09 461.672 260.288 461.805 260.507 461.895C260.726 461.984 260.961 462.03 261.197 462.028H271.127C271.363 462.028 271.597 461.982 271.815 461.892C272.033 461.801 272.231 461.669 272.398 461.502C272.565 461.335 272.698 461.137 272.788 460.918C272.878 460.7 272.925 460.466 272.925 460.23V458.2L277.321 460.741V451.774Z" fill="#263238"/>
<path d="M218.184 471.239C226.5 471.239 233.241 464.498 233.241 456.182C233.241 447.867 226.5 441.125 218.184 441.125C209.869 441.125 203.128 447.867 203.128 456.182C203.128 464.498 209.869 471.239 218.184 471.239Z" fill="#263238" stroke="#263238" stroke-width="0.724166" stroke-linecap="round" stroke-linejoin="round"/>
<path d="M225.806 453.004H210.563C210.141 453.004 209.724 453.096 209.342 453.275C208.96 453.454 208.621 453.715 208.351 454.04C208.081 454.364 207.886 454.744 207.779 455.152C207.672 455.561 207.656 455.988 207.733 456.403L208.174 458.792C208.206 458.954 208.292 459.1 208.419 459.206C208.546 459.311 208.705 459.37 208.87 459.372H213.51C213.7 459.372 213.883 459.297 214.018 459.162C214.153 459.027 214.229 458.844 214.229 458.653V456.066H222.233V458.653C222.233 458.844 222.309 459.027 222.443 459.162C222.578 459.297 222.761 459.372 222.952 459.372H227.592C227.759 459.373 227.921 459.315 228.05 459.209C228.179 459.104 228.267 458.956 228.3 458.792L228.74 456.403C228.819 455.979 228.801 455.543 228.688 455.127C228.576 454.71 228.371 454.325 228.089 453.999C227.807 453.672 227.456 453.414 227.061 453.241C226.665 453.069 226.236 452.988 225.806 453.004Z" fill="#AB0000"/>
<path d="M296.786 162.377H282.611V170.149H296.786V162.377Z" stroke="#263238" stroke-width="0.821067" stroke-linecap="round" stroke-linejoin="round"/>
<path d="M293.666 162.377H282.611V170.149H293.666V162.377Z" fill="#263238" stroke="#263238" stroke-width="0.725073" stroke-linecap="round" stroke-linejoin="round"/>
<path d="M298.746 164.546H296.751V167.968H298.746V164.546Z" fill="#263238" stroke="#263238" stroke-width="0.725073" stroke-linecap="round" stroke-linejoin="round"/>
<path d="M138.098 164.779H135.5V169.233H138.098V164.779Z" fill="#263238" stroke="#263238" stroke-width="0.883086" stroke-linecap="round" stroke-linejoin="round"/>
<path d="M142.181 163.224H139.583V169.245H142.181V163.224Z" fill="#263238" stroke="#263238" stroke-width="0.883086" stroke-linecap="round" stroke-linejoin="round"/>
<path d="M146.264 161.368H143.666V169.233H146.264V161.368Z" fill="#263238" stroke="#263238" stroke-width="0.883086" stroke-linecap="round" stroke-linejoin="round"/>
</g>
<path d="M303.514 159.06H132.565V478.628H303.514V159.06Z" stroke="#263238" stroke-linecap="round" stroke-linejoin="round"/>
<path d="M93.1713 500.354H527.139" stroke="#263238" stroke-width="1.01" stroke-linecap="round" stroke-linejoin="round"/>
<path d="M69.3912 500.354H80.8636" stroke="#263238" stroke-width="1.01" stroke-linecap="round" stroke-linejoin="round"/>
</svg>
