<svg width="513" height="442" viewBox="0 0 513 442" fill="none" xmlns="http://www.w3.org/2000/svg">
<path d="M513 338.042H0V338.263H513V338.042Z" fill="#EBEBEB"/>
<path d="M461.597 352.265H427.616V352.486H461.597V352.265Z" fill="#EBEBEB"/>
<path d="M339.832 354.67H330.916V354.891H339.832V354.67Z" fill="#EBEBEB"/>
<path d="M426.59 344.062H377.681V344.283H426.59V344.062Z" fill="#EBEBEB"/>
<path d="M78.1197 345.547H53.824V345.768H78.1197V345.547Z" fill="#EBEBEB"/>
<path d="M113.773 345.547H87.251V345.768H113.773V345.547Z" fill="#EBEBEB"/>
<path d="M201.209 349.277H134.888V349.498H201.209V349.277Z" fill="#EBEBEB"/>
<path d="M243.162 298.615H45.0516C43.4996 298.613 42.0121 298.08 40.9156 297.134C39.8192 296.187 39.2034 294.905 39.2034 293.568V53.6236C39.2169 52.294 39.8387 51.0228 40.9337 50.086C42.0287 49.1492 43.5084 48.6224 45.0516 48.6201H243.162C244.716 48.6201 246.206 49.1519 247.304 50.0985C248.403 51.0452 249.02 52.329 249.02 53.6678V293.568C249.02 294.906 248.403 296.19 247.304 297.137C246.206 298.083 244.716 298.615 243.162 298.615ZM45.0516 48.7969C43.5676 48.7993 42.1454 49.3088 41.097 50.2137C40.0487 51.1186 39.4599 52.345 39.4599 53.6236V293.568C39.4599 294.846 40.0487 296.073 41.097 296.977C42.1454 297.882 43.5676 298.392 45.0516 298.394H243.162C244.647 298.392 246.07 297.883 247.12 296.978C248.17 296.073 248.761 294.847 248.764 293.568V53.6236C248.761 52.3442 248.17 51.1179 247.12 50.2132C246.07 49.3085 244.647 48.7993 243.162 48.7969H45.0516Z" fill="#EBEBEB"/>
<path d="M465.096 298.615H266.975C265.422 298.613 263.934 298.08 262.836 297.134C261.738 296.188 261.12 294.906 261.117 293.568V53.6236C261.133 52.2932 261.757 51.022 262.854 50.0854C263.95 49.1488 265.431 48.6224 266.975 48.6201H465.096C466.637 48.6247 468.115 49.1525 469.207 50.0891C470.3 51.0257 470.92 52.2956 470.934 53.6236V293.568C470.934 294.903 470.32 296.185 469.225 297.131C468.131 298.077 466.646 298.611 465.096 298.615ZM266.975 48.7969C265.49 48.7993 264.067 49.3085 263.017 50.2132C261.967 51.1179 261.376 52.3442 261.373 53.6236V293.568C261.376 294.847 261.967 296.073 263.017 296.978C264.067 297.883 265.49 298.392 266.975 298.394H465.096C466.581 298.392 468.004 297.883 469.054 296.978C470.104 296.073 470.695 294.847 470.698 293.568V53.6236C470.695 52.3442 470.104 51.1179 469.054 50.2132C468.004 49.3085 466.581 48.7993 465.096 48.7969H266.975Z" fill="#EBEBEB"/>
<path d="M452.887 71.604H290.81V338.042H452.887V71.604Z" fill="#EBEBEB"/>
<path d="M440.831 80.2939H302.865V338.042H440.831V80.2939Z" fill="#F5F5F5"/>
<path d="M391.255 101.669H352.462V110.907H391.255V101.669Z" fill="white"/>
<path d="M408.728 193.437H429.771C430.642 193.437 431.477 193.735 432.092 194.266C432.708 194.796 433.054 195.516 433.054 196.266C433.054 197.016 432.708 197.736 432.092 198.266C431.477 198.797 430.642 199.095 429.771 199.095H408.728C407.857 199.095 407.022 198.797 406.406 198.266C405.79 197.736 405.444 197.016 405.444 196.266C405.444 195.516 405.79 194.796 406.406 194.266C407.022 193.735 407.857 193.437 408.728 193.437Z" fill="white"/>
<path d="M180.002 99.9541H72.21V174.802H180.002V99.9541Z" fill="#EBEBEB"/>
<path d="M174.205 169.817V104.94H77.9863V169.817H174.205Z" fill="#FAFAFA"/>
<path d="M162.99 138.231V135.128H89.2106V138.231H162.99Z" fill="#E0E0E0"/>
<path d="M162.99 145.294V142.191H89.2106V145.294H162.99Z" fill="#E0E0E0"/>
<path d="M162.99 152.348V149.246H89.2106V152.348H162.99Z" fill="#E0E0E0"/>
<path d="M144.492 159.412V156.309H107.71V159.412H144.492Z" fill="#E0E0E0"/>
<path d="M89.2621 104.94C89.2621 106.214 88.9697 107.475 88.4016 108.652C87.8336 109.828 87.0011 110.896 85.9522 111.794C84.9032 112.692 83.6585 113.402 82.2896 113.884C80.9208 114.366 79.4548 114.61 77.9761 114.602C75.9358 114.606 73.9337 114.126 72.1895 113.214V99.9541H87.5795C88.6578 101.453 89.2397 103.177 89.2621 104.94Z" fill="#EBEBEB"/>
<path d="M180.001 99.9541V113.214C177.856 114.326 175.342 114.787 172.857 114.525C170.373 114.263 168.061 113.292 166.291 111.767C164.521 110.242 163.395 108.25 163.09 106.11C162.786 103.969 163.321 101.802 164.611 99.9541H180.001Z" fill="#EBEBEB"/>
<path d="M89.262 169.825C89.2656 171.579 88.7121 173.3 87.6615 174.802H72.2715V161.542C73.9737 160.664 75.9157 160.19 77.8996 160.169C79.8835 160.148 81.8384 160.581 83.5651 161.422C85.2919 162.264 86.7289 163.485 87.7296 164.961C88.7304 166.437 89.2591 168.116 89.262 169.825Z" fill="#EBEBEB"/>
<path d="M180.001 161.533V174.793H164.611C163.553 173.294 162.995 171.571 163.001 169.816C163.003 168.105 163.532 166.424 164.533 164.946C165.535 163.468 166.974 162.245 168.703 161.402C170.432 160.559 172.39 160.126 174.377 160.148C176.363 160.169 178.308 160.644 180.012 161.524L180.001 161.533Z" fill="#EBEBEB"/>
<path d="M135.533 122.066C136.378 117.579 132.842 113.352 127.635 112.623C122.428 111.895 117.521 114.942 116.676 119.429C115.83 123.915 119.367 128.143 124.574 128.871C129.781 129.599 134.688 126.552 135.533 122.066Z" fill="#E0E0E0"/>
<path d="M267.109 231.741H53.824V238.353H267.109V231.741Z" fill="#EBEBEB"/>
<path d="M265.262 238.353H195.966V338.042H265.262V238.353Z" fill="#F5F5F5"/>
<path d="M125.757 238.353H56.4607V338.042H125.757V238.353Z" fill="#F5F5F5"/>
<path d="M58.8308 238.353H56.4607V338.042H58.8308V238.353Z" fill="#EBEBEB"/>
<path d="M198.336 238.353H195.966V338.042H198.336V238.353Z" fill="#EBEBEB"/>
<path d="M92.853 215.802H80.1101L81.1361 231.741H91.827L92.853 215.802Z" fill="#F0F0F0"/>
<path d="M203.487 224.828H136.909V231.741H203.487V224.828Z" fill="#F0F0F0"/>
<path d="M203.497 225.641H172.799V230.936H203.497V225.641Z" fill="#FAFAFA"/>
<path d="M256.5 377.963C366.367 377.963 455.431 373.483 455.431 367.956C455.431 362.429 366.367 357.949 256.5 357.949C146.633 357.949 57.5688 362.429 57.5688 367.956C57.5688 373.483 146.633 377.963 256.5 377.963Z" fill="#F5F5F5"/>
<path d="M349.568 306.059C367.52 306.059 382.072 293.52 382.072 278.053C382.072 262.587 367.52 250.048 349.568 250.048C331.617 250.048 317.065 262.587 317.065 278.053C317.065 293.52 331.617 306.059 349.568 306.059Z" fill="white"/>
<path d="M349.568 306.403C343.06 306.405 336.698 304.744 331.285 301.63C325.873 298.516 321.654 294.089 319.162 288.909C316.67 283.729 316.017 278.028 317.285 272.528C318.554 267.028 321.687 261.976 326.288 258.01C330.889 254.045 336.752 251.344 343.135 250.249C349.518 249.154 356.135 249.715 362.147 251.861C368.16 254.006 373.3 257.64 376.916 262.302C380.532 266.965 382.462 272.446 382.462 278.054C382.454 285.569 378.986 292.774 372.819 298.089C366.653 303.404 358.291 306.394 349.568 306.403ZM349.568 250.402C343.218 250.402 337.011 252.024 331.732 255.064C326.452 258.104 322.337 262.424 319.908 267.479C317.478 272.534 316.843 278.096 318.082 283.462C319.322 288.828 322.381 293.756 326.871 297.624C331.362 301.492 337.083 304.126 343.312 305.192C349.54 306.259 355.995 305.71 361.861 303.615C367.727 301.52 372.74 297.973 376.266 293.423C379.793 288.873 381.674 283.525 381.672 278.054C381.664 270.721 378.279 263.69 372.259 258.506C366.24 253.321 358.079 250.407 349.568 250.402Z" fill="#AB0000"/>
<path d="M354.801 262.177H344.336V293.93H354.801V262.177Z" fill="#AB0000"/>
<path d="M367.995 282.571V273.554H331.141V282.571H367.995Z" fill="#AB0000"/>
<path d="M129.389 66.3619L128.691 65.7166C133.441 61.8482 139.467 59.3462 145.938 58.5562L146.082 59.4402C139.819 60.2011 133.986 62.6199 129.389 66.3619Z" fill="#AB0000"/>
<path d="M121.796 76.024L120.842 75.7058C121.878 73.4538 123.258 71.3311 124.946 69.394L125.767 69.9244C124.139 71.7991 122.804 73.8498 121.796 76.024Z" fill="#AB0000"/>
<path d="M150.422 109.89C165.97 109.89 178.575 99.0297 178.575 85.6329C178.575 72.2362 165.97 61.376 150.422 61.376C134.873 61.376 122.268 72.2362 122.268 85.6329C122.268 99.0297 134.873 109.89 150.422 109.89Z" fill="#AB0000"/>
<path d="M167.238 74.7069C166.154 73.7371 164.856 72.9632 163.42 72.4306C161.985 71.898 160.44 71.6173 158.878 71.6049C157.315 71.5926 155.765 71.8488 154.318 72.3587C152.871 72.8685 151.557 73.6218 150.453 74.5743C149.349 73.622 148.035 72.869 146.59 72.3592C145.144 71.8495 143.595 71.5933 142.033 71.6056C140.471 71.618 138.927 71.8986 137.492 72.4311C136.058 72.9636 134.761 73.7373 133.677 74.7069C131.554 76.6857 130.41 79.2999 130.489 81.9939C130.567 84.6879 131.862 87.2493 134.098 89.1338L147.436 100.626C147.836 100.971 148.311 101.244 148.834 101.431C149.357 101.617 149.917 101.713 150.483 101.713C151.049 101.713 151.61 101.617 152.132 101.431C152.655 101.244 153.13 100.971 153.531 100.626L166.869 89.1338C169.097 87.2435 170.383 84.6789 170.452 81.9849C170.521 79.291 169.368 76.6801 167.238 74.7069Z" fill="white"/>
<path d="M150.422 96.2322C150.215 96.2261 150.015 96.1663 149.849 96.0606C149.682 95.9549 149.556 95.8083 149.488 95.6399L143.548 80.6738L141.065 86.9325C140.994 87.1065 140.862 87.257 140.688 87.3632C140.513 87.4694 140.304 87.5259 140.09 87.5248H130.148C129.876 87.5248 129.615 87.4317 129.423 87.2659C129.23 87.1001 129.122 86.8753 129.122 86.6408C129.122 86.4064 129.23 86.1815 129.423 86.0157C129.615 85.85 129.876 85.7568 130.148 85.7568H139.382L142.604 77.6505C142.673 77.4768 142.804 77.3262 142.978 77.2196C143.152 77.113 143.36 77.0557 143.573 77.0557C143.787 77.0557 143.995 77.113 144.168 77.2196C144.342 77.3262 144.473 77.4768 144.543 77.6505L150.586 92.8819L156.455 80.9744C156.529 80.8226 156.651 80.6917 156.807 80.5964C156.963 80.5011 157.146 80.4453 157.337 80.4351C157.529 80.4256 157.721 80.4629 157.889 80.5426C158.058 80.6223 158.197 80.7413 158.291 80.886L161.39 85.748H170.737C171.009 85.748 171.27 85.8411 171.462 86.0069C171.655 86.1727 171.763 86.3975 171.763 86.632C171.763 86.8664 171.655 87.0913 171.462 87.2571C171.27 87.4228 171.009 87.516 170.737 87.516H160.795C160.611 87.5173 160.431 87.4761 160.272 87.3968C160.113 87.3175 159.982 87.203 159.892 87.0651L157.46 83.317L151.366 95.693C151.287 95.8528 151.156 95.9891 150.988 96.085C150.82 96.1809 150.623 96.2321 150.422 96.2322Z" fill="#AB0000"/>
<path d="M306.63 336.981H199.547C197.802 336.997 196.072 336.701 194.467 336.111C192.862 335.52 191.418 334.649 190.225 333.551C189.032 332.454 188.118 331.154 187.539 329.736C186.961 328.318 186.731 326.811 186.865 325.312L204.174 104.312C204.476 101.156 206.13 98.209 208.813 96.0444C211.496 93.8798 215.017 92.6517 218.692 92.5989H325.796C327.545 92.5816 329.28 92.8791 330.888 93.4721C332.497 94.0652 333.944 94.9409 335.138 96.0433C336.331 97.1456 337.245 98.4503 337.82 99.8741C338.395 101.298 338.619 102.809 338.477 104.312L321.138 325.312C320.826 328.459 319.169 331.395 316.489 333.551C313.809 335.706 310.296 336.929 306.63 336.981Z" fill="#263238"/>
<path d="M330.372 182.599H327.674C327.185 182.604 326.701 182.521 326.251 182.356C325.802 182.19 325.398 181.946 325.065 181.638C324.731 181.33 324.476 180.966 324.316 180.568C324.156 180.17 324.094 179.748 324.134 179.328L327.448 137.082C327.525 136.199 327.984 135.372 328.735 134.766C329.485 134.161 330.472 133.82 331.501 133.811H334.199C334.688 133.806 335.172 133.889 335.621 134.055C336.07 134.22 336.475 134.465 336.808 134.773C337.141 135.08 337.396 135.445 337.556 135.843C337.717 136.24 337.779 136.662 337.739 137.082L334.425 179.328C334.348 180.212 333.888 181.038 333.138 181.644C332.387 182.25 331.4 182.591 330.372 182.599Z" fill="#263238"/>
<path d="M202.614 154.417H199.926C199.529 154.421 199.134 154.355 198.768 154.221C198.401 154.087 198.071 153.89 197.798 153.64C197.526 153.391 197.316 153.096 197.182 152.773C197.049 152.45 196.994 152.107 197.023 151.765L198.223 136.507C198.299 135.791 198.679 135.124 199.291 134.634C199.902 134.145 200.702 133.867 201.537 133.855H204.236C204.632 133.853 205.025 133.922 205.389 134.056C205.753 134.191 206.082 134.389 206.353 134.638C206.625 134.887 206.834 135.181 206.967 135.503C207.101 135.824 207.156 136.166 207.129 136.507L205.928 151.765C205.855 152.482 205.475 153.15 204.863 153.64C204.251 154.13 203.45 154.407 202.614 154.417Z" fill="#AB0000"/>
<path d="M200.48 181.662H197.782C197.385 181.665 196.992 181.598 196.627 181.463C196.262 181.329 195.933 181.131 195.661 180.882C195.389 180.633 195.18 180.338 195.047 180.016C194.914 179.694 194.86 179.351 194.889 179.01L196.089 163.752C196.165 163.036 196.545 162.369 197.157 161.879C197.768 161.39 198.568 161.112 199.403 161.1H202.122C202.518 161.098 202.911 161.167 203.275 161.301C203.64 161.436 203.968 161.634 204.24 161.883C204.511 162.132 204.72 162.426 204.854 162.748C204.987 163.069 205.042 163.411 205.015 163.752L203.815 179.01C203.741 179.73 203.359 180.4 202.742 180.891C202.126 181.381 201.319 181.656 200.48 181.662Z" fill="#AB0000"/>
<path d="M304.363 336.981H197.279C195.534 336.998 193.805 336.701 192.2 336.111C190.595 335.52 189.15 334.649 187.958 333.551C186.765 332.454 185.85 331.155 185.272 329.736C184.694 328.318 184.464 326.811 184.598 325.312L201.917 104.312C202.23 101.155 203.895 98.2106 206.587 96.0522C209.28 93.8939 212.808 92.6756 216.486 92.6345H323.529C325.274 92.6177 327.005 92.9142 328.611 93.5051C330.216 94.0961 331.661 94.9685 332.854 96.067C334.047 97.1654 334.961 98.4657 335.539 99.8853C336.117 101.305 336.345 102.812 336.21 104.312L318.881 325.312C318.569 328.461 316.911 331.398 314.228 333.554C311.546 335.71 308.031 336.931 304.363 336.981Z" fill="#AB0000"/>
<path opacity="0.3" d="M185.726 322.837L202.635 107.176H335.05L318.142 322.837H185.726Z" fill="white"/>
<path opacity="0.1" d="M238.001 322.837L285.259 107.176H314.92L267.663 322.837H238.001Z" fill="white"/>
<path opacity="0.1" d="M215.593 322.837L262.851 107.176H277.882L230.624 322.837H215.593Z" fill="white"/>
<path d="M256.644 98.0534H282.468C282.684 98.0502 282.897 98.0861 283.096 98.1587C283.294 98.2313 283.473 98.339 283.62 98.4749C283.767 98.6107 283.879 98.7717 283.949 98.9473C284.02 99.1229 284.046 99.3093 284.027 99.4943C283.992 99.8838 283.789 100.248 283.459 100.516C283.129 100.784 282.696 100.937 282.242 100.944H256.418C256.202 100.946 255.988 100.909 255.789 100.835C255.591 100.762 255.412 100.653 255.266 100.517C255.119 100.38 255.007 100.219 254.936 100.043C254.866 99.8666 254.84 99.6798 254.858 99.4943C254.894 99.1057 255.097 98.7426 255.427 98.476C255.757 98.2095 256.191 98.0588 256.644 98.0534Z" fill="white"/>
<path d="M251.267 358.241L242.218 358.983L238.955 340.994L248.005 340.243L251.267 358.241Z" fill="#FFB573"/>
<path d="M241.182 355.173L250.662 352.636C250.825 352.587 251.004 352.595 251.161 352.658C251.318 352.72 251.441 352.833 251.503 352.972L254.581 359.452C254.658 359.626 254.692 359.811 254.681 359.997C254.67 360.182 254.615 360.364 254.518 360.53C254.422 360.696 254.286 360.843 254.121 360.962C253.955 361.081 253.762 361.169 253.555 361.22C250.128 362.104 246.866 362.307 242.731 363.872C237.899 365.64 235.877 368.009 230.675 368.009C226.951 368.009 226.11 365.065 227.69 364.659C234.872 362.785 233.928 361.247 239.14 356.411C239.682 355.851 240.386 355.424 241.182 355.173Z" fill="#263238"/>
<path opacity="0.2" d="M238.955 340.994L240.638 350.276L249.698 349.525L248.015 340.243L238.955 340.994Z" fill="black"/>
<path d="M245.501 113.683C233.63 112.48 221.821 113.285 209.971 115.265C207.996 115.595 206.195 116.459 204.828 117.73C203.461 119.002 202.599 120.615 202.368 122.337C201.086 132.114 199.618 154.028 205.344 186.719L253.853 183.183C253.945 177.251 249.051 150.227 253.094 122.187C253.259 121.197 253.193 120.188 252.898 119.221C252.604 118.254 252.088 117.347 251.38 116.554C250.672 115.762 249.788 115.099 248.778 114.606C247.768 114.113 246.654 113.799 245.501 113.683Z" fill="white"/>
<path d="M217.255 122.063L218.989 125.051C219.07 125.201 219.199 125.33 219.36 125.42C219.522 125.511 219.71 125.561 219.902 125.563L221.78 125.652C222.115 125.664 222.445 125.577 222.714 125.404L225.946 123.327L221.954 120.825L217.255 122.063Z" fill="#263238"/>
<path d="M221.842 124.794C221.157 124.521 220.382 124.468 219.656 124.644C218.128 129.285 216.455 142.607 216.281 148.512C220.918 160.154 222.437 161.33 222.437 161.33L224.786 147.319C224.786 147.319 222.149 132.989 221.842 124.794Z" fill="#263238"/>
<path d="M235.231 93.5273C234.123 99.291 233.179 109.819 237.981 113.541C234.461 116.724 229.855 120.41 221.955 120.825C214.054 121.241 215.275 116.529 217.276 114.01C224.653 112.312 224.294 107.574 222.847 103.145L235.231 93.5273Z" fill="#FFB573"/>
<path d="M239.992 113.037C239.432 112.829 238.852 112.666 238.258 112.551C238.112 112.518 237.958 112.527 237.819 112.576C237.68 112.626 237.564 112.713 237.488 112.825C236.729 113.939 234.41 118.916 221.955 120.825C224.007 121.868 226.725 125.104 227.895 126.66C231.63 124.989 241.346 119.994 240.423 113.532C240.404 113.425 240.355 113.324 240.279 113.238C240.204 113.152 240.105 113.083 239.992 113.037Z" fill="#F5F5F5"/>
<path d="M217.348 114.275C217.374 114.174 217.371 114.069 217.338 113.97C217.305 113.871 217.245 113.78 217.161 113.707C217.077 113.633 216.974 113.578 216.859 113.548C216.745 113.517 216.624 113.512 216.506 113.532C216.075 113.604 215.65 113.702 215.234 113.824C215.138 113.856 215.048 113.901 214.967 113.956C214.013 114.717 208.811 121.187 213.685 126.421C214.711 124.997 218.251 121.771 221.955 120.825C218.446 119.464 216.722 116.927 217.348 114.275Z" fill="#F5F5F5"/>
<path opacity="0.2" d="M230.183 97.4521L222.857 103.145C223.211 104.173 223.458 105.226 223.596 106.292C226.428 105.877 230.234 103.11 230.44 100.546C230.578 99.51 230.491 98.4607 230.183 97.4521Z" fill="black"/>
<path d="M220.395 76.1033C214.075 78.2337 213.664 82.7068 214.239 87.5953C214.814 92.4838 220.99 89.2484 222.365 86.1897C223.74 83.1311 229.147 73.1507 220.395 76.1033Z" fill="#263238"/>
<path d="M240.556 85.8539C238.801 93.5535 238.217 98.1238 233.107 101.669C225.402 106.973 214.967 102.394 214.044 94.4552C213.213 87.3036 216.219 75.8912 225.422 73.6635C227.429 73.1544 229.556 73.1052 231.592 73.521C233.628 73.9367 235.502 74.803 237.031 76.0341C238.559 77.2652 239.688 78.8186 240.306 80.5407C240.925 82.2629 241.011 84.0943 240.556 85.8539Z" fill="#FFB573"/>
<path d="M240.187 92.2277C232.666 92.5724 234.256 88.895 235.621 86.7822C236.985 84.6695 234.205 81.1777 236.021 79.3655C232.779 80.4793 229.362 79.56 225.022 76.961C221.657 74.9366 217.44 83.0252 213.336 78.9677C209.458 75.14 213.059 69.3674 222.375 68.4392C231.691 67.511 233.384 73.1863 239.499 72.6824C245.614 72.1786 243.49 76.519 242.29 77.403C247.42 77.6947 250.221 81.9202 240.187 92.2277Z" fill="#263238"/>
<path d="M241.11 77.9422C242.286 77.3862 243.269 76.5693 243.957 75.5762C244.644 74.583 245.011 73.4497 245.019 72.2935C247.05 75.3609 246.835 78.8439 241.11 77.9422Z" fill="#263238"/>
<path d="M221.616 94.0754C222.433 94.1973 223.271 94.1756 224.079 94.0115C224.886 93.8475 225.647 93.5445 226.315 93.1207C226.335 93.1042 226.351 93.0843 226.362 93.0623C226.373 93.0402 226.379 93.0165 226.379 92.9925C226.379 92.9685 226.373 92.9448 226.362 92.9228C226.351 92.9007 226.335 92.8809 226.315 92.8643C226.275 92.8314 226.222 92.813 226.166 92.813C226.111 92.813 226.057 92.8314 226.017 92.8643C225.269 93.3213 224.408 93.6223 223.502 93.7435C222.595 93.8647 221.669 93.8028 220.795 93.5627C220.739 93.5507 220.68 93.5567 220.629 93.5795C220.578 93.6023 220.539 93.6403 220.518 93.6865C220.502 93.7334 220.508 93.7838 220.535 93.8268C220.562 93.8698 220.607 93.902 220.662 93.9163C220.974 93.9938 221.293 94.0471 221.616 94.0754Z" fill="#263238"/>
<path d="M242.372 94.5879C240.967 96.1477 238.907 97.1699 236.636 97.4344C233.651 97.7703 232.656 95.3746 233.907 93.1381C235.046 91.1226 238.011 88.5236 240.761 89.222C243.511 89.9204 244.095 92.6431 242.372 94.5879Z" fill="#FFB573"/>
<path d="M239.407 261.991C239.766 238.91 243.193 183.934 243.193 183.934L205.374 186.683C205.374 186.683 212.895 243.339 217.43 266.889C222.149 291.367 236.626 348.712 236.626 348.712L252.016 347.58C252.016 347.58 246.394 279.839 239.407 261.991Z" fill="#263238"/>
<path d="M235.703 349.074L253.955 347.739L253.237 342.665L234.215 343.761L235.703 349.074Z" fill="#AB0000"/>
<path d="M227.074 86.3137C226.982 86.9413 226.51 87.4187 226.048 87.3745C225.587 87.3303 225.269 86.7822 225.371 86.1457C225.474 85.5092 225.935 85.0407 226.397 85.0849C226.859 85.1291 227.177 85.686 227.074 86.3137Z" fill="#263238"/>
<path d="M218.702 85.7481C218.61 86.3846 218.138 86.8531 217.676 86.8089C217.214 86.7647 216.896 86.2167 216.999 85.589C217.101 84.9614 217.563 84.484 218.025 84.5282C218.486 84.5724 218.805 85.0851 218.702 85.7481Z" fill="#263238"/>
<path d="M221.062 86.4907C219.826 88.1266 218.342 89.613 216.65 90.9107C217.738 91.892 219.985 91.6268 219.985 91.6268L221.062 86.4907Z" fill="#ED893E"/>
<path opacity="0.4" d="M213.408 85.9072C213.254 86.915 214.434 87.7548 216.065 87.9316C217.696 88.1084 219.205 87.3393 219.348 86.3315" fill="#AB0000"/>
<path opacity="0.4" d="M223.103 86.8442C222.878 87.8432 224.017 88.7448 225.617 89.01C227.218 89.2752 228.788 88.568 229.003 87.578" fill="#AB0000"/>
<path d="M226.253 89.2837C226.069 89.2925 225.884 89.2925 225.699 89.2837C224.911 89.2025 224.17 88.9156 223.575 88.4616C223.316 88.2707 223.114 88.0289 222.985 87.7567C222.857 87.4845 222.806 87.1896 222.837 86.8969C222.316 86.7016 221.761 86.5821 221.195 86.5433C220.626 86.421 220.03 86.421 219.461 86.5433C219.318 87.6218 217.758 88.3644 216.014 88.1787C215.225 88.1045 214.483 87.8202 213.89 87.3655C213.632 87.1736 213.431 86.9317 213.302 86.6597C213.174 86.3877 213.122 86.0933 213.151 85.8008L213.644 85.8538C213.623 86.0799 213.665 86.3069 213.767 86.516C213.869 86.7251 214.027 86.9103 214.229 87.0561C214.745 87.448 215.391 87.692 216.075 87.7544C217.553 87.9224 218.866 87.3301 218.999 86.4461C219.071 85.9511 220.261 85.9864 221.246 86.0925C222.231 86.1986 223.401 86.4373 223.298 86.9235C223.277 87.1496 223.319 87.3769 223.42 87.5861C223.522 87.7953 223.681 87.9804 223.883 88.1257C224.406 88.5124 225.05 88.7587 225.733 88.8341C226.417 88.9095 227.111 88.8107 227.731 88.55C227.97 88.4542 228.178 88.3101 228.339 88.1301C228.5 87.9501 228.608 87.7394 228.654 87.5157V87.3036L241.315 88.7091L241.253 89.1335L229.065 87.7809C228.976 88.027 228.83 88.255 228.636 88.451C228.442 88.647 228.204 88.807 227.936 88.9213C227.417 89.1578 226.84 89.2821 226.253 89.2837Z" fill="#263238"/>
<path d="M230.296 83.5378C230.369 83.538 230.44 83.5196 230.501 83.4848C230.601 83.4348 230.674 83.3532 230.704 83.2573C230.735 83.1615 230.721 83.0591 230.665 82.9721C230.347 82.4579 229.887 82.0194 229.325 81.6956C228.763 81.3717 228.116 81.1725 227.443 81.1157C227.328 81.1108 227.215 81.1451 227.129 81.2113C227.042 81.2774 226.99 81.37 226.982 81.4693C226.976 81.5663 227.015 81.6614 227.09 81.7342C227.164 81.8069 227.269 81.8514 227.382 81.8582C227.914 81.9121 228.424 82.0771 228.865 82.339C229.307 82.6009 229.668 82.9518 229.916 83.361C229.955 83.4173 230.011 83.4635 230.078 83.4946C230.144 83.5257 230.22 83.5407 230.296 83.5378Z" fill="#263238"/>
<path d="M215.993 82.539C216.064 82.545 216.136 82.5361 216.202 82.513C216.268 82.4899 216.327 82.4533 216.373 82.4064C216.705 82.0321 217.134 81.73 217.626 81.5243C218.117 81.3186 218.658 81.215 219.205 81.2219C219.261 81.2268 219.319 81.2219 219.373 81.2076C219.428 81.1934 219.478 81.1699 219.522 81.1387C219.566 81.1075 219.602 81.069 219.629 81.0257C219.655 80.9823 219.672 80.9348 219.677 80.886C219.684 80.8383 219.68 80.7899 219.665 80.7436C219.651 80.6972 219.625 80.6539 219.591 80.616C219.557 80.5782 219.514 80.5466 219.465 80.5232C219.416 80.4997 219.363 80.4848 219.307 80.4793C218.618 80.4638 217.934 80.5876 217.311 80.8409C216.687 81.0942 216.141 81.47 215.716 81.9379C215.643 82.0131 215.608 82.1101 215.617 82.2078C215.627 82.3055 215.681 82.396 215.768 82.4595C215.835 82.501 215.912 82.5282 215.993 82.539Z" fill="#263238"/>
<path d="M270.915 258.269C263.066 223.511 261.302 196.328 253.853 183.129L217.214 186.665C217.214 186.665 239.037 238.459 249.698 260.568C260.768 283.552 282.622 322.819 282.622 322.819H300.926C300.926 322.819 283.843 274.102 270.915 258.269Z" fill="#263238"/>
<path d="M154.782 126.686L150.822 124.529C150.179 124.172 149.412 124.019 148.653 124.095C147.893 124.17 147.188 124.471 146.656 124.945L143.968 127.385C143.679 127.648 143.455 127.96 143.311 128.3C143.167 128.641 143.105 129.004 143.13 129.366C143.155 129.728 143.266 130.082 143.456 130.405C143.646 130.729 143.911 131.016 144.235 131.248L146.154 132.662C147.822 133.881 149.769 134.784 151.868 135.314L157.665 136.79L161.472 133.254C162.631 129.568 154.782 126.686 154.782 126.686Z" fill="#FFB573"/>
<path d="M213.408 125.033C211.972 128.056 210.566 130.867 209.037 133.74C207.508 136.613 205.959 139.451 204.246 142.271C202.532 145.091 200.706 147.893 198.634 150.704C197.608 152.101 196.469 153.498 195.176 154.903C193.786 156.453 192.203 157.867 190.456 159.12C189.303 159.932 188.03 160.61 186.67 161.135C186.239 161.277 185.839 161.418 185.367 161.542L184.649 161.71C184.288 161.787 183.921 161.843 183.551 161.878C182.301 161.999 181.035 161.922 179.817 161.648C178.294 161.281 176.847 160.711 175.528 159.96C174.54 159.429 173.597 158.838 172.707 158.192C169.746 155.964 167.016 153.518 164.55 150.881C162.159 148.406 159.902 145.922 157.737 143.385C155.572 140.848 153.49 138.355 151.355 135.694L162.703 129.382C166.284 134.363 170.246 139.132 174.564 143.659C176.548 145.755 178.734 147.704 181.099 149.484C181.557 149.807 182.041 150.103 182.546 150.368C182.925 150.589 183.305 150.678 183.038 150.598C182.678 150.513 182.3 150.495 181.93 150.545C181.781 150.557 181.633 150.581 181.489 150.616H181.407C181.356 150.616 181.356 150.616 181.345 150.616C181.579 150.485 181.802 150.34 182.012 150.183C182.949 149.45 183.798 148.639 184.547 147.761C185.419 146.753 186.291 145.621 187.122 144.446C188.821 142.001 190.369 139.481 191.759 136.896C193.196 134.244 194.581 131.592 195.863 128.834C197.146 126.076 198.367 123.274 199.403 120.595L213.408 125.033Z" fill="#AB0000"/>
<g opacity="0.6">
<path d="M213.408 125.033C211.972 128.056 210.566 130.867 209.037 133.74C207.508 136.613 205.959 139.451 204.246 142.271C202.532 145.091 200.706 147.893 198.634 150.704C197.608 152.101 196.469 153.498 195.176 154.903C193.786 156.453 192.203 157.867 190.456 159.12C189.303 159.932 188.03 160.61 186.67 161.135C186.239 161.277 185.839 161.418 185.367 161.542L184.649 161.71C184.288 161.787 183.921 161.843 183.551 161.878C182.301 161.999 181.035 161.922 179.817 161.648C178.294 161.281 176.847 160.711 175.528 159.96C174.54 159.429 173.597 158.838 172.707 158.192C169.746 155.964 167.016 153.518 164.55 150.881C162.159 148.406 159.902 145.922 157.737 143.385C155.572 140.848 153.49 138.355 151.355 135.694L162.703 129.382C166.284 134.363 170.246 139.132 174.564 143.659C176.548 145.755 178.734 147.704 181.099 149.484C181.557 149.807 182.041 150.103 182.546 150.368C182.925 150.589 183.305 150.678 183.038 150.598C182.678 150.513 182.3 150.495 181.93 150.545C181.781 150.557 181.633 150.581 181.489 150.616H181.407C181.356 150.616 181.356 150.616 181.345 150.616C181.579 150.485 181.802 150.34 182.012 150.183C182.949 149.45 183.798 148.639 184.547 147.761C185.419 146.753 186.291 145.621 187.122 144.446C188.821 142.001 190.369 139.481 191.759 136.896C193.196 134.244 194.581 131.592 195.863 128.834C197.146 126.076 198.367 123.274 199.403 120.595L213.408 125.033Z" fill="white"/>
</g>
<path d="M240.269 111.463C236.421 117.651 222.724 141.228 221.062 155.778C214.998 142.518 216.322 113.187 216.322 113.187C212 113.55 207.761 114.443 203.733 115.839C202.434 116.299 201.309 117.059 200.482 118.036C199.654 119.013 199.156 120.168 199.044 121.373C197.863 136.55 198.42 151.79 200.706 166.873C204.964 195.426 208.914 239.829 208.914 239.829C208.914 239.829 242.823 238.609 268.986 233.853C265.795 212.027 254.879 175.447 254.776 165.653C254.653 153.047 254.992 128.401 255.453 118.111C255.531 116.658 255.002 115.23 253.964 114.083C252.925 112.937 251.444 112.149 249.79 111.861C246.651 111.36 243.449 111.226 240.269 111.463Z" fill="#AB0000"/>
<path opacity="0.7" d="M240.269 111.464C236.421 117.652 222.724 141.228 221.062 155.779C214.998 142.519 216.322 113.187 216.322 113.187C212 113.55 207.761 114.443 203.733 115.839C202.434 116.299 201.309 117.059 200.482 118.036C199.654 119.013 199.156 120.168 199.044 121.373C197.863 136.55 198.42 151.79 200.706 166.873C204.964 195.426 208.914 239.829 208.914 239.829C208.914 239.829 242.823 238.609 268.986 233.853C265.795 212.027 254.879 175.448 254.776 165.653C254.653 153.047 254.992 128.392 255.453 118.102C255.55 116.694 255.067 115.301 254.09 114.169C253.112 113.037 251.702 112.239 250.108 111.914C246.869 111.367 243.557 111.216 240.269 111.464Z" fill="white"/>
<path d="M232.276 235.091C226.387 207.095 221.718 166.015 221.339 161.074H221.862C222.242 166.015 226.92 207.042 232.799 235.038L232.276 235.091Z" fill="white"/>
<path d="M229.342 185.287H198.069C197.438 185.262 196.832 185.062 196.344 184.716C195.856 184.37 195.511 183.897 195.36 183.368L184.906 141.493C184.829 141.265 184.817 141.024 184.869 140.79C184.922 140.556 185.038 140.337 185.208 140.15C185.379 139.962 185.598 139.813 185.849 139.713C186.099 139.613 186.374 139.566 186.65 139.575H217.912C218.545 139.598 219.153 139.797 219.643 140.143C220.134 140.489 220.48 140.963 220.631 141.493L231.086 183.368C231.162 183.597 231.175 183.838 231.122 184.071C231.07 184.305 230.953 184.524 230.783 184.712C230.613 184.899 230.393 185.049 230.143 185.149C229.892 185.249 229.618 185.296 229.342 185.287Z" fill="white"/>
<path d="M228.367 185.64H196.561C195.918 185.614 195.302 185.41 194.805 185.058C194.307 184.706 193.955 184.225 193.801 183.686L183.161 141.104C183.085 140.871 183.074 140.625 183.129 140.387C183.184 140.15 183.303 139.927 183.477 139.736C183.651 139.546 183.875 139.393 184.131 139.292C184.386 139.19 184.666 139.141 184.947 139.15H216.753C217.396 139.176 218.012 139.38 218.509 139.732C219.006 140.085 219.358 140.566 219.513 141.104L230.142 183.686C230.22 183.919 230.233 184.165 230.18 184.402C230.126 184.64 230.008 184.864 229.835 185.055C229.661 185.245 229.438 185.398 229.183 185.5C228.928 185.602 228.648 185.65 228.367 185.64Z" fill="#AB0000"/>
<path d="M232.009 161.613L224.099 161.356C223.148 161.328 222.2 161.473 221.318 161.781L217.214 163.195C216.829 163.327 216.479 163.524 216.184 163.774C215.89 164.025 215.657 164.325 215.5 164.655C215.343 164.985 215.265 165.339 215.27 165.696C215.276 166.053 215.364 166.405 215.532 166.731L217.173 169.79C217.504 170.383 218.063 170.86 218.754 171.14C219.446 171.42 220.228 171.487 220.969 171.328L225.494 170.356C225.494 170.356 233.989 169.772 234.297 165.936L232.009 161.613Z" fill="#FFB573"/>
<path d="M253.853 115.256C255.812 117.908 257.608 120.33 259.373 122.929C261.137 125.528 262.871 128.1 264.503 130.788C266.134 133.475 267.683 136.251 269.089 139.221C269.819 140.777 270.442 142.368 270.956 143.986C271.618 145.958 271.922 148.007 271.859 150.059V150.404C271.863 150.463 271.863 150.522 271.859 150.58C271.859 150.899 271.756 151.217 271.685 151.535C271.613 151.853 271.52 152.101 271.418 152.419C271.315 152.737 271.202 152.905 271.09 153.153C270.697 153.918 270.194 154.637 269.592 155.292C268.753 156.195 267.8 157.013 266.75 157.732C265.136 158.827 263.42 159.806 261.62 160.658C258.452 162.15 255.191 163.49 251.852 164.671C248.62 165.856 245.399 166.935 242.156 167.951C238.914 168.968 235.723 169.949 232.348 170.921L228.439 159.783C231.517 159.058 234.656 158.165 237.724 157.264C240.792 156.362 243.88 155.354 246.794 154.302C249.653 153.284 252.442 152.124 255.145 150.828C256.286 150.283 257.374 149.659 258.398 148.963C258.667 148.787 258.908 148.582 259.116 148.353C259.028 148.439 258.958 148.537 258.911 148.645C258.911 148.724 258.86 148.777 258.808 148.874C258.768 148.978 258.737 149.085 258.716 149.193C258.673 149.328 258.645 149.468 258.634 149.608C258.634 149.661 258.634 149.67 258.634 149.652V149.59C258.562 148.752 258.373 147.923 258.07 147.124C257.659 145.967 257.173 144.83 256.613 143.721C255.358 141.274 253.94 138.892 252.365 136.587C250.764 134.218 249.061 131.849 247.235 129.515C245.409 127.181 243.541 124.856 241.664 122.734L253.853 115.256Z" fill="#AB0000"/>
<g opacity="0.7">
<path d="M253.853 115.256C255.812 117.908 257.608 120.33 259.373 122.929C261.137 125.528 262.871 128.1 264.503 130.788C266.134 133.475 267.683 136.251 269.089 139.221C269.819 140.777 270.442 142.368 270.956 143.986C271.618 145.958 271.922 148.007 271.859 150.059V150.404C271.863 150.463 271.863 150.522 271.859 150.58C271.859 150.899 271.756 151.217 271.685 151.535C271.613 151.853 271.52 152.101 271.418 152.419C271.315 152.737 271.202 152.905 271.09 153.153C270.697 153.918 270.194 154.637 269.592 155.292C268.753 156.195 267.8 157.013 266.75 157.732C265.136 158.827 263.42 159.806 261.62 160.658C258.452 162.15 255.191 163.49 251.852 164.671C248.62 165.856 245.399 166.935 242.156 167.951C238.914 168.968 235.723 169.949 232.348 170.921L228.439 159.783C231.517 159.058 234.656 158.165 237.724 157.264C240.792 156.362 243.88 155.354 246.794 154.302C249.653 153.284 252.442 152.124 255.145 150.828C256.286 150.283 257.374 149.659 258.398 148.963C258.667 148.787 258.908 148.582 259.116 148.353C259.028 148.439 258.958 148.537 258.911 148.645C258.911 148.724 258.86 148.777 258.808 148.874C258.768 148.978 258.737 149.085 258.716 149.193C258.673 149.328 258.645 149.468 258.634 149.608C258.634 149.661 258.634 149.67 258.634 149.652V149.59C258.562 148.752 258.373 147.923 258.07 147.124C257.659 145.967 257.173 144.83 256.613 143.721C255.358 141.274 253.94 138.892 252.365 136.587C250.764 134.218 249.061 131.849 247.235 129.515C245.409 127.181 243.541 124.856 241.664 122.734L253.853 115.256Z" fill="white"/>
</g>
<path d="M243.47 145.931C243.401 145.93 243.334 145.914 243.275 145.885C243.216 145.855 243.166 145.813 243.131 145.763C243.101 145.724 243.08 145.681 243.07 145.635C243.06 145.59 243.061 145.543 243.072 145.497C243.084 145.452 243.106 145.409 243.137 145.371C243.168 145.333 243.208 145.301 243.254 145.277L244.855 144.393C246.349 143.581 247.521 142.397 248.218 140.999C248.914 139.6 249.101 138.053 248.754 136.56L245.532 122.505C245.296 121.454 244.656 120.502 243.714 119.804C242.773 119.105 241.586 118.701 240.344 118.656C239.103 118.611 237.881 118.928 236.874 119.556C235.868 120.184 235.137 121.086 234.8 122.116L230.234 135.897C229.736 137.354 229.763 138.907 230.313 140.35C230.862 141.793 231.909 143.058 233.312 143.977L234.831 144.967C234.916 145.025 234.972 145.109 234.985 145.202C234.999 145.295 234.969 145.388 234.903 145.462C234.87 145.498 234.83 145.529 234.784 145.552C234.738 145.574 234.688 145.589 234.635 145.595C234.583 145.6 234.53 145.597 234.479 145.585C234.428 145.573 234.38 145.552 234.338 145.524L232.902 144.543C231.359 143.542 230.206 142.16 229.596 140.581C228.985 139.003 228.947 137.301 229.485 135.703L234.061 121.921C234.454 120.745 235.294 119.716 236.447 119C237.6 118.284 238.999 117.922 240.419 117.973C241.839 118.024 243.198 118.485 244.278 119.281C245.357 120.077 246.095 121.162 246.373 122.363L249.595 136.428C249.975 138.058 249.772 139.749 249.011 141.277C248.251 142.805 246.97 144.098 245.337 144.985L243.726 145.869C243.69 145.894 243.649 145.912 243.605 145.923C243.561 145.933 243.515 145.936 243.47 145.931Z" fill="#263238"/>
<path d="M245.932 122.797L234.41 122.381C234.356 122.379 234.303 122.367 234.255 122.347C234.206 122.328 234.162 122.3 234.126 122.265C234.09 122.231 234.062 122.19 234.044 122.146C234.025 122.103 234.018 122.056 234.02 122.01C234.031 121.918 234.08 121.832 234.16 121.77C234.24 121.708 234.344 121.673 234.451 121.674L245.963 122.089C246.017 122.092 246.07 122.103 246.119 122.123C246.167 122.143 246.211 122.171 246.247 122.205C246.284 122.24 246.311 122.28 246.33 122.324C246.348 122.368 246.356 122.414 246.353 122.461C246.352 122.507 246.34 122.552 246.318 122.594C246.296 122.636 246.264 122.674 246.225 122.705C246.186 122.736 246.14 122.761 246.089 122.776C246.039 122.792 245.986 122.799 245.932 122.797Z" fill="#263238"/>
<path d="M240.33 118.677C240.224 118.675 240.122 118.638 240.046 118.574C239.97 118.51 239.925 118.424 239.92 118.332C239.92 116.564 239.284 113.497 237.365 112.825C237.312 112.81 237.263 112.785 237.221 112.753C237.18 112.721 237.146 112.681 237.123 112.638C237.099 112.594 237.087 112.546 237.085 112.498C237.084 112.45 237.094 112.402 237.115 112.357C237.136 112.312 237.168 112.272 237.208 112.238C237.248 112.204 237.295 112.178 237.347 112.16C237.4 112.143 237.455 112.135 237.511 112.136C237.567 112.138 237.622 112.15 237.673 112.171C240.515 113.179 240.751 117.793 240.751 118.359C240.751 118.452 240.709 118.542 240.635 118.609C240.56 118.677 240.459 118.717 240.351 118.721L240.33 118.677Z" fill="#263238"/>
<path d="M205.087 130.69H205.005C204.899 130.671 204.806 130.617 204.747 130.539C204.687 130.461 204.666 130.366 204.687 130.275C206.041 124.467 211.643 115.3 216.578 112.595C216.623 112.571 216.673 112.555 216.726 112.547C216.778 112.54 216.832 112.542 216.883 112.553C216.935 112.563 216.983 112.583 217.026 112.61C217.069 112.637 217.105 112.671 217.132 112.71C217.162 112.748 217.183 112.79 217.193 112.835C217.203 112.88 217.202 112.927 217.19 112.971C217.179 113.016 217.157 113.058 217.126 113.095C217.095 113.133 217.055 113.164 217.009 113.187C212.238 115.786 206.801 124.679 205.487 130.399C205.47 130.48 205.421 130.553 205.348 130.607C205.275 130.66 205.183 130.69 205.087 130.69Z" fill="#263238"/>
<path d="M208.452 131.601C207.816 133.007 206.4 133.855 205.374 133.493C204.348 133.13 203.948 131.725 204.584 130.284C205.22 128.843 206.636 128.03 207.662 128.401C208.688 128.772 209.099 130.196 208.452 131.601Z" fill="white"/>
<path d="M235.539 145.294C235.539 145.948 235.067 146.47 234.564 146.452C234.061 146.435 233.671 145.886 233.702 145.223C233.733 144.56 234.174 144.039 234.677 144.065C235.18 144.092 235.569 144.631 235.539 145.294Z" fill="white"/>
<path d="M244.383 145.613C244.383 146.267 243.921 146.788 243.408 146.771C242.895 146.753 242.526 146.205 242.556 145.542C242.587 144.879 243.018 144.366 243.582 144.384C244.147 144.401 244.414 144.976 244.383 145.613Z" fill="white"/>
<path d="M418.372 133.351L417.346 133.298C417.517 131.416 417.231 129.524 416.508 127.742C415.785 125.96 414.64 124.327 413.146 122.946C411.652 121.566 409.841 120.468 407.828 119.722C405.815 118.976 403.644 118.599 401.453 118.615V117.731C403.785 117.714 406.095 118.115 408.237 118.907C410.379 119.7 412.307 120.868 413.898 122.337C415.489 123.805 416.708 125.543 417.478 127.439C418.248 129.335 418.552 131.348 418.372 133.351Z" fill="#AB0000"/>
<path d="M418.913 137.058L418.318 144.377L419.344 144.439L419.939 137.12L418.913 137.058Z" fill="#AB0000"/>
<path d="M401.453 120.825H330.659C326.793 120.88 323.089 122.171 320.267 124.449C317.445 126.727 315.708 129.827 315.392 133.148L314.746 141.36C314.599 142.94 314.836 144.53 315.441 146.027C316.047 147.524 317.007 148.895 318.262 150.055C319.517 151.214 321.039 152.135 322.73 152.76C324.421 153.385 326.244 153.699 328.084 153.683H398.878L412.606 160.976L414.781 133.148C414.929 131.568 414.694 129.979 414.09 128.482C413.485 126.985 412.526 125.613 411.272 124.454C410.018 123.294 408.497 122.372 406.806 121.748C405.116 121.123 403.293 120.809 401.453 120.825Z" fill="#AB0000"/>
<path d="M397.862 132.591H332.291V134.642H397.862V132.591Z" fill="white"/>
<path d="M397.288 139.866H348.604V141.917H397.288V139.866Z" fill="white"/>
<path d="M294.954 164.76H367.308C369.189 164.742 371.054 165.063 372.783 165.701C374.512 166.339 376.068 167.281 377.351 168.467C378.634 169.652 379.616 171.055 380.235 172.586C380.853 174.116 381.095 175.741 380.944 177.357L380.287 185.755C379.962 189.148 378.185 192.316 375.301 194.644C372.417 196.972 368.632 198.293 364.681 198.352H292.318L277.112 205.822L279.349 177.357C279.672 173.963 281.448 170.794 284.332 168.466C287.217 166.137 291.003 164.817 294.954 164.76Z" fill="white"/>
<path opacity="0.15" d="M294.954 164.76H367.308C369.189 164.742 371.054 165.063 372.783 165.701C374.512 166.339 376.068 167.281 377.351 168.467C378.634 169.652 379.616 171.055 380.235 172.586C380.853 174.116 381.095 175.741 380.944 177.357L380.287 185.755C379.962 189.148 378.185 192.316 375.301 194.644C372.417 196.972 368.632 198.293 364.681 198.352H292.318L277.112 205.822L279.349 177.357C279.672 173.963 281.448 170.794 284.332 168.466C287.217 166.137 291.003 164.817 294.954 164.76Z" fill="#AB0000"/>
<path opacity="0.5" d="M363.635 176.791H296.575V178.895H363.635V176.791Z" fill="#AB0000"/>
<path opacity="0.5" d="M322.492 184.226H295.991V186.33H322.492V184.226Z" fill="#AB0000"/>
<path opacity="0.5" d="M345.916 184.226H328.987V186.33H345.916V184.226Z" fill="#AB0000"/>
</svg>
